G04 (created by PCBNEW (2013-05-31 BZR 4019)-stable) date 12.01.2015 16:56:15*
%MOIN*%
G04 Gerber Fmt 3.4, Leading zero omitted, Abs format*
%FSLAX34Y34*%
G01*
G70*
G90*
G04 APERTURE LIST*
%ADD10C,0.00590551*%
%ADD11R,0.0394X0.0315*%
%ADD12R,0.0315X0.0394*%
%ADD13R,0.0236X0.0551*%
%ADD14R,0.0551X0.0236*%
%ADD15R,0.1X0.05*%
%ADD16R,0.05X0.1*%
%ADD17R,0.035X0.055*%
%ADD18R,0.055X0.035*%
%ADD19R,0.0472X0.0472*%
%ADD20R,0.0984252X0.019685*%
%ADD21R,0.019685X0.0984252*%
G04 APERTURE END LIST*
G54D10*
G54D11*
X41456Y-56102D03*
X40590Y-56477D03*
X40590Y-55727D03*
G54D12*
X45669Y-50905D03*
X45294Y-50039D03*
X46044Y-50039D03*
X41102Y-58070D03*
X40727Y-57204D03*
X41477Y-57204D03*
G54D11*
X43740Y-49685D03*
X44606Y-49310D03*
X44606Y-50060D03*
G54D13*
X45553Y-60380D03*
X45553Y-58280D03*
X45053Y-60380D03*
X44553Y-60380D03*
X44053Y-60380D03*
X45053Y-58280D03*
X44553Y-58280D03*
X44053Y-58280D03*
G54D14*
X41469Y-53860D03*
X43569Y-53860D03*
X41469Y-53360D03*
X41469Y-52860D03*
X41469Y-52360D03*
X43569Y-53360D03*
X43569Y-52860D03*
X43569Y-52360D03*
G54D15*
X47007Y-55993D03*
X47007Y-54793D03*
G54D16*
X42510Y-56850D03*
X43710Y-56850D03*
X40914Y-59960D03*
X39714Y-59960D03*
G54D15*
X47401Y-51801D03*
X47401Y-53001D03*
G54D17*
X44312Y-51299D03*
X43562Y-51299D03*
G54D18*
X44566Y-54036D03*
X44566Y-53286D03*
G54D17*
X46632Y-50905D03*
X47382Y-50905D03*
G54D18*
X40511Y-52459D03*
X40511Y-53209D03*
G54D17*
X46437Y-52716D03*
X45687Y-52716D03*
X45687Y-53582D03*
X46437Y-53582D03*
X42184Y-50354D03*
X42934Y-50354D03*
X43721Y-54921D03*
X42971Y-54921D03*
X42146Y-54921D03*
X41396Y-54921D03*
X43721Y-55787D03*
X42971Y-55787D03*
X45412Y-51811D03*
X46162Y-51811D03*
X40491Y-51417D03*
X41241Y-51417D03*
X42894Y-58779D03*
X42144Y-58779D03*
G54D18*
X40157Y-48562D03*
X40157Y-49312D03*
X41181Y-48562D03*
X41181Y-49312D03*
X46456Y-60335D03*
X46456Y-59585D03*
X47204Y-57540D03*
X47204Y-56790D03*
X47204Y-58997D03*
X47204Y-58247D03*
G54D17*
X40453Y-61062D03*
X39703Y-61062D03*
X59351Y-65551D03*
X58601Y-65551D03*
G54D18*
X64094Y-53524D03*
X64094Y-52774D03*
X63818Y-57026D03*
X63818Y-57776D03*
G54D17*
X59979Y-55196D03*
X60729Y-55196D03*
G54D18*
X54527Y-63404D03*
X54527Y-64154D03*
X63346Y-62499D03*
X63346Y-63249D03*
X57204Y-55375D03*
X57204Y-54625D03*
G54D17*
X53367Y-59488D03*
X52617Y-59488D03*
X45375Y-56811D03*
X44625Y-56811D03*
X42459Y-60393D03*
X43209Y-60393D03*
X43207Y-61259D03*
X43957Y-61259D03*
G54D19*
X64094Y-51948D03*
X64094Y-51122D03*
G54D20*
X55590Y-58228D03*
X55590Y-58543D03*
X55590Y-58858D03*
X55590Y-59173D03*
X55590Y-59488D03*
X55590Y-59803D03*
X55590Y-60118D03*
X55590Y-60433D03*
X55590Y-60748D03*
X55590Y-61062D03*
X55590Y-61377D03*
X55590Y-61692D03*
X55590Y-62007D03*
X55590Y-62322D03*
X55590Y-62637D03*
X55590Y-62952D03*
G54D21*
X56456Y-63818D03*
X56771Y-63818D03*
X57086Y-63818D03*
X57401Y-63818D03*
X57716Y-63818D03*
X58031Y-63818D03*
X58346Y-63818D03*
X58661Y-63818D03*
X58976Y-63818D03*
X59291Y-63818D03*
X59606Y-63818D03*
X59921Y-63818D03*
X60236Y-63818D03*
X60551Y-63818D03*
X60866Y-63818D03*
X61181Y-63818D03*
G54D20*
X62047Y-62952D03*
X62047Y-62637D03*
X62047Y-62322D03*
X62047Y-62007D03*
X62047Y-61692D03*
X62047Y-61377D03*
X62047Y-61062D03*
X62047Y-60748D03*
X62047Y-60433D03*
X62047Y-60118D03*
X62047Y-59803D03*
X62047Y-59488D03*
X62047Y-59173D03*
X62047Y-58858D03*
X62047Y-58543D03*
X62047Y-58228D03*
G54D21*
X61181Y-57362D03*
X60866Y-57362D03*
X60551Y-57362D03*
X60236Y-57362D03*
X59921Y-57362D03*
X59606Y-57362D03*
X59291Y-57362D03*
X58976Y-57362D03*
X58661Y-57362D03*
X58346Y-57362D03*
X58031Y-57362D03*
X57716Y-57362D03*
X57401Y-57362D03*
X57086Y-57362D03*
X56771Y-57362D03*
X56456Y-57362D03*
G54D13*
X43584Y-65026D03*
X43584Y-62926D03*
X43084Y-65026D03*
X42584Y-65026D03*
X42084Y-65026D03*
X43084Y-62926D03*
X42584Y-62926D03*
X42084Y-62926D03*
G54D18*
X41062Y-63916D03*
X41062Y-64666D03*
X41062Y-63170D03*
X41062Y-62420D03*
M02*
