G04 (created by PCBNEW (2013-05-31 BZR 4019)-stable) date 12.01.2015 16:56:15*
%MOIN*%
G04 Gerber Fmt 3.4, Leading zero omitted, Abs format*
%FSLAX34Y34*%
G01*
G70*
G90*
G04 APERTURE LIST*
%ADD10C,0.00590551*%
%ADD11C,0.19685*%
%ADD12C,0.0590551*%
%ADD13C,0.106299*%
%ADD14C,0.0551181*%
%ADD15R,0.0394X0.0315*%
%ADD16R,0.0315X0.0394*%
%ADD17R,0.0236X0.0551*%
%ADD18R,0.0551X0.0236*%
%ADD19R,0.1X0.05*%
%ADD20R,0.05X0.1*%
%ADD21R,0.035X0.055*%
%ADD22R,0.055X0.035*%
%ADD23R,0.0551181X0.0551181*%
%ADD24R,0.0590551X0.0590551*%
%ADD25C,0.0629921*%
%ADD26R,0.0472X0.0472*%
%ADD27R,0.0787402X0.0787402*%
%ADD28C,0.0787402*%
%ADD29R,0.0984252X0.019685*%
%ADD30R,0.019685X0.0984252*%
%ADD31R,0.0629921X0.0629921*%
%ADD32R,0.055X0.055*%
%ADD33C,0.0314961*%
%ADD34C,0.0708661*%
%ADD35C,0.011811*%
%ADD36C,0.01*%
G04 APERTURE END LIST*
G54D10*
G54D11*
X67401Y-47716D03*
X44291Y-47795D03*
X65314Y-63503D03*
X41574Y-66574D03*
G54D12*
X67638Y-64342D03*
X67638Y-65342D03*
X68425Y-65342D03*
X68425Y-64342D03*
G54D13*
X69488Y-62480D03*
X69488Y-67204D03*
G54D14*
X50842Y-53271D03*
X48842Y-53271D03*
X50842Y-50271D03*
X48842Y-50271D03*
X50842Y-58389D03*
X48842Y-58389D03*
X50842Y-55389D03*
X48842Y-55389D03*
G54D15*
X41456Y-56102D03*
X40590Y-56477D03*
X40590Y-55727D03*
G54D16*
X45669Y-50905D03*
X45294Y-50039D03*
X46044Y-50039D03*
X41102Y-58070D03*
X40727Y-57204D03*
X41477Y-57204D03*
G54D15*
X43740Y-49685D03*
X44606Y-49310D03*
X44606Y-50060D03*
G54D17*
X45553Y-60380D03*
X45553Y-58280D03*
X45053Y-60380D03*
X44553Y-60380D03*
X44053Y-60380D03*
X45053Y-58280D03*
X44553Y-58280D03*
X44053Y-58280D03*
G54D18*
X41469Y-53860D03*
X43569Y-53860D03*
X41469Y-53360D03*
X41469Y-52860D03*
X41469Y-52360D03*
X43569Y-53360D03*
X43569Y-52860D03*
X43569Y-52360D03*
G54D19*
X47007Y-55993D03*
X47007Y-54793D03*
G54D20*
X42510Y-56850D03*
X43710Y-56850D03*
X40914Y-59960D03*
X39714Y-59960D03*
G54D19*
X47401Y-51801D03*
X47401Y-53001D03*
G54D21*
X44312Y-51299D03*
X43562Y-51299D03*
G54D22*
X44566Y-54036D03*
X44566Y-53286D03*
G54D21*
X46632Y-50905D03*
X47382Y-50905D03*
G54D22*
X40511Y-52459D03*
X40511Y-53209D03*
G54D21*
X46437Y-52716D03*
X45687Y-52716D03*
X45687Y-53582D03*
X46437Y-53582D03*
X42184Y-50354D03*
X42934Y-50354D03*
X43721Y-54921D03*
X42971Y-54921D03*
X42146Y-54921D03*
X41396Y-54921D03*
X43721Y-55787D03*
X42971Y-55787D03*
X45412Y-51811D03*
X46162Y-51811D03*
X40491Y-51417D03*
X41241Y-51417D03*
X42894Y-58779D03*
X42144Y-58779D03*
G54D22*
X40157Y-48562D03*
X40157Y-49312D03*
X41181Y-48562D03*
X41181Y-49312D03*
X46456Y-60335D03*
X46456Y-59585D03*
X47204Y-57540D03*
X47204Y-56790D03*
X47204Y-58997D03*
X47204Y-58247D03*
G54D21*
X40453Y-61062D03*
X39703Y-61062D03*
X59351Y-65551D03*
X58601Y-65551D03*
G54D22*
X64094Y-53524D03*
X64094Y-52774D03*
X63818Y-57026D03*
X63818Y-57776D03*
G54D21*
X59979Y-55196D03*
X60729Y-55196D03*
G54D22*
X54527Y-63404D03*
X54527Y-64154D03*
X63346Y-62499D03*
X63346Y-63249D03*
X57204Y-55375D03*
X57204Y-54625D03*
G54D21*
X53367Y-59488D03*
X52617Y-59488D03*
X45375Y-56811D03*
X44625Y-56811D03*
X42459Y-60393D03*
X43209Y-60393D03*
X43207Y-61259D03*
X43957Y-61259D03*
G54D23*
X69173Y-48862D03*
G54D14*
X69173Y-49862D03*
X69173Y-50862D03*
X69173Y-51862D03*
X69173Y-52862D03*
X69173Y-53862D03*
X69173Y-54862D03*
X69173Y-55862D03*
G54D23*
X58192Y-47165D03*
G54D14*
X59192Y-47165D03*
X60192Y-47165D03*
X61192Y-47165D03*
X62192Y-47165D03*
X63192Y-47165D03*
X64192Y-47165D03*
X65192Y-47165D03*
G54D23*
X57712Y-67086D03*
G54D14*
X56712Y-67086D03*
X55712Y-67086D03*
X54712Y-67086D03*
X53712Y-67086D03*
X52712Y-67086D03*
X51712Y-67086D03*
X50712Y-67086D03*
G54D23*
X49755Y-47165D03*
G54D14*
X50755Y-47165D03*
X51755Y-47165D03*
X52755Y-47165D03*
X53755Y-47165D03*
X54755Y-47165D03*
X55755Y-47165D03*
G54D23*
X60610Y-67086D03*
G54D14*
X61610Y-67086D03*
X62610Y-67086D03*
X63610Y-67086D03*
X64610Y-67086D03*
X65610Y-67086D03*
G54D23*
X40181Y-47559D03*
G54D14*
X41181Y-47559D03*
X42181Y-47559D03*
G54D23*
X41169Y-50354D03*
G54D14*
X40169Y-50354D03*
G54D23*
X47374Y-48149D03*
G54D14*
X48374Y-48149D03*
G54D23*
X46259Y-48137D03*
G54D14*
X46259Y-47137D03*
G54D23*
X47374Y-47165D03*
G54D14*
X48374Y-47165D03*
G54D23*
X49409Y-54330D03*
G54D24*
X57625Y-50527D03*
G54D25*
X56625Y-50527D03*
X57625Y-49527D03*
X56625Y-49527D03*
X57625Y-48527D03*
X56625Y-48527D03*
G54D26*
X64094Y-51948D03*
X64094Y-51122D03*
G54D27*
X68622Y-57858D03*
G54D28*
X68622Y-59858D03*
G54D29*
X55590Y-58228D03*
X55590Y-58543D03*
X55590Y-58858D03*
X55590Y-59173D03*
X55590Y-59488D03*
X55590Y-59803D03*
X55590Y-60118D03*
X55590Y-60433D03*
X55590Y-60748D03*
X55590Y-61062D03*
X55590Y-61377D03*
X55590Y-61692D03*
X55590Y-62007D03*
X55590Y-62322D03*
X55590Y-62637D03*
X55590Y-62952D03*
G54D30*
X56456Y-63818D03*
X56771Y-63818D03*
X57086Y-63818D03*
X57401Y-63818D03*
X57716Y-63818D03*
X58031Y-63818D03*
X58346Y-63818D03*
X58661Y-63818D03*
X58976Y-63818D03*
X59291Y-63818D03*
X59606Y-63818D03*
X59921Y-63818D03*
X60236Y-63818D03*
X60551Y-63818D03*
X60866Y-63818D03*
X61181Y-63818D03*
G54D29*
X62047Y-62952D03*
X62047Y-62637D03*
X62047Y-62322D03*
X62047Y-62007D03*
X62047Y-61692D03*
X62047Y-61377D03*
X62047Y-61062D03*
X62047Y-60748D03*
X62047Y-60433D03*
X62047Y-60118D03*
X62047Y-59803D03*
X62047Y-59488D03*
X62047Y-59173D03*
X62047Y-58858D03*
X62047Y-58543D03*
X62047Y-58228D03*
G54D30*
X61181Y-57362D03*
X60866Y-57362D03*
X60551Y-57362D03*
X60236Y-57362D03*
X59921Y-57362D03*
X59606Y-57362D03*
X59291Y-57362D03*
X58976Y-57362D03*
X58661Y-57362D03*
X58346Y-57362D03*
X58031Y-57362D03*
X57716Y-57362D03*
X57401Y-57362D03*
X57086Y-57362D03*
X56771Y-57362D03*
X56456Y-57362D03*
G54D17*
X43584Y-65026D03*
X43584Y-62926D03*
X43084Y-65026D03*
X42584Y-65026D03*
X42084Y-65026D03*
X43084Y-62926D03*
X42584Y-62926D03*
X42084Y-62926D03*
G54D31*
X47259Y-63200D03*
G54D25*
X47259Y-64200D03*
X46259Y-63200D03*
X46259Y-64200D03*
X45259Y-63200D03*
X45259Y-64200D03*
G54D22*
X41062Y-63916D03*
X41062Y-64666D03*
X41062Y-63170D03*
X41062Y-62420D03*
G54D32*
X49232Y-67086D03*
G54D14*
X48232Y-67086D03*
X47232Y-67086D03*
X46232Y-67086D03*
X45232Y-67086D03*
X44232Y-67086D03*
G54D23*
X39881Y-64818D03*
G54D14*
X39881Y-63818D03*
X39881Y-62818D03*
X56625Y-50527D03*
G54D33*
X59370Y-66338D03*
G54D14*
X48374Y-48149D03*
X48374Y-47165D03*
G54D33*
X55236Y-63464D03*
X56614Y-54842D03*
X60000Y-54488D03*
X64488Y-57322D03*
X64173Y-62519D03*
X46417Y-60944D03*
X43543Y-54330D03*
X48149Y-55629D03*
X48149Y-59055D03*
X44173Y-65039D03*
X56456Y-55354D03*
X55275Y-56220D03*
X54212Y-56220D03*
X53385Y-58818D03*
X42086Y-64173D03*
X42204Y-58070D03*
X41889Y-61496D03*
X43070Y-62204D03*
G54D14*
X47259Y-64200D03*
G54D33*
X41102Y-65275D03*
X43070Y-65669D03*
X48346Y-64212D03*
G54D14*
X47259Y-63200D03*
G54D33*
X44606Y-61850D03*
G54D14*
X40169Y-50354D03*
X41169Y-50354D03*
X50842Y-50271D03*
X50842Y-53271D03*
X57625Y-48527D03*
X57625Y-50527D03*
X68425Y-65342D03*
X67638Y-65342D03*
G54D33*
X56929Y-56023D03*
X56102Y-54842D03*
G54D14*
X42181Y-47559D03*
G54D33*
X47401Y-53818D03*
X40590Y-55236D03*
X39527Y-55236D03*
X40669Y-61811D03*
X42834Y-64055D03*
G54D14*
X39881Y-64818D03*
G54D33*
X44291Y-57559D03*
X41929Y-62283D03*
X66141Y-48425D03*
X53700Y-54803D03*
X52598Y-60196D03*
G54D14*
X48842Y-58389D03*
X48842Y-55389D03*
X48842Y-50271D03*
X48842Y-53271D03*
X56625Y-48527D03*
X46259Y-48137D03*
X46259Y-47137D03*
X47374Y-48149D03*
X47374Y-47165D03*
G54D34*
X68622Y-57858D03*
G54D14*
X68425Y-64342D03*
X65192Y-47165D03*
X69173Y-48862D03*
X69173Y-49862D03*
X69173Y-51862D03*
X69173Y-52862D03*
X69173Y-53862D03*
X69173Y-54862D03*
X69173Y-55862D03*
X53755Y-47165D03*
X55755Y-47165D03*
X59192Y-47165D03*
X54755Y-47165D03*
X52755Y-47165D03*
X51755Y-47165D03*
X50755Y-47165D03*
X49755Y-47165D03*
X47232Y-67086D03*
G54D33*
X41062Y-61062D03*
X39370Y-57401D03*
G54D14*
X60192Y-47165D03*
G54D33*
X39842Y-58149D03*
X46220Y-57519D03*
X45039Y-57519D03*
X44409Y-59448D03*
G54D14*
X40181Y-47559D03*
X41181Y-47559D03*
X61192Y-47165D03*
X45232Y-67086D03*
X44232Y-67086D03*
X69173Y-50862D03*
X48232Y-67086D03*
X46232Y-67086D03*
X46259Y-63200D03*
X62192Y-47165D03*
G54D33*
X42244Y-53385D03*
G54D14*
X50712Y-67086D03*
X49232Y-67086D03*
X63192Y-47165D03*
G54D33*
X44566Y-54645D03*
X45157Y-53346D03*
X40511Y-54034D03*
G54D14*
X46259Y-64200D03*
X45259Y-64200D03*
X45259Y-63200D03*
X64192Y-47165D03*
X39881Y-63818D03*
X39881Y-62818D03*
X61610Y-67086D03*
X54712Y-67086D03*
X55712Y-67086D03*
X56712Y-67086D03*
X57712Y-67086D03*
X65610Y-67086D03*
X53712Y-67086D03*
X60610Y-67086D03*
X58192Y-47165D03*
X64610Y-67086D03*
X63610Y-67086D03*
X62610Y-67086D03*
G54D33*
X57913Y-54606D03*
X58188Y-54133D03*
X43307Y-59842D03*
X46102Y-58280D03*
X45039Y-59645D03*
X43937Y-59803D03*
X41614Y-60393D03*
G54D14*
X49409Y-54330D03*
X50842Y-58389D03*
X50842Y-55389D03*
X52712Y-67086D03*
G54D33*
X46574Y-50039D03*
G54D14*
X51712Y-67086D03*
G54D34*
X68622Y-59858D03*
G54D14*
X67638Y-64342D03*
G54D35*
X64488Y-57322D02*
X64488Y-54448D01*
X64094Y-54055D02*
X64094Y-53524D01*
X64488Y-54448D02*
X64094Y-54055D01*
X59351Y-65551D02*
X59351Y-66319D01*
X59351Y-66319D02*
X59370Y-66338D01*
X55176Y-63404D02*
X54527Y-63404D01*
X55236Y-63464D02*
X55176Y-63404D01*
X54527Y-63404D02*
X54527Y-62755D01*
X54527Y-62755D02*
X54645Y-62637D01*
X54645Y-62637D02*
X55590Y-62637D01*
X56625Y-50527D02*
X56625Y-54830D01*
X56625Y-54830D02*
X56614Y-54842D01*
X59979Y-55196D02*
X59979Y-54508D01*
X59979Y-54508D02*
X60000Y-54488D01*
X59921Y-57362D02*
X59921Y-55254D01*
X59921Y-55254D02*
X59979Y-55196D01*
X64191Y-57026D02*
X63818Y-57026D01*
X64488Y-57322D02*
X64191Y-57026D01*
X62047Y-59173D02*
X62834Y-59173D01*
X62834Y-59173D02*
X63307Y-58700D01*
X63307Y-58700D02*
X63307Y-57165D01*
X63307Y-57165D02*
X63445Y-57026D01*
X63445Y-57026D02*
X63818Y-57026D01*
X64152Y-62499D02*
X63346Y-62499D01*
X64173Y-62519D02*
X64152Y-62499D01*
X62047Y-62322D02*
X63170Y-62322D01*
X63170Y-62322D02*
X63346Y-62499D01*
X58976Y-63818D02*
X58976Y-64685D01*
X59351Y-65060D02*
X59351Y-65551D01*
X58976Y-64685D02*
X59351Y-65060D01*
X46456Y-60335D02*
X46456Y-60905D01*
X46456Y-60905D02*
X46417Y-60944D01*
X45553Y-60380D02*
X46411Y-60380D01*
X46411Y-60380D02*
X46456Y-60335D01*
X42049Y-53860D02*
X41469Y-53860D01*
X42559Y-54370D02*
X42049Y-53860D01*
X43503Y-54370D02*
X42559Y-54370D01*
X43543Y-54330D02*
X43503Y-54370D01*
X48149Y-52362D02*
X48149Y-55629D01*
X48149Y-55629D02*
X48149Y-59055D01*
X43584Y-65026D02*
X44160Y-65026D01*
X44160Y-65026D02*
X44173Y-65039D01*
X47382Y-50905D02*
X48070Y-50905D01*
X46496Y-52716D02*
X46850Y-52362D01*
X46850Y-52362D02*
X48149Y-52362D01*
X46496Y-52716D02*
X46437Y-52716D01*
X48149Y-50984D02*
X48149Y-52362D01*
X48070Y-50905D02*
X48149Y-50984D01*
X56477Y-55375D02*
X56456Y-55354D01*
X56477Y-55375D02*
X57204Y-55375D01*
X54212Y-56220D02*
X55275Y-56220D01*
X53367Y-58837D02*
X53385Y-58818D01*
X53367Y-58837D02*
X53367Y-59488D01*
X55590Y-59803D02*
X53682Y-59803D01*
X53682Y-59803D02*
X53367Y-59488D01*
X57401Y-57362D02*
X57401Y-55571D01*
X57401Y-55571D02*
X57204Y-55375D01*
X42084Y-64175D02*
X42084Y-65026D01*
X42086Y-64173D02*
X42084Y-64175D01*
X42584Y-62926D02*
X42584Y-62336D01*
X42519Y-58385D02*
X42204Y-58070D01*
X42519Y-59291D02*
X42519Y-58385D01*
X42874Y-59645D02*
X42519Y-59291D01*
X42874Y-60748D02*
X42874Y-59645D01*
X42677Y-60944D02*
X42874Y-60748D01*
X42440Y-60944D02*
X42677Y-60944D01*
X41889Y-61496D02*
X42440Y-60944D01*
X42716Y-62204D02*
X43070Y-62204D01*
X42584Y-62336D02*
X42716Y-62204D01*
X41062Y-65236D02*
X41062Y-64666D01*
X41102Y-65275D02*
X41062Y-65236D01*
X43084Y-65655D02*
X43084Y-65026D01*
X43084Y-65655D02*
X43070Y-65669D01*
X48346Y-64212D02*
X49606Y-64212D01*
X53700Y-60118D02*
X55590Y-60118D01*
X49606Y-64212D02*
X53700Y-60118D01*
X48334Y-64200D02*
X47259Y-64200D01*
X48346Y-64212D02*
X48334Y-64200D01*
X43582Y-61929D02*
X43622Y-61929D01*
X43622Y-61929D02*
X43700Y-61850D01*
X43584Y-61929D02*
X43582Y-61929D01*
X43582Y-61929D02*
X43543Y-61929D01*
X43543Y-61929D02*
X43464Y-61850D01*
X43584Y-62926D02*
X43584Y-61929D01*
X43584Y-61929D02*
X43584Y-61850D01*
X43584Y-61850D02*
X43582Y-61850D01*
X41062Y-62420D02*
X41062Y-61929D01*
X41062Y-61929D02*
X41141Y-61850D01*
X41141Y-61850D02*
X43464Y-61850D01*
X43464Y-61850D02*
X43425Y-61850D01*
X43425Y-61850D02*
X43582Y-61850D01*
X43582Y-61850D02*
X43700Y-61850D01*
X43700Y-61850D02*
X44606Y-61850D01*
X47259Y-63200D02*
X49948Y-63200D01*
X54606Y-59488D02*
X53543Y-58425D01*
X53543Y-58425D02*
X53149Y-58425D01*
X54606Y-59488D02*
X55590Y-59488D01*
X52244Y-58425D02*
X53149Y-58425D01*
X51811Y-58858D02*
X52244Y-58425D01*
X51811Y-61338D02*
X51811Y-58858D01*
X49948Y-63200D02*
X51811Y-61338D01*
X40157Y-49312D02*
X40157Y-50342D01*
X40157Y-50342D02*
X40169Y-50354D01*
X42184Y-50354D02*
X41169Y-50354D01*
X41181Y-49312D02*
X41181Y-50342D01*
X41181Y-50342D02*
X41169Y-50354D01*
X58661Y-57362D02*
X58661Y-52637D01*
X58661Y-52637D02*
X57125Y-51102D01*
X57125Y-51102D02*
X57125Y-49027D01*
X57125Y-49027D02*
X57625Y-48527D01*
X58976Y-57362D02*
X58976Y-51877D01*
X58976Y-51877D02*
X57625Y-50527D01*
X62047Y-62952D02*
X62047Y-63346D01*
X68425Y-65275D02*
X67992Y-64842D01*
X67992Y-64842D02*
X63543Y-64842D01*
X63543Y-64842D02*
X63110Y-64409D01*
X68425Y-65275D02*
X68425Y-65342D01*
X62047Y-63346D02*
X63110Y-64409D01*
X61181Y-63818D02*
X62007Y-63818D01*
X63531Y-65342D02*
X62007Y-63818D01*
X63531Y-65342D02*
X67638Y-65342D01*
X56647Y-56023D02*
X56929Y-56023D01*
X56099Y-55475D02*
X56647Y-56023D01*
X56099Y-54845D02*
X56099Y-55475D01*
X56102Y-54842D02*
X56099Y-54845D01*
X47401Y-53001D02*
X47401Y-53818D01*
X40590Y-55236D02*
X40590Y-55236D01*
X40590Y-55236D02*
X40590Y-55236D01*
X40590Y-55236D02*
X39527Y-55236D01*
X40590Y-55727D02*
X40590Y-55236D01*
X44053Y-58280D02*
X44053Y-57797D01*
X44053Y-57797D02*
X44291Y-57559D01*
X42084Y-62926D02*
X42084Y-62438D01*
X42084Y-62438D02*
X41929Y-62283D01*
X64094Y-51122D02*
X64094Y-50472D01*
X64094Y-50472D02*
X66141Y-48425D01*
X52617Y-60178D02*
X52598Y-60196D01*
X52617Y-59488D02*
X52617Y-60178D01*
X55590Y-62322D02*
X54645Y-62322D01*
X53858Y-63110D02*
X53858Y-63740D01*
X54645Y-62322D02*
X53858Y-63110D01*
X58661Y-63818D02*
X58661Y-65491D01*
X58661Y-65491D02*
X58601Y-65551D01*
X60236Y-56338D02*
X60236Y-56062D01*
X60236Y-57362D02*
X60236Y-56338D01*
X60729Y-55569D02*
X60729Y-55196D01*
X60236Y-56062D02*
X60729Y-55569D01*
X57716Y-57362D02*
X57716Y-55000D01*
X57341Y-54625D02*
X57204Y-54625D01*
X57716Y-55000D02*
X57341Y-54625D01*
X62047Y-62637D02*
X62716Y-62637D01*
X62716Y-62637D02*
X62795Y-62716D01*
X62047Y-59488D02*
X62834Y-59488D01*
X63818Y-58503D02*
X63818Y-57776D01*
X62834Y-59488D02*
X63818Y-58503D01*
X62047Y-59488D02*
X60669Y-59488D01*
X60669Y-59488D02*
X60551Y-59606D01*
X60236Y-57362D02*
X60236Y-58425D01*
X57716Y-57362D02*
X57716Y-58425D01*
X62047Y-62637D02*
X60590Y-62637D01*
X58661Y-63818D02*
X58661Y-62795D01*
X55590Y-62322D02*
X56929Y-62322D01*
X62047Y-58858D02*
X62774Y-58858D01*
X65192Y-48547D02*
X65192Y-47165D01*
X63070Y-50669D02*
X65192Y-48547D01*
X63070Y-58561D02*
X63070Y-50669D01*
X62774Y-58858D02*
X63070Y-58561D01*
X62047Y-59803D02*
X62874Y-59803D01*
X64881Y-53153D02*
X69173Y-48862D01*
X64881Y-57795D02*
X64881Y-53153D01*
X62874Y-59803D02*
X64881Y-57795D01*
X41477Y-57204D02*
X42155Y-57204D01*
X42155Y-57204D02*
X42510Y-56850D01*
X41477Y-57204D02*
X41477Y-56123D01*
X41477Y-56123D02*
X41456Y-56102D01*
X62047Y-60118D02*
X62931Y-60118D01*
X65118Y-53917D02*
X69173Y-49862D01*
X65118Y-57931D02*
X65118Y-53917D01*
X62931Y-60118D02*
X65118Y-57931D01*
X62047Y-60748D02*
X63070Y-60748D01*
X65629Y-55405D02*
X69173Y-51862D01*
X65629Y-58188D02*
X65629Y-55405D01*
X63070Y-60748D02*
X65629Y-58188D01*
X62047Y-61062D02*
X63110Y-61062D01*
X65866Y-56169D02*
X69173Y-52862D01*
X65866Y-58307D02*
X65866Y-56169D01*
X63110Y-61062D02*
X65866Y-58307D01*
X62047Y-61377D02*
X63188Y-61377D01*
X68539Y-53862D02*
X69173Y-53862D01*
X66141Y-56259D02*
X68539Y-53862D01*
X66141Y-58425D02*
X66141Y-56259D01*
X63188Y-61377D02*
X66141Y-58425D01*
X62047Y-61692D02*
X63228Y-61692D01*
X67893Y-54862D02*
X69173Y-54862D01*
X66377Y-56377D02*
X67893Y-54862D01*
X66377Y-58543D02*
X66377Y-56377D01*
X63228Y-61692D02*
X66377Y-58543D01*
X62047Y-62007D02*
X63307Y-62007D01*
X67287Y-55862D02*
X69173Y-55862D01*
X66614Y-56535D02*
X67287Y-55862D01*
X66614Y-58700D02*
X66614Y-56535D01*
X63307Y-62007D02*
X66614Y-58700D01*
X56456Y-57362D02*
X56456Y-56850D01*
X53755Y-54149D02*
X53755Y-47165D01*
X56456Y-56850D02*
X53755Y-54149D01*
X57086Y-57362D02*
X57086Y-56771D01*
X55755Y-55440D02*
X55755Y-47165D01*
X57086Y-56771D02*
X55755Y-55440D01*
X59606Y-55748D02*
X59606Y-47578D01*
X59192Y-47165D02*
X59527Y-47500D01*
X59606Y-55748D02*
X59606Y-57362D01*
X59606Y-47578D02*
X59527Y-47500D01*
X56771Y-57362D02*
X56771Y-56811D01*
X54755Y-54795D02*
X54755Y-47165D01*
X56771Y-56811D02*
X54755Y-54795D01*
X55590Y-58228D02*
X54960Y-58228D01*
X53228Y-47637D02*
X52755Y-47165D01*
X53228Y-56496D02*
X53228Y-47637D01*
X54960Y-58228D02*
X53228Y-56496D01*
X55590Y-58543D02*
X54842Y-58543D01*
X52795Y-48204D02*
X51755Y-47165D01*
X52795Y-56496D02*
X52795Y-48204D01*
X54842Y-58543D02*
X52795Y-56496D01*
X55590Y-58858D02*
X54803Y-58858D01*
X52480Y-48889D02*
X50755Y-47165D01*
X52480Y-56535D02*
X52480Y-48889D01*
X54803Y-58858D02*
X52480Y-56535D01*
X55590Y-59173D02*
X54724Y-59173D01*
X52204Y-49614D02*
X49755Y-47165D01*
X52204Y-56653D02*
X52204Y-49614D01*
X54724Y-59173D02*
X52204Y-56653D01*
X55590Y-61377D02*
X54330Y-61377D01*
X48374Y-65944D02*
X47232Y-67086D01*
X49763Y-65944D02*
X48374Y-65944D01*
X54330Y-61377D02*
X49763Y-65944D01*
X41062Y-61062D02*
X41062Y-60108D01*
X41062Y-60108D02*
X40914Y-59960D01*
X41062Y-61062D02*
X40453Y-61062D01*
X39370Y-57401D02*
X39370Y-57637D01*
X42144Y-58779D02*
X39763Y-58779D01*
X39763Y-58779D02*
X39370Y-58385D01*
X39370Y-58385D02*
X39370Y-57637D01*
X39370Y-57637D02*
X39370Y-57559D01*
X60551Y-57362D02*
X60551Y-56220D01*
X61220Y-48192D02*
X60192Y-47165D01*
X61220Y-55551D02*
X61220Y-48192D01*
X60551Y-56220D02*
X61220Y-55551D01*
X39921Y-58070D02*
X41102Y-58070D01*
X39842Y-58149D02*
X39921Y-58070D01*
X43710Y-56850D02*
X44585Y-56850D01*
X44585Y-56850D02*
X44625Y-56811D01*
X47204Y-56790D02*
X47204Y-56190D01*
X47283Y-56269D02*
X47007Y-55993D01*
X47204Y-56190D02*
X47283Y-56269D01*
X47204Y-58247D02*
X47204Y-57540D01*
X45053Y-57533D02*
X45039Y-57519D01*
X45053Y-58280D02*
X45053Y-57533D01*
X46241Y-57540D02*
X47204Y-57540D01*
X46220Y-57519D02*
X46241Y-57540D01*
X44448Y-59409D02*
X44448Y-58779D01*
X44409Y-59448D02*
X44448Y-59409D01*
X42894Y-58779D02*
X44448Y-58779D01*
X44553Y-58675D02*
X44553Y-58280D01*
X44448Y-58779D02*
X44553Y-58675D01*
X40181Y-47559D02*
X40181Y-48538D01*
X40181Y-48538D02*
X40157Y-48562D01*
X41181Y-47559D02*
X41181Y-48562D01*
X61192Y-56011D02*
X61653Y-55551D01*
X60866Y-56338D02*
X61192Y-56011D01*
X60866Y-57362D02*
X60866Y-56338D01*
X61653Y-47625D02*
X61192Y-47165D01*
X61653Y-55551D02*
X61653Y-47625D01*
X55590Y-60748D02*
X54055Y-60748D01*
X46964Y-65354D02*
X45232Y-67086D01*
X49448Y-65354D02*
X46964Y-65354D01*
X54055Y-60748D02*
X49448Y-65354D01*
X55590Y-60433D02*
X53976Y-60433D01*
X46240Y-65078D02*
X44232Y-67086D01*
X49330Y-65078D02*
X46240Y-65078D01*
X53976Y-60433D02*
X49330Y-65078D01*
X62047Y-60433D02*
X62992Y-60433D01*
X65354Y-54681D02*
X69173Y-50862D01*
X65354Y-58070D02*
X65354Y-54681D01*
X62992Y-60433D02*
X65354Y-58070D01*
X55590Y-61692D02*
X54448Y-61692D01*
X49059Y-66259D02*
X48232Y-67086D01*
X49881Y-66259D02*
X49059Y-66259D01*
X54448Y-61692D02*
X49881Y-66259D01*
X55590Y-61062D02*
X54133Y-61062D01*
X47688Y-65629D02*
X46232Y-67086D01*
X49566Y-65629D02*
X47688Y-65629D01*
X54133Y-61062D02*
X49566Y-65629D01*
X46259Y-63200D02*
X46208Y-63200D01*
X43084Y-63517D02*
X43084Y-62926D01*
X43267Y-63700D02*
X43084Y-63517D01*
X45708Y-63700D02*
X43267Y-63700D01*
X46208Y-63200D02*
X45708Y-63700D01*
X62192Y-47165D02*
X62192Y-55681D01*
X61181Y-56692D02*
X61181Y-57362D01*
X62192Y-55681D02*
X61181Y-56692D01*
X64094Y-52774D02*
X64094Y-51948D01*
X42244Y-53385D02*
X42218Y-53360D01*
X42218Y-53360D02*
X41469Y-53360D01*
X41469Y-52860D02*
X41469Y-53360D01*
X50712Y-67086D02*
X50712Y-67003D01*
X55590Y-64645D02*
X55590Y-62952D01*
X54645Y-65590D02*
X55590Y-64645D01*
X52125Y-65590D02*
X54645Y-65590D01*
X50712Y-67003D02*
X52125Y-65590D01*
X49232Y-67086D02*
X49566Y-67086D01*
X54645Y-62007D02*
X55590Y-62007D01*
X49566Y-67086D02*
X54645Y-62007D01*
X62047Y-58228D02*
X62440Y-58228D01*
X63192Y-48775D02*
X63192Y-47165D01*
X62598Y-49370D02*
X63192Y-48775D01*
X62598Y-58070D02*
X62598Y-49370D01*
X62440Y-58228D02*
X62598Y-58070D01*
X43721Y-54921D02*
X44291Y-54921D01*
X44291Y-54921D02*
X44566Y-54645D01*
X44566Y-54036D02*
X44566Y-54645D01*
X43569Y-53860D02*
X44390Y-53860D01*
X44390Y-53860D02*
X44566Y-54036D01*
X44566Y-53286D02*
X45097Y-53286D01*
X45097Y-53286D02*
X45157Y-53346D01*
X43569Y-53360D02*
X44493Y-53360D01*
X44493Y-53360D02*
X44566Y-53286D01*
X42971Y-55787D02*
X42971Y-54921D01*
X42971Y-54921D02*
X42146Y-54921D01*
X40511Y-54034D02*
X40511Y-54330D01*
X41102Y-54921D02*
X41396Y-54921D01*
X40511Y-54330D02*
X41102Y-54921D01*
X40511Y-53209D02*
X40511Y-54034D01*
X40511Y-52459D02*
X40511Y-51437D01*
X40511Y-51437D02*
X40491Y-51417D01*
X40511Y-52459D02*
X41370Y-52459D01*
X41370Y-52459D02*
X41469Y-52360D01*
X42584Y-65026D02*
X42584Y-64698D01*
X46259Y-64566D02*
X46259Y-64200D01*
X46023Y-64803D02*
X46259Y-64566D01*
X44763Y-64803D02*
X46023Y-64803D01*
X44409Y-64448D02*
X44763Y-64803D01*
X42834Y-64448D02*
X44409Y-64448D01*
X42584Y-64698D02*
X42834Y-64448D01*
X62047Y-58543D02*
X62734Y-58543D01*
X64192Y-48838D02*
X64192Y-47165D01*
X62852Y-50178D02*
X64192Y-48838D01*
X62852Y-58425D02*
X62852Y-50178D01*
X62734Y-58543D02*
X62852Y-58425D01*
X39881Y-63818D02*
X40965Y-63818D01*
X40965Y-63818D02*
X41062Y-63916D01*
X39881Y-62818D02*
X40259Y-62818D01*
X40611Y-63170D02*
X41062Y-63170D01*
X40259Y-62818D02*
X40611Y-63170D01*
X59606Y-63818D02*
X59606Y-64566D01*
X61610Y-66570D02*
X61610Y-67086D01*
X59606Y-64566D02*
X61610Y-66570D01*
X57401Y-63818D02*
X57401Y-64397D01*
X57401Y-64397D02*
X54712Y-67086D01*
X57716Y-63818D02*
X57716Y-64724D01*
X55712Y-66728D02*
X55712Y-67086D01*
X57716Y-64724D02*
X55712Y-66728D01*
X58031Y-63818D02*
X58031Y-64842D01*
X56712Y-66161D02*
X56712Y-67086D01*
X58031Y-64842D02*
X56712Y-66161D01*
X58346Y-63818D02*
X58346Y-64881D01*
X57712Y-65515D02*
X57712Y-67086D01*
X58346Y-64881D02*
X57712Y-65515D01*
X60866Y-63818D02*
X60866Y-64337D01*
X65610Y-66161D02*
X65610Y-67086D01*
X65314Y-65866D02*
X65610Y-66161D01*
X62395Y-65866D02*
X65314Y-65866D01*
X60866Y-64337D02*
X62395Y-65866D01*
X57086Y-63818D02*
X57086Y-64370D01*
X53712Y-66602D02*
X53712Y-67086D01*
X53976Y-66338D02*
X53712Y-66602D01*
X55118Y-66338D02*
X53976Y-66338D01*
X57086Y-64370D02*
X55118Y-66338D01*
X59291Y-63818D02*
X59291Y-64606D01*
X60610Y-65925D02*
X60610Y-67086D01*
X59291Y-64606D02*
X60610Y-65925D01*
X59291Y-57362D02*
X59291Y-48263D01*
X59291Y-48263D02*
X58192Y-47165D01*
X60551Y-63818D02*
X60551Y-64330D01*
X64610Y-66381D02*
X64610Y-67086D01*
X64370Y-66141D02*
X64610Y-66381D01*
X62362Y-66141D02*
X64370Y-66141D01*
X60551Y-64330D02*
X62362Y-66141D01*
X60236Y-63818D02*
X60236Y-64404D01*
X63610Y-66799D02*
X63610Y-67086D01*
X63228Y-66417D02*
X63610Y-66799D01*
X62249Y-66417D02*
X63228Y-66417D01*
X60236Y-64404D02*
X62249Y-66417D01*
X59921Y-63818D02*
X59921Y-64397D01*
X59921Y-64397D02*
X62610Y-67086D01*
X58031Y-57362D02*
X58031Y-54724D01*
X58031Y-54724D02*
X57913Y-54606D01*
X58346Y-57362D02*
X58346Y-54291D01*
X58346Y-54291D02*
X58188Y-54133D01*
X43209Y-59939D02*
X43209Y-60393D01*
X43307Y-59842D02*
X43209Y-59939D01*
X43207Y-61259D02*
X43207Y-60395D01*
X43207Y-60395D02*
X43209Y-60393D01*
X45553Y-58280D02*
X46102Y-58280D01*
X46102Y-58280D02*
X46075Y-58280D01*
X46792Y-58997D02*
X47204Y-58997D01*
X46075Y-58280D02*
X46792Y-58997D01*
X45553Y-58280D02*
X45553Y-56989D01*
X45553Y-56989D02*
X45375Y-56811D01*
X45053Y-59659D02*
X45053Y-60380D01*
X45039Y-59645D02*
X45053Y-59659D01*
X44553Y-60380D02*
X45053Y-60380D01*
X43957Y-61259D02*
X44488Y-61259D01*
X44553Y-61194D02*
X44553Y-60380D01*
X44488Y-61259D02*
X44553Y-61194D01*
X44053Y-59919D02*
X44053Y-60380D01*
X43937Y-59803D02*
X44053Y-59919D01*
X42459Y-60393D02*
X41614Y-60393D01*
X56771Y-63818D02*
X56771Y-64370D01*
X52712Y-66578D02*
X52712Y-67086D01*
X53188Y-66102D02*
X52712Y-66578D01*
X55039Y-66102D02*
X53188Y-66102D01*
X56771Y-64370D02*
X55039Y-66102D01*
X44606Y-50060D02*
X45273Y-50060D01*
X45273Y-50060D02*
X45294Y-50039D01*
X43569Y-52860D02*
X44541Y-52860D01*
X45078Y-52322D02*
X45078Y-51811D01*
X44541Y-52860D02*
X45078Y-52322D01*
X44312Y-51299D02*
X44566Y-51299D01*
X45078Y-51811D02*
X45412Y-51811D01*
X44566Y-51299D02*
X45078Y-51811D01*
X45687Y-53582D02*
X45687Y-52716D01*
X45687Y-52716D02*
X45687Y-52461D01*
X46162Y-51987D02*
X46162Y-51811D01*
X45687Y-52461D02*
X46162Y-51987D01*
X46162Y-51811D02*
X47392Y-51811D01*
X47392Y-51811D02*
X47401Y-51801D01*
X42934Y-50354D02*
X42934Y-51123D01*
X43110Y-51299D02*
X43562Y-51299D01*
X42934Y-51123D02*
X43110Y-51299D01*
X42934Y-50354D02*
X42934Y-49900D01*
X43149Y-49685D02*
X43740Y-49685D01*
X42934Y-49900D02*
X43149Y-49685D01*
X45669Y-50905D02*
X46632Y-50905D01*
X46632Y-50905D02*
X46632Y-50905D01*
X46044Y-50039D02*
X46574Y-50039D01*
X46574Y-50039D02*
X46574Y-50039D01*
X56456Y-63818D02*
X56456Y-64330D01*
X51712Y-66397D02*
X51712Y-67086D01*
X52283Y-65826D02*
X51712Y-66397D01*
X54960Y-65826D02*
X52283Y-65826D01*
X56456Y-64330D02*
X54960Y-65826D01*
G54D10*
G36*
X42564Y-59868D02*
X42235Y-59868D01*
X42143Y-59906D01*
X42072Y-59976D01*
X42034Y-60068D01*
X42034Y-60084D01*
X41881Y-60084D01*
X41845Y-60048D01*
X41695Y-59986D01*
X41533Y-59986D01*
X41415Y-60035D01*
X41415Y-59411D01*
X41377Y-59319D01*
X41306Y-59248D01*
X41214Y-59210D01*
X41115Y-59210D01*
X40615Y-59210D01*
X40523Y-59248D01*
X40453Y-59318D01*
X40415Y-59410D01*
X40414Y-59510D01*
X40414Y-60510D01*
X40426Y-60537D01*
X40229Y-60537D01*
X40137Y-60575D01*
X40066Y-60646D01*
X40028Y-60738D01*
X40028Y-60837D01*
X40028Y-61387D01*
X40066Y-61479D01*
X40136Y-61549D01*
X40228Y-61587D01*
X40328Y-61588D01*
X40678Y-61588D01*
X40770Y-61550D01*
X40840Y-61479D01*
X40864Y-61421D01*
X40981Y-61470D01*
X41143Y-61470D01*
X41293Y-61408D01*
X41408Y-61294D01*
X41470Y-61144D01*
X41470Y-60982D01*
X41408Y-60832D01*
X41372Y-60795D01*
X41372Y-60727D01*
X41383Y-60738D01*
X41532Y-60801D01*
X41694Y-60801D01*
X41844Y-60739D01*
X41881Y-60702D01*
X42034Y-60702D01*
X42034Y-60718D01*
X42072Y-60810D01*
X42105Y-60843D01*
X41860Y-61088D01*
X41809Y-61088D01*
X41659Y-61150D01*
X41544Y-61264D01*
X41482Y-61414D01*
X41482Y-61541D01*
X41141Y-61541D01*
X41141Y-61541D01*
X41118Y-61546D01*
X41023Y-61564D01*
X40923Y-61631D01*
X40923Y-61631D01*
X40844Y-61710D01*
X40777Y-61810D01*
X40753Y-61929D01*
X40753Y-61995D01*
X40738Y-61995D01*
X40646Y-62033D01*
X40576Y-62103D01*
X40538Y-62195D01*
X40537Y-62294D01*
X40537Y-62644D01*
X40548Y-62670D01*
X40478Y-62600D01*
X40378Y-62533D01*
X40328Y-62523D01*
X40327Y-62521D01*
X40180Y-62373D01*
X39986Y-62293D01*
X39777Y-62293D01*
X39584Y-62373D01*
X39436Y-62520D01*
X39356Y-62713D01*
X39356Y-62922D01*
X39436Y-63116D01*
X39583Y-63264D01*
X39715Y-63318D01*
X39584Y-63373D01*
X39436Y-63520D01*
X39356Y-63713D01*
X39356Y-63922D01*
X39436Y-64116D01*
X39583Y-64264D01*
X39776Y-64344D01*
X39985Y-64344D01*
X40179Y-64264D01*
X40316Y-64127D01*
X40537Y-64127D01*
X40537Y-64140D01*
X40575Y-64232D01*
X40634Y-64291D01*
X40576Y-64349D01*
X40538Y-64441D01*
X40537Y-64540D01*
X40537Y-64890D01*
X40575Y-64982D01*
X40646Y-65053D01*
X40737Y-65091D01*
X40694Y-65194D01*
X40694Y-65356D01*
X40756Y-65506D01*
X40827Y-65576D01*
X40529Y-65874D01*
X40340Y-66328D01*
X40340Y-66819D01*
X40527Y-67273D01*
X40874Y-67620D01*
X41309Y-67801D01*
X39206Y-67801D01*
X39206Y-58659D01*
X39545Y-58998D01*
X39545Y-58998D01*
X39645Y-59065D01*
X39645Y-59065D01*
X39763Y-59088D01*
X41719Y-59088D01*
X41719Y-59104D01*
X41757Y-59195D01*
X41827Y-59266D01*
X41919Y-59304D01*
X42019Y-59304D01*
X42213Y-59304D01*
X42234Y-59409D01*
X42301Y-59509D01*
X42564Y-59773D01*
X42564Y-59868D01*
X42564Y-59868D01*
G37*
G54D36*
X42564Y-59868D02*
X42235Y-59868D01*
X42143Y-59906D01*
X42072Y-59976D01*
X42034Y-60068D01*
X42034Y-60084D01*
X41881Y-60084D01*
X41845Y-60048D01*
X41695Y-59986D01*
X41533Y-59986D01*
X41415Y-60035D01*
X41415Y-59411D01*
X41377Y-59319D01*
X41306Y-59248D01*
X41214Y-59210D01*
X41115Y-59210D01*
X40615Y-59210D01*
X40523Y-59248D01*
X40453Y-59318D01*
X40415Y-59410D01*
X40414Y-59510D01*
X40414Y-60510D01*
X40426Y-60537D01*
X40229Y-60537D01*
X40137Y-60575D01*
X40066Y-60646D01*
X40028Y-60738D01*
X40028Y-60837D01*
X40028Y-61387D01*
X40066Y-61479D01*
X40136Y-61549D01*
X40228Y-61587D01*
X40328Y-61588D01*
X40678Y-61588D01*
X40770Y-61550D01*
X40840Y-61479D01*
X40864Y-61421D01*
X40981Y-61470D01*
X41143Y-61470D01*
X41293Y-61408D01*
X41408Y-61294D01*
X41470Y-61144D01*
X41470Y-60982D01*
X41408Y-60832D01*
X41372Y-60795D01*
X41372Y-60727D01*
X41383Y-60738D01*
X41532Y-60801D01*
X41694Y-60801D01*
X41844Y-60739D01*
X41881Y-60702D01*
X42034Y-60702D01*
X42034Y-60718D01*
X42072Y-60810D01*
X42105Y-60843D01*
X41860Y-61088D01*
X41809Y-61088D01*
X41659Y-61150D01*
X41544Y-61264D01*
X41482Y-61414D01*
X41482Y-61541D01*
X41141Y-61541D01*
X41141Y-61541D01*
X41118Y-61546D01*
X41023Y-61564D01*
X40923Y-61631D01*
X40923Y-61631D01*
X40844Y-61710D01*
X40777Y-61810D01*
X40753Y-61929D01*
X40753Y-61995D01*
X40738Y-61995D01*
X40646Y-62033D01*
X40576Y-62103D01*
X40538Y-62195D01*
X40537Y-62294D01*
X40537Y-62644D01*
X40548Y-62670D01*
X40478Y-62600D01*
X40378Y-62533D01*
X40328Y-62523D01*
X40327Y-62521D01*
X40180Y-62373D01*
X39986Y-62293D01*
X39777Y-62293D01*
X39584Y-62373D01*
X39436Y-62520D01*
X39356Y-62713D01*
X39356Y-62922D01*
X39436Y-63116D01*
X39583Y-63264D01*
X39715Y-63318D01*
X39584Y-63373D01*
X39436Y-63520D01*
X39356Y-63713D01*
X39356Y-63922D01*
X39436Y-64116D01*
X39583Y-64264D01*
X39776Y-64344D01*
X39985Y-64344D01*
X40179Y-64264D01*
X40316Y-64127D01*
X40537Y-64127D01*
X40537Y-64140D01*
X40575Y-64232D01*
X40634Y-64291D01*
X40576Y-64349D01*
X40538Y-64441D01*
X40537Y-64540D01*
X40537Y-64890D01*
X40575Y-64982D01*
X40646Y-65053D01*
X40737Y-65091D01*
X40694Y-65194D01*
X40694Y-65356D01*
X40756Y-65506D01*
X40827Y-65576D01*
X40529Y-65874D01*
X40340Y-66328D01*
X40340Y-66819D01*
X40527Y-67273D01*
X40874Y-67620D01*
X41309Y-67801D01*
X39206Y-67801D01*
X39206Y-58659D01*
X39545Y-58998D01*
X39545Y-58998D01*
X39645Y-59065D01*
X39645Y-59065D01*
X39763Y-59088D01*
X41719Y-59088D01*
X41719Y-59104D01*
X41757Y-59195D01*
X41827Y-59266D01*
X41919Y-59304D01*
X42019Y-59304D01*
X42213Y-59304D01*
X42234Y-59409D01*
X42301Y-59509D01*
X42564Y-59773D01*
X42564Y-59868D01*
G54D10*
G36*
X44698Y-57755D02*
X44621Y-57755D01*
X44385Y-57755D01*
X44293Y-57793D01*
X44223Y-57863D01*
X44185Y-57955D01*
X44185Y-58054D01*
X44185Y-58470D01*
X43319Y-58470D01*
X43319Y-58455D01*
X43281Y-58363D01*
X43211Y-58292D01*
X43119Y-58254D01*
X43020Y-58254D01*
X42796Y-58254D01*
X42738Y-58167D01*
X42738Y-58167D01*
X42612Y-58041D01*
X42612Y-57990D01*
X42550Y-57840D01*
X42435Y-57725D01*
X42286Y-57663D01*
X42124Y-57663D01*
X41974Y-57725D01*
X41859Y-57839D01*
X41797Y-57989D01*
X41797Y-58151D01*
X41851Y-58282D01*
X41828Y-58292D01*
X41757Y-58362D01*
X41719Y-58454D01*
X41719Y-58470D01*
X41410Y-58470D01*
X41471Y-58409D01*
X41509Y-58317D01*
X41509Y-58218D01*
X41509Y-57824D01*
X41471Y-57732D01*
X41401Y-57661D01*
X41377Y-57651D01*
X41684Y-57651D01*
X41776Y-57613D01*
X41846Y-57543D01*
X41859Y-57513D01*
X42070Y-57513D01*
X42118Y-57562D01*
X42210Y-57600D01*
X42309Y-57600D01*
X42809Y-57600D01*
X42901Y-57562D01*
X42972Y-57492D01*
X43010Y-57400D01*
X43010Y-57300D01*
X43010Y-56312D01*
X43195Y-56312D01*
X43210Y-56306D01*
X43210Y-56399D01*
X43210Y-57399D01*
X43248Y-57491D01*
X43318Y-57562D01*
X43410Y-57600D01*
X43509Y-57600D01*
X44009Y-57600D01*
X44101Y-57562D01*
X44172Y-57492D01*
X44210Y-57400D01*
X44210Y-57300D01*
X44210Y-57160D01*
X44237Y-57227D01*
X44308Y-57297D01*
X44400Y-57335D01*
X44499Y-57336D01*
X44674Y-57336D01*
X44631Y-57438D01*
X44631Y-57600D01*
X44693Y-57750D01*
X44698Y-57755D01*
X44698Y-57755D01*
G37*
G54D36*
X44698Y-57755D02*
X44621Y-57755D01*
X44385Y-57755D01*
X44293Y-57793D01*
X44223Y-57863D01*
X44185Y-57955D01*
X44185Y-58054D01*
X44185Y-58470D01*
X43319Y-58470D01*
X43319Y-58455D01*
X43281Y-58363D01*
X43211Y-58292D01*
X43119Y-58254D01*
X43020Y-58254D01*
X42796Y-58254D01*
X42738Y-58167D01*
X42738Y-58167D01*
X42612Y-58041D01*
X42612Y-57990D01*
X42550Y-57840D01*
X42435Y-57725D01*
X42286Y-57663D01*
X42124Y-57663D01*
X41974Y-57725D01*
X41859Y-57839D01*
X41797Y-57989D01*
X41797Y-58151D01*
X41851Y-58282D01*
X41828Y-58292D01*
X41757Y-58362D01*
X41719Y-58454D01*
X41719Y-58470D01*
X41410Y-58470D01*
X41471Y-58409D01*
X41509Y-58317D01*
X41509Y-58218D01*
X41509Y-57824D01*
X41471Y-57732D01*
X41401Y-57661D01*
X41377Y-57651D01*
X41684Y-57651D01*
X41776Y-57613D01*
X41846Y-57543D01*
X41859Y-57513D01*
X42070Y-57513D01*
X42118Y-57562D01*
X42210Y-57600D01*
X42309Y-57600D01*
X42809Y-57600D01*
X42901Y-57562D01*
X42972Y-57492D01*
X43010Y-57400D01*
X43010Y-57300D01*
X43010Y-56312D01*
X43195Y-56312D01*
X43210Y-56306D01*
X43210Y-56399D01*
X43210Y-57399D01*
X43248Y-57491D01*
X43318Y-57562D01*
X43410Y-57600D01*
X43509Y-57600D01*
X44009Y-57600D01*
X44101Y-57562D01*
X44172Y-57492D01*
X44210Y-57400D01*
X44210Y-57300D01*
X44210Y-57160D01*
X44237Y-57227D01*
X44308Y-57297D01*
X44400Y-57335D01*
X44499Y-57336D01*
X44674Y-57336D01*
X44631Y-57438D01*
X44631Y-57600D01*
X44693Y-57750D01*
X44698Y-57755D01*
G54D10*
G36*
X44727Y-64009D02*
X44694Y-64087D01*
X44694Y-64297D01*
X44627Y-64230D01*
X44527Y-64163D01*
X44409Y-64139D01*
X42834Y-64139D01*
X42716Y-64163D01*
X42616Y-64230D01*
X42616Y-64230D01*
X42393Y-64452D01*
X42393Y-64442D01*
X42431Y-64404D01*
X42494Y-64254D01*
X42494Y-64092D01*
X42432Y-63942D01*
X42317Y-63827D01*
X42168Y-63765D01*
X42005Y-63765D01*
X41856Y-63827D01*
X41741Y-63942D01*
X41679Y-64091D01*
X41679Y-64253D01*
X41740Y-64403D01*
X41775Y-64438D01*
X41775Y-64588D01*
X41754Y-64609D01*
X41716Y-64700D01*
X41716Y-64800D01*
X41716Y-65340D01*
X41509Y-65340D01*
X41509Y-65194D01*
X41455Y-65063D01*
X41479Y-65053D01*
X41549Y-64983D01*
X41587Y-64891D01*
X41588Y-64791D01*
X41588Y-64441D01*
X41550Y-64349D01*
X41491Y-64291D01*
X41549Y-64233D01*
X41587Y-64141D01*
X41588Y-64041D01*
X41588Y-63691D01*
X41550Y-63599D01*
X41493Y-63543D01*
X41549Y-63487D01*
X41587Y-63395D01*
X41588Y-63295D01*
X41588Y-62945D01*
X41550Y-62853D01*
X41491Y-62795D01*
X41549Y-62737D01*
X41587Y-62645D01*
X41588Y-62545D01*
X41588Y-62195D01*
X41573Y-62159D01*
X42338Y-62159D01*
X42299Y-62218D01*
X42275Y-62336D01*
X42275Y-62488D01*
X42254Y-62509D01*
X42216Y-62600D01*
X42216Y-62700D01*
X42216Y-63251D01*
X42254Y-63343D01*
X42324Y-63413D01*
X42416Y-63451D01*
X42516Y-63451D01*
X42752Y-63451D01*
X42775Y-63442D01*
X42775Y-63517D01*
X42799Y-63635D01*
X42866Y-63736D01*
X43049Y-63919D01*
X43149Y-63986D01*
X43149Y-63986D01*
X43267Y-64009D01*
X44727Y-64009D01*
X44727Y-64009D01*
G37*
G54D36*
X44727Y-64009D02*
X44694Y-64087D01*
X44694Y-64297D01*
X44627Y-64230D01*
X44527Y-64163D01*
X44409Y-64139D01*
X42834Y-64139D01*
X42716Y-64163D01*
X42616Y-64230D01*
X42616Y-64230D01*
X42393Y-64452D01*
X42393Y-64442D01*
X42431Y-64404D01*
X42494Y-64254D01*
X42494Y-64092D01*
X42432Y-63942D01*
X42317Y-63827D01*
X42168Y-63765D01*
X42005Y-63765D01*
X41856Y-63827D01*
X41741Y-63942D01*
X41679Y-64091D01*
X41679Y-64253D01*
X41740Y-64403D01*
X41775Y-64438D01*
X41775Y-64588D01*
X41754Y-64609D01*
X41716Y-64700D01*
X41716Y-64800D01*
X41716Y-65340D01*
X41509Y-65340D01*
X41509Y-65194D01*
X41455Y-65063D01*
X41479Y-65053D01*
X41549Y-64983D01*
X41587Y-64891D01*
X41588Y-64791D01*
X41588Y-64441D01*
X41550Y-64349D01*
X41491Y-64291D01*
X41549Y-64233D01*
X41587Y-64141D01*
X41588Y-64041D01*
X41588Y-63691D01*
X41550Y-63599D01*
X41493Y-63543D01*
X41549Y-63487D01*
X41587Y-63395D01*
X41588Y-63295D01*
X41588Y-62945D01*
X41550Y-62853D01*
X41491Y-62795D01*
X41549Y-62737D01*
X41587Y-62645D01*
X41588Y-62545D01*
X41588Y-62195D01*
X41573Y-62159D01*
X42338Y-62159D01*
X42299Y-62218D01*
X42275Y-62336D01*
X42275Y-62488D01*
X42254Y-62509D01*
X42216Y-62600D01*
X42216Y-62700D01*
X42216Y-63251D01*
X42254Y-63343D01*
X42324Y-63413D01*
X42416Y-63451D01*
X42516Y-63451D01*
X42752Y-63451D01*
X42775Y-63442D01*
X42775Y-63517D01*
X42799Y-63635D01*
X42866Y-63736D01*
X43049Y-63919D01*
X43149Y-63986D01*
X43149Y-63986D01*
X43267Y-64009D01*
X44727Y-64009D01*
G54D10*
G36*
X47840Y-55362D02*
X47804Y-55398D01*
X47742Y-55548D01*
X47742Y-55655D01*
X47719Y-55602D01*
X47649Y-55531D01*
X47557Y-55493D01*
X47458Y-55493D01*
X46458Y-55493D01*
X46366Y-55531D01*
X46296Y-55601D01*
X46257Y-55693D01*
X46257Y-55793D01*
X46257Y-56293D01*
X46295Y-56385D01*
X46366Y-56455D01*
X46457Y-56493D01*
X46557Y-56493D01*
X46709Y-56493D01*
X46679Y-56565D01*
X46679Y-56664D01*
X46679Y-57014D01*
X46717Y-57106D01*
X46776Y-57165D01*
X46717Y-57223D01*
X46714Y-57231D01*
X46508Y-57231D01*
X46451Y-57174D01*
X46301Y-57112D01*
X46139Y-57112D01*
X45989Y-57174D01*
X45875Y-57288D01*
X45862Y-57319D01*
X45862Y-56989D01*
X45838Y-56870D01*
X45838Y-56870D01*
X45800Y-56813D01*
X45800Y-56813D01*
X45800Y-56486D01*
X45762Y-56394D01*
X45691Y-56324D01*
X45599Y-56286D01*
X45500Y-56285D01*
X45150Y-56285D01*
X45058Y-56323D01*
X44999Y-56382D01*
X44941Y-56324D01*
X44849Y-56286D01*
X44750Y-56285D01*
X44400Y-56285D01*
X44308Y-56323D01*
X44238Y-56394D01*
X44210Y-56461D01*
X44210Y-56300D01*
X44172Y-56208D01*
X44102Y-56138D01*
X44010Y-56100D01*
X43910Y-56100D01*
X43410Y-56100D01*
X43396Y-56106D01*
X43396Y-56012D01*
X43396Y-55462D01*
X43358Y-55370D01*
X43341Y-55354D01*
X43346Y-55349D01*
X43404Y-55408D01*
X43496Y-55446D01*
X43595Y-55446D01*
X43945Y-55446D01*
X44037Y-55408D01*
X44108Y-55338D01*
X44146Y-55246D01*
X44146Y-55230D01*
X44291Y-55230D01*
X44409Y-55206D01*
X44409Y-55206D01*
X44509Y-55139D01*
X44596Y-55053D01*
X44647Y-55053D01*
X44797Y-54991D01*
X44912Y-54876D01*
X44974Y-54727D01*
X44974Y-54564D01*
X44925Y-54447D01*
X44983Y-54423D01*
X45053Y-54353D01*
X45091Y-54261D01*
X45091Y-54161D01*
X45091Y-53811D01*
X45066Y-53749D01*
X45076Y-53753D01*
X45238Y-53754D01*
X45262Y-53743D01*
X45262Y-53907D01*
X45300Y-53999D01*
X45371Y-54069D01*
X45463Y-54107D01*
X45562Y-54107D01*
X45912Y-54107D01*
X46004Y-54069D01*
X46074Y-53999D01*
X46112Y-53907D01*
X46113Y-53808D01*
X46113Y-53258D01*
X46075Y-53166D01*
X46058Y-53149D01*
X46063Y-53145D01*
X46121Y-53203D01*
X46213Y-53241D01*
X46312Y-53241D01*
X46662Y-53241D01*
X46754Y-53203D01*
X46824Y-53133D01*
X46862Y-53041D01*
X46863Y-52942D01*
X46863Y-52786D01*
X46978Y-52671D01*
X47840Y-52671D01*
X47840Y-55362D01*
X47840Y-55362D01*
G37*
G54D36*
X47840Y-55362D02*
X47804Y-55398D01*
X47742Y-55548D01*
X47742Y-55655D01*
X47719Y-55602D01*
X47649Y-55531D01*
X47557Y-55493D01*
X47458Y-55493D01*
X46458Y-55493D01*
X46366Y-55531D01*
X46296Y-55601D01*
X46257Y-55693D01*
X46257Y-55793D01*
X46257Y-56293D01*
X46295Y-56385D01*
X46366Y-56455D01*
X46457Y-56493D01*
X46557Y-56493D01*
X46709Y-56493D01*
X46679Y-56565D01*
X46679Y-56664D01*
X46679Y-57014D01*
X46717Y-57106D01*
X46776Y-57165D01*
X46717Y-57223D01*
X46714Y-57231D01*
X46508Y-57231D01*
X46451Y-57174D01*
X46301Y-57112D01*
X46139Y-57112D01*
X45989Y-57174D01*
X45875Y-57288D01*
X45862Y-57319D01*
X45862Y-56989D01*
X45838Y-56870D01*
X45838Y-56870D01*
X45800Y-56813D01*
X45800Y-56813D01*
X45800Y-56486D01*
X45762Y-56394D01*
X45691Y-56324D01*
X45599Y-56286D01*
X45500Y-56285D01*
X45150Y-56285D01*
X45058Y-56323D01*
X44999Y-56382D01*
X44941Y-56324D01*
X44849Y-56286D01*
X44750Y-56285D01*
X44400Y-56285D01*
X44308Y-56323D01*
X44238Y-56394D01*
X44210Y-56461D01*
X44210Y-56300D01*
X44172Y-56208D01*
X44102Y-56138D01*
X44010Y-56100D01*
X43910Y-56100D01*
X43410Y-56100D01*
X43396Y-56106D01*
X43396Y-56012D01*
X43396Y-55462D01*
X43358Y-55370D01*
X43341Y-55354D01*
X43346Y-55349D01*
X43404Y-55408D01*
X43496Y-55446D01*
X43595Y-55446D01*
X43945Y-55446D01*
X44037Y-55408D01*
X44108Y-55338D01*
X44146Y-55246D01*
X44146Y-55230D01*
X44291Y-55230D01*
X44409Y-55206D01*
X44409Y-55206D01*
X44509Y-55139D01*
X44596Y-55053D01*
X44647Y-55053D01*
X44797Y-54991D01*
X44912Y-54876D01*
X44974Y-54727D01*
X44974Y-54564D01*
X44925Y-54447D01*
X44983Y-54423D01*
X45053Y-54353D01*
X45091Y-54261D01*
X45091Y-54161D01*
X45091Y-53811D01*
X45066Y-53749D01*
X45076Y-53753D01*
X45238Y-53754D01*
X45262Y-53743D01*
X45262Y-53907D01*
X45300Y-53999D01*
X45371Y-54069D01*
X45463Y-54107D01*
X45562Y-54107D01*
X45912Y-54107D01*
X46004Y-54069D01*
X46074Y-53999D01*
X46112Y-53907D01*
X46113Y-53808D01*
X46113Y-53258D01*
X46075Y-53166D01*
X46058Y-53149D01*
X46063Y-53145D01*
X46121Y-53203D01*
X46213Y-53241D01*
X46312Y-53241D01*
X46662Y-53241D01*
X46754Y-53203D01*
X46824Y-53133D01*
X46862Y-53041D01*
X46863Y-52942D01*
X46863Y-52786D01*
X46978Y-52671D01*
X47840Y-52671D01*
X47840Y-55362D01*
G54D10*
G36*
X53368Y-60013D02*
X52120Y-61261D01*
X52120Y-58986D01*
X52372Y-58734D01*
X52979Y-58734D01*
X52978Y-58737D01*
X52978Y-58899D01*
X53029Y-59022D01*
X52980Y-59071D01*
X52942Y-59163D01*
X52942Y-59262D01*
X52942Y-59812D01*
X52980Y-59904D01*
X53050Y-59975D01*
X53142Y-60013D01*
X53241Y-60013D01*
X53368Y-60013D01*
X53368Y-60013D01*
G37*
G54D36*
X53368Y-60013D02*
X52120Y-61261D01*
X52120Y-58986D01*
X52372Y-58734D01*
X52979Y-58734D01*
X52978Y-58737D01*
X52978Y-58899D01*
X53029Y-59022D01*
X52980Y-59071D01*
X52942Y-59163D01*
X52942Y-59262D01*
X52942Y-59812D01*
X52980Y-59904D01*
X53050Y-59975D01*
X53142Y-60013D01*
X53241Y-60013D01*
X53368Y-60013D01*
G54D10*
G36*
X55281Y-64517D02*
X54517Y-65281D01*
X52125Y-65281D01*
X52007Y-65305D01*
X51907Y-65372D01*
X51907Y-65372D01*
X50718Y-66561D01*
X50608Y-66560D01*
X50474Y-66616D01*
X54218Y-62872D01*
X54218Y-62979D01*
X54203Y-62979D01*
X54111Y-63017D01*
X54040Y-63087D01*
X54002Y-63179D01*
X54002Y-63279D01*
X54002Y-63629D01*
X54040Y-63720D01*
X54110Y-63791D01*
X54202Y-63829D01*
X54302Y-63829D01*
X54852Y-63829D01*
X54943Y-63791D01*
X54965Y-63770D01*
X55005Y-63809D01*
X55154Y-63871D01*
X55281Y-63872D01*
X55281Y-64517D01*
X55281Y-64517D01*
G37*
G54D36*
X55281Y-64517D02*
X54517Y-65281D01*
X52125Y-65281D01*
X52007Y-65305D01*
X51907Y-65372D01*
X51907Y-65372D01*
X50718Y-66561D01*
X50608Y-66560D01*
X50474Y-66616D01*
X54218Y-62872D01*
X54218Y-62979D01*
X54203Y-62979D01*
X54111Y-63017D01*
X54040Y-63087D01*
X54002Y-63179D01*
X54002Y-63279D01*
X54002Y-63629D01*
X54040Y-63720D01*
X54110Y-63791D01*
X54202Y-63829D01*
X54302Y-63829D01*
X54852Y-63829D01*
X54943Y-63791D01*
X54965Y-63770D01*
X55005Y-63809D01*
X55154Y-63871D01*
X55281Y-63872D01*
X55281Y-64517D01*
G54D10*
G36*
X56108Y-57879D02*
X56033Y-57879D01*
X55049Y-57879D01*
X53537Y-56368D01*
X53537Y-54368D01*
X55044Y-55875D01*
X55008Y-55911D01*
X54479Y-55911D01*
X54443Y-55875D01*
X54294Y-55813D01*
X54131Y-55812D01*
X53982Y-55874D01*
X53867Y-55989D01*
X53805Y-56139D01*
X53805Y-56301D01*
X53866Y-56450D01*
X53981Y-56565D01*
X54131Y-56627D01*
X54293Y-56628D01*
X54443Y-56566D01*
X54479Y-56529D01*
X55008Y-56529D01*
X55044Y-56565D01*
X55194Y-56627D01*
X55356Y-56628D01*
X55506Y-56566D01*
X55620Y-56451D01*
X56108Y-56938D01*
X56108Y-57879D01*
X56108Y-57879D01*
G37*
G54D36*
X56108Y-57879D02*
X56033Y-57879D01*
X55049Y-57879D01*
X53537Y-56368D01*
X53537Y-54368D01*
X55044Y-55875D01*
X55008Y-55911D01*
X54479Y-55911D01*
X54443Y-55875D01*
X54294Y-55813D01*
X54131Y-55812D01*
X53982Y-55874D01*
X53867Y-55989D01*
X53805Y-56139D01*
X53805Y-56301D01*
X53866Y-56450D01*
X53981Y-56565D01*
X54131Y-56627D01*
X54293Y-56628D01*
X54443Y-56566D01*
X54479Y-56529D01*
X55008Y-56529D01*
X55044Y-56565D01*
X55194Y-56627D01*
X55356Y-56628D01*
X55506Y-56566D01*
X55620Y-56451D01*
X56108Y-56938D01*
X56108Y-57879D01*
G54D10*
G36*
X56316Y-54563D02*
X56268Y-54611D01*
X56206Y-54761D01*
X56206Y-54923D01*
X56239Y-55003D01*
X56226Y-55008D01*
X56111Y-55123D01*
X56064Y-55235D01*
X56064Y-50649D01*
X56146Y-50847D01*
X56305Y-51006D01*
X56316Y-51010D01*
X56316Y-54563D01*
X56316Y-54563D01*
G37*
G54D36*
X56316Y-54563D02*
X56268Y-54611D01*
X56206Y-54761D01*
X56206Y-54923D01*
X56239Y-55003D01*
X56226Y-55008D01*
X56111Y-55123D01*
X56064Y-55235D01*
X56064Y-50649D01*
X56146Y-50847D01*
X56305Y-51006D01*
X56316Y-51010D01*
X56316Y-54563D01*
G54D10*
G36*
X57092Y-56340D02*
X56513Y-55761D01*
X56537Y-55761D01*
X56687Y-55699D01*
X56703Y-55684D01*
X56714Y-55684D01*
X56717Y-55691D01*
X56787Y-55761D01*
X56879Y-55799D01*
X56979Y-55800D01*
X57092Y-55800D01*
X57092Y-56340D01*
X57092Y-56340D01*
G37*
G54D36*
X57092Y-56340D02*
X56513Y-55761D01*
X56537Y-55761D01*
X56687Y-55699D01*
X56703Y-55684D01*
X56714Y-55684D01*
X56717Y-55691D01*
X56787Y-55761D01*
X56879Y-55799D01*
X56979Y-55800D01*
X57092Y-55800D01*
X57092Y-56340D01*
G54D10*
G36*
X58352Y-53760D02*
X58270Y-53726D01*
X58108Y-53726D01*
X57958Y-53788D01*
X57843Y-53902D01*
X57781Y-54052D01*
X57781Y-54214D01*
X57783Y-54219D01*
X57682Y-54260D01*
X57568Y-54375D01*
X57505Y-54524D01*
X57505Y-54686D01*
X57567Y-54836D01*
X57682Y-54951D01*
X57722Y-54968D01*
X57722Y-55132D01*
X57691Y-55058D01*
X57621Y-54988D01*
X57529Y-54950D01*
X57430Y-54949D01*
X57010Y-54949D01*
X57021Y-54923D01*
X57021Y-54761D01*
X56959Y-54612D01*
X56935Y-54587D01*
X56935Y-51348D01*
X58352Y-52765D01*
X58352Y-53760D01*
X58352Y-53760D01*
G37*
G54D36*
X58352Y-53760D02*
X58270Y-53726D01*
X58108Y-53726D01*
X57958Y-53788D01*
X57843Y-53902D01*
X57781Y-54052D01*
X57781Y-54214D01*
X57783Y-54219D01*
X57682Y-54260D01*
X57568Y-54375D01*
X57505Y-54524D01*
X57505Y-54686D01*
X57567Y-54836D01*
X57682Y-54951D01*
X57722Y-54968D01*
X57722Y-55132D01*
X57691Y-55058D01*
X57621Y-54988D01*
X57529Y-54950D01*
X57430Y-54949D01*
X57010Y-54949D01*
X57021Y-54923D01*
X57021Y-54761D01*
X56959Y-54612D01*
X56935Y-54587D01*
X56935Y-51348D01*
X58352Y-52765D01*
X58352Y-53760D01*
G54D10*
G36*
X60911Y-55423D02*
X60332Y-56001D01*
X60265Y-56102D01*
X60242Y-56220D01*
X60242Y-56727D01*
X60240Y-56728D01*
X60236Y-56739D01*
X60231Y-56728D01*
X60230Y-56727D01*
X60230Y-55710D01*
X60295Y-55683D01*
X60366Y-55613D01*
X60404Y-55521D01*
X60404Y-55422D01*
X60404Y-54872D01*
X60366Y-54780D01*
X60325Y-54739D01*
X60345Y-54719D01*
X60407Y-54569D01*
X60407Y-54407D01*
X60345Y-54257D01*
X60231Y-54142D01*
X60081Y-54080D01*
X59919Y-54080D01*
X59915Y-54082D01*
X59915Y-47619D01*
X60087Y-47690D01*
X60281Y-47691D01*
X60911Y-48320D01*
X60911Y-55423D01*
X60911Y-55423D01*
G37*
G54D36*
X60911Y-55423D02*
X60332Y-56001D01*
X60265Y-56102D01*
X60242Y-56220D01*
X60242Y-56727D01*
X60240Y-56728D01*
X60236Y-56739D01*
X60231Y-56728D01*
X60230Y-56727D01*
X60230Y-55710D01*
X60295Y-55683D01*
X60366Y-55613D01*
X60404Y-55521D01*
X60404Y-55422D01*
X60404Y-54872D01*
X60366Y-54780D01*
X60325Y-54739D01*
X60345Y-54719D01*
X60407Y-54569D01*
X60407Y-54407D01*
X60345Y-54257D01*
X60231Y-54142D01*
X60081Y-54080D01*
X59919Y-54080D01*
X59915Y-54082D01*
X59915Y-47619D01*
X60087Y-47690D01*
X60281Y-47691D01*
X60911Y-48320D01*
X60911Y-55423D01*
G54D10*
G36*
X61424Y-62637D02*
X61413Y-62642D01*
X61343Y-62712D01*
X61305Y-62804D01*
X61305Y-62903D01*
X61305Y-63076D01*
X61230Y-63076D01*
X61033Y-63076D01*
X61023Y-63080D01*
X61014Y-63076D01*
X60915Y-63076D01*
X60718Y-63076D01*
X60708Y-63080D01*
X60699Y-63076D01*
X60600Y-63076D01*
X60403Y-63076D01*
X60393Y-63080D01*
X60384Y-63076D01*
X60285Y-63076D01*
X60088Y-63076D01*
X60078Y-63080D01*
X60069Y-63076D01*
X59970Y-63076D01*
X59773Y-63076D01*
X59763Y-63080D01*
X59754Y-63076D01*
X59655Y-63076D01*
X59458Y-63076D01*
X59448Y-63080D01*
X59439Y-63076D01*
X59340Y-63076D01*
X59143Y-63076D01*
X59133Y-63080D01*
X59124Y-63076D01*
X59025Y-63076D01*
X58828Y-63076D01*
X58736Y-63114D01*
X58666Y-63184D01*
X58661Y-63196D01*
X58656Y-63185D01*
X58586Y-63114D01*
X58494Y-63076D01*
X58395Y-63076D01*
X58198Y-63076D01*
X58189Y-63080D01*
X58179Y-63076D01*
X58080Y-63076D01*
X57883Y-63076D01*
X57874Y-63080D01*
X57864Y-63076D01*
X57765Y-63076D01*
X57568Y-63076D01*
X57559Y-63080D01*
X57549Y-63076D01*
X57450Y-63076D01*
X57253Y-63076D01*
X57244Y-63080D01*
X57234Y-63076D01*
X57135Y-63076D01*
X56938Y-63076D01*
X56929Y-63080D01*
X56920Y-63076D01*
X56820Y-63076D01*
X56623Y-63076D01*
X56614Y-63080D01*
X56605Y-63076D01*
X56505Y-63076D01*
X56332Y-63076D01*
X56332Y-63001D01*
X56332Y-62804D01*
X56328Y-62795D01*
X56332Y-62786D01*
X56332Y-62686D01*
X56332Y-62489D01*
X56294Y-62397D01*
X56224Y-62327D01*
X56213Y-62322D01*
X56224Y-62318D01*
X56294Y-62248D01*
X56332Y-62156D01*
X56332Y-62056D01*
X56332Y-61859D01*
X56328Y-61850D01*
X56332Y-61841D01*
X56332Y-61741D01*
X56332Y-61544D01*
X56328Y-61535D01*
X56332Y-61526D01*
X56332Y-61426D01*
X56332Y-61230D01*
X56328Y-61220D01*
X56332Y-61211D01*
X56332Y-61111D01*
X56332Y-60915D01*
X56328Y-60905D01*
X56332Y-60896D01*
X56332Y-60796D01*
X56332Y-60600D01*
X56328Y-60590D01*
X56332Y-60581D01*
X56332Y-60481D01*
X56332Y-60285D01*
X56328Y-60275D01*
X56332Y-60266D01*
X56332Y-60167D01*
X56332Y-59970D01*
X56328Y-59960D01*
X56332Y-59951D01*
X56332Y-59852D01*
X56332Y-59655D01*
X56328Y-59645D01*
X56332Y-59636D01*
X56332Y-59537D01*
X56332Y-59340D01*
X56328Y-59330D01*
X56332Y-59321D01*
X56332Y-59222D01*
X56332Y-59025D01*
X56328Y-59015D01*
X56332Y-59006D01*
X56332Y-58907D01*
X56332Y-58710D01*
X56328Y-58700D01*
X56332Y-58691D01*
X56332Y-58592D01*
X56332Y-58395D01*
X56328Y-58385D01*
X56332Y-58376D01*
X56332Y-58277D01*
X56332Y-58104D01*
X56407Y-58104D01*
X56604Y-58104D01*
X56614Y-58100D01*
X56623Y-58104D01*
X56722Y-58104D01*
X56919Y-58104D01*
X56929Y-58100D01*
X56938Y-58104D01*
X57037Y-58104D01*
X57234Y-58104D01*
X57244Y-58100D01*
X57253Y-58104D01*
X57352Y-58104D01*
X57549Y-58104D01*
X57641Y-58066D01*
X57711Y-57996D01*
X57716Y-57984D01*
X57721Y-57995D01*
X57791Y-58066D01*
X57883Y-58104D01*
X57982Y-58104D01*
X58179Y-58104D01*
X58188Y-58100D01*
X58198Y-58104D01*
X58297Y-58104D01*
X58494Y-58104D01*
X58503Y-58100D01*
X58513Y-58104D01*
X58612Y-58104D01*
X58809Y-58104D01*
X58818Y-58100D01*
X58828Y-58104D01*
X58927Y-58104D01*
X59124Y-58104D01*
X59133Y-58100D01*
X59142Y-58104D01*
X59242Y-58104D01*
X59439Y-58104D01*
X59448Y-58100D01*
X59457Y-58104D01*
X59557Y-58104D01*
X59754Y-58104D01*
X59763Y-58100D01*
X59772Y-58104D01*
X59872Y-58104D01*
X60069Y-58104D01*
X60161Y-58066D01*
X60231Y-57996D01*
X60236Y-57984D01*
X60240Y-57995D01*
X60310Y-58066D01*
X60402Y-58104D01*
X60502Y-58104D01*
X60699Y-58104D01*
X60708Y-58100D01*
X60717Y-58104D01*
X60817Y-58104D01*
X61014Y-58104D01*
X61023Y-58100D01*
X61032Y-58104D01*
X61132Y-58104D01*
X61305Y-58104D01*
X61305Y-58179D01*
X61305Y-58376D01*
X61308Y-58385D01*
X61305Y-58394D01*
X61305Y-58494D01*
X61305Y-58691D01*
X61308Y-58700D01*
X61305Y-58709D01*
X61305Y-58809D01*
X61305Y-59006D01*
X61308Y-59015D01*
X61305Y-59024D01*
X61305Y-59124D01*
X61305Y-59321D01*
X61343Y-59413D01*
X61413Y-59483D01*
X61424Y-59488D01*
X61413Y-59492D01*
X61343Y-59562D01*
X61305Y-59654D01*
X61305Y-59754D01*
X61305Y-59951D01*
X61308Y-59960D01*
X61305Y-59969D01*
X61305Y-60069D01*
X61305Y-60266D01*
X61308Y-60275D01*
X61305Y-60284D01*
X61305Y-60384D01*
X61305Y-60581D01*
X61308Y-60590D01*
X61305Y-60599D01*
X61305Y-60699D01*
X61305Y-60895D01*
X61308Y-60905D01*
X61305Y-60914D01*
X61305Y-61014D01*
X61305Y-61210D01*
X61308Y-61220D01*
X61305Y-61229D01*
X61305Y-61329D01*
X61305Y-61525D01*
X61308Y-61535D01*
X61305Y-61544D01*
X61305Y-61643D01*
X61305Y-61840D01*
X61308Y-61850D01*
X61305Y-61859D01*
X61305Y-61958D01*
X61305Y-62155D01*
X61308Y-62165D01*
X61305Y-62174D01*
X61305Y-62273D01*
X61305Y-62470D01*
X61343Y-62562D01*
X61413Y-62633D01*
X61424Y-62637D01*
X61424Y-62637D01*
G37*
G54D36*
X61424Y-62637D02*
X61413Y-62642D01*
X61343Y-62712D01*
X61305Y-62804D01*
X61305Y-62903D01*
X61305Y-63076D01*
X61230Y-63076D01*
X61033Y-63076D01*
X61023Y-63080D01*
X61014Y-63076D01*
X60915Y-63076D01*
X60718Y-63076D01*
X60708Y-63080D01*
X60699Y-63076D01*
X60600Y-63076D01*
X60403Y-63076D01*
X60393Y-63080D01*
X60384Y-63076D01*
X60285Y-63076D01*
X60088Y-63076D01*
X60078Y-63080D01*
X60069Y-63076D01*
X59970Y-63076D01*
X59773Y-63076D01*
X59763Y-63080D01*
X59754Y-63076D01*
X59655Y-63076D01*
X59458Y-63076D01*
X59448Y-63080D01*
X59439Y-63076D01*
X59340Y-63076D01*
X59143Y-63076D01*
X59133Y-63080D01*
X59124Y-63076D01*
X59025Y-63076D01*
X58828Y-63076D01*
X58736Y-63114D01*
X58666Y-63184D01*
X58661Y-63196D01*
X58656Y-63185D01*
X58586Y-63114D01*
X58494Y-63076D01*
X58395Y-63076D01*
X58198Y-63076D01*
X58189Y-63080D01*
X58179Y-63076D01*
X58080Y-63076D01*
X57883Y-63076D01*
X57874Y-63080D01*
X57864Y-63076D01*
X57765Y-63076D01*
X57568Y-63076D01*
X57559Y-63080D01*
X57549Y-63076D01*
X57450Y-63076D01*
X57253Y-63076D01*
X57244Y-63080D01*
X57234Y-63076D01*
X57135Y-63076D01*
X56938Y-63076D01*
X56929Y-63080D01*
X56920Y-63076D01*
X56820Y-63076D01*
X56623Y-63076D01*
X56614Y-63080D01*
X56605Y-63076D01*
X56505Y-63076D01*
X56332Y-63076D01*
X56332Y-63001D01*
X56332Y-62804D01*
X56328Y-62795D01*
X56332Y-62786D01*
X56332Y-62686D01*
X56332Y-62489D01*
X56294Y-62397D01*
X56224Y-62327D01*
X56213Y-62322D01*
X56224Y-62318D01*
X56294Y-62248D01*
X56332Y-62156D01*
X56332Y-62056D01*
X56332Y-61859D01*
X56328Y-61850D01*
X56332Y-61841D01*
X56332Y-61741D01*
X56332Y-61544D01*
X56328Y-61535D01*
X56332Y-61526D01*
X56332Y-61426D01*
X56332Y-61230D01*
X56328Y-61220D01*
X56332Y-61211D01*
X56332Y-61111D01*
X56332Y-60915D01*
X56328Y-60905D01*
X56332Y-60896D01*
X56332Y-60796D01*
X56332Y-60600D01*
X56328Y-60590D01*
X56332Y-60581D01*
X56332Y-60481D01*
X56332Y-60285D01*
X56328Y-60275D01*
X56332Y-60266D01*
X56332Y-60167D01*
X56332Y-59970D01*
X56328Y-59960D01*
X56332Y-59951D01*
X56332Y-59852D01*
X56332Y-59655D01*
X56328Y-59645D01*
X56332Y-59636D01*
X56332Y-59537D01*
X56332Y-59340D01*
X56328Y-59330D01*
X56332Y-59321D01*
X56332Y-59222D01*
X56332Y-59025D01*
X56328Y-59015D01*
X56332Y-59006D01*
X56332Y-58907D01*
X56332Y-58710D01*
X56328Y-58700D01*
X56332Y-58691D01*
X56332Y-58592D01*
X56332Y-58395D01*
X56328Y-58385D01*
X56332Y-58376D01*
X56332Y-58277D01*
X56332Y-58104D01*
X56407Y-58104D01*
X56604Y-58104D01*
X56614Y-58100D01*
X56623Y-58104D01*
X56722Y-58104D01*
X56919Y-58104D01*
X56929Y-58100D01*
X56938Y-58104D01*
X57037Y-58104D01*
X57234Y-58104D01*
X57244Y-58100D01*
X57253Y-58104D01*
X57352Y-58104D01*
X57549Y-58104D01*
X57641Y-58066D01*
X57711Y-57996D01*
X57716Y-57984D01*
X57721Y-57995D01*
X57791Y-58066D01*
X57883Y-58104D01*
X57982Y-58104D01*
X58179Y-58104D01*
X58188Y-58100D01*
X58198Y-58104D01*
X58297Y-58104D01*
X58494Y-58104D01*
X58503Y-58100D01*
X58513Y-58104D01*
X58612Y-58104D01*
X58809Y-58104D01*
X58818Y-58100D01*
X58828Y-58104D01*
X58927Y-58104D01*
X59124Y-58104D01*
X59133Y-58100D01*
X59142Y-58104D01*
X59242Y-58104D01*
X59439Y-58104D01*
X59448Y-58100D01*
X59457Y-58104D01*
X59557Y-58104D01*
X59754Y-58104D01*
X59763Y-58100D01*
X59772Y-58104D01*
X59872Y-58104D01*
X60069Y-58104D01*
X60161Y-58066D01*
X60231Y-57996D01*
X60236Y-57984D01*
X60240Y-57995D01*
X60310Y-58066D01*
X60402Y-58104D01*
X60502Y-58104D01*
X60699Y-58104D01*
X60708Y-58100D01*
X60717Y-58104D01*
X60817Y-58104D01*
X61014Y-58104D01*
X61023Y-58100D01*
X61032Y-58104D01*
X61132Y-58104D01*
X61305Y-58104D01*
X61305Y-58179D01*
X61305Y-58376D01*
X61308Y-58385D01*
X61305Y-58394D01*
X61305Y-58494D01*
X61305Y-58691D01*
X61308Y-58700D01*
X61305Y-58709D01*
X61305Y-58809D01*
X61305Y-59006D01*
X61308Y-59015D01*
X61305Y-59024D01*
X61305Y-59124D01*
X61305Y-59321D01*
X61343Y-59413D01*
X61413Y-59483D01*
X61424Y-59488D01*
X61413Y-59492D01*
X61343Y-59562D01*
X61305Y-59654D01*
X61305Y-59754D01*
X61305Y-59951D01*
X61308Y-59960D01*
X61305Y-59969D01*
X61305Y-60069D01*
X61305Y-60266D01*
X61308Y-60275D01*
X61305Y-60284D01*
X61305Y-60384D01*
X61305Y-60581D01*
X61308Y-60590D01*
X61305Y-60599D01*
X61305Y-60699D01*
X61305Y-60895D01*
X61308Y-60905D01*
X61305Y-60914D01*
X61305Y-61014D01*
X61305Y-61210D01*
X61308Y-61220D01*
X61305Y-61229D01*
X61305Y-61329D01*
X61305Y-61525D01*
X61308Y-61535D01*
X61305Y-61544D01*
X61305Y-61643D01*
X61305Y-61840D01*
X61308Y-61850D01*
X61305Y-61859D01*
X61305Y-61958D01*
X61305Y-62155D01*
X61308Y-62165D01*
X61305Y-62174D01*
X61305Y-62273D01*
X61305Y-62470D01*
X61343Y-62562D01*
X61413Y-62633D01*
X61424Y-62637D01*
G54D10*
G36*
X64509Y-57730D02*
X63616Y-58623D01*
X63616Y-57451D01*
X64100Y-57451D01*
X64142Y-57553D01*
X64257Y-57668D01*
X64406Y-57730D01*
X64509Y-57730D01*
X64509Y-57730D01*
G37*
G54D36*
X64509Y-57730D02*
X63616Y-58623D01*
X63616Y-57451D01*
X64100Y-57451D01*
X64142Y-57553D01*
X64257Y-57668D01*
X64406Y-57730D01*
X64509Y-57730D01*
G54D10*
G36*
X64598Y-64533D02*
X63671Y-64533D01*
X63328Y-64190D01*
X63328Y-64190D01*
X62439Y-63301D01*
X62588Y-63301D01*
X62680Y-63263D01*
X62751Y-63192D01*
X62789Y-63101D01*
X62789Y-63001D01*
X62789Y-62804D01*
X62751Y-62712D01*
X62681Y-62642D01*
X62669Y-62637D01*
X62680Y-62633D01*
X62682Y-62631D01*
X62821Y-62631D01*
X62821Y-62723D01*
X62859Y-62815D01*
X62929Y-62885D01*
X63021Y-62923D01*
X63120Y-62924D01*
X63670Y-62924D01*
X63762Y-62886D01*
X63833Y-62815D01*
X63836Y-62808D01*
X63885Y-62808D01*
X63942Y-62864D01*
X64091Y-62927D01*
X64218Y-62927D01*
X64080Y-63257D01*
X64080Y-63748D01*
X64268Y-64202D01*
X64598Y-64533D01*
X64598Y-64533D01*
G37*
G54D36*
X64598Y-64533D02*
X63671Y-64533D01*
X63328Y-64190D01*
X63328Y-64190D01*
X62439Y-63301D01*
X62588Y-63301D01*
X62680Y-63263D01*
X62751Y-63192D01*
X62789Y-63101D01*
X62789Y-63001D01*
X62789Y-62804D01*
X62751Y-62712D01*
X62681Y-62642D01*
X62669Y-62637D01*
X62680Y-62633D01*
X62682Y-62631D01*
X62821Y-62631D01*
X62821Y-62723D01*
X62859Y-62815D01*
X62929Y-62885D01*
X63021Y-62923D01*
X63120Y-62924D01*
X63670Y-62924D01*
X63762Y-62886D01*
X63833Y-62815D01*
X63836Y-62808D01*
X63885Y-62808D01*
X63942Y-62864D01*
X64091Y-62927D01*
X64218Y-62927D01*
X64080Y-63257D01*
X64080Y-63748D01*
X64268Y-64202D01*
X64598Y-64533D01*
G54D10*
G36*
X70163Y-66792D02*
X70151Y-66762D01*
X69931Y-66542D01*
X69644Y-66423D01*
X69333Y-66422D01*
X69046Y-66541D01*
X68826Y-66761D01*
X68706Y-67048D01*
X68706Y-67359D01*
X68825Y-67646D01*
X68979Y-67801D01*
X41838Y-67801D01*
X42273Y-67621D01*
X42620Y-67274D01*
X42808Y-66821D01*
X42809Y-66330D01*
X42621Y-65876D01*
X42284Y-65538D01*
X42334Y-65517D01*
X42416Y-65551D01*
X42516Y-65551D01*
X42678Y-65551D01*
X42663Y-65587D01*
X42663Y-65749D01*
X42725Y-65899D01*
X42839Y-66014D01*
X42989Y-66076D01*
X43151Y-66076D01*
X43301Y-66014D01*
X43416Y-65900D01*
X43478Y-65750D01*
X43478Y-65588D01*
X43463Y-65551D01*
X43516Y-65551D01*
X43752Y-65551D01*
X43844Y-65513D01*
X43914Y-65443D01*
X43939Y-65382D01*
X43942Y-65384D01*
X44091Y-65446D01*
X44253Y-65446D01*
X44403Y-65385D01*
X44518Y-65270D01*
X44580Y-65120D01*
X44580Y-65045D01*
X44645Y-65088D01*
X44645Y-65088D01*
X44763Y-65112D01*
X45769Y-65112D01*
X44320Y-66561D01*
X44128Y-66560D01*
X43934Y-66640D01*
X43786Y-66788D01*
X43706Y-66981D01*
X43706Y-67190D01*
X43786Y-67383D01*
X43934Y-67531D01*
X44127Y-67612D01*
X44336Y-67612D01*
X44529Y-67532D01*
X44677Y-67384D01*
X44732Y-67252D01*
X44786Y-67383D01*
X44934Y-67531D01*
X45127Y-67612D01*
X45336Y-67612D01*
X45529Y-67532D01*
X45677Y-67384D01*
X45732Y-67252D01*
X45786Y-67383D01*
X45934Y-67531D01*
X46127Y-67612D01*
X46336Y-67612D01*
X46529Y-67532D01*
X46677Y-67384D01*
X46732Y-67252D01*
X46786Y-67383D01*
X46934Y-67531D01*
X47127Y-67612D01*
X47336Y-67612D01*
X47529Y-67532D01*
X47677Y-67384D01*
X47732Y-67252D01*
X47786Y-67383D01*
X47934Y-67531D01*
X48127Y-67612D01*
X48336Y-67612D01*
X48529Y-67532D01*
X48677Y-67384D01*
X48707Y-67313D01*
X48707Y-67411D01*
X48745Y-67503D01*
X48815Y-67573D01*
X48907Y-67611D01*
X49006Y-67611D01*
X49126Y-67611D01*
X49127Y-67612D01*
X49336Y-67612D01*
X49337Y-67611D01*
X49556Y-67611D01*
X49648Y-67573D01*
X49719Y-67503D01*
X49757Y-67411D01*
X49757Y-67323D01*
X49785Y-67305D01*
X50242Y-66848D01*
X50187Y-66981D01*
X50186Y-67190D01*
X50266Y-67383D01*
X50414Y-67531D01*
X50607Y-67612D01*
X50816Y-67612D01*
X51009Y-67532D01*
X51157Y-67384D01*
X51212Y-67252D01*
X51266Y-67383D01*
X51414Y-67531D01*
X51607Y-67612D01*
X51816Y-67612D01*
X52009Y-67532D01*
X52157Y-67384D01*
X52212Y-67252D01*
X52266Y-67383D01*
X52414Y-67531D01*
X52607Y-67612D01*
X52816Y-67612D01*
X53009Y-67532D01*
X53157Y-67384D01*
X53212Y-67252D01*
X53266Y-67383D01*
X53414Y-67531D01*
X53607Y-67612D01*
X53816Y-67612D01*
X54009Y-67532D01*
X54157Y-67384D01*
X54212Y-67252D01*
X54266Y-67383D01*
X54414Y-67531D01*
X54607Y-67612D01*
X54816Y-67612D01*
X55009Y-67532D01*
X55157Y-67384D01*
X55212Y-67252D01*
X55266Y-67383D01*
X55414Y-67531D01*
X55607Y-67612D01*
X55816Y-67612D01*
X56009Y-67532D01*
X56157Y-67384D01*
X56212Y-67252D01*
X56266Y-67383D01*
X56414Y-67531D01*
X56607Y-67612D01*
X56816Y-67612D01*
X57009Y-67532D01*
X57157Y-67384D01*
X57186Y-67314D01*
X57186Y-67411D01*
X57224Y-67503D01*
X57295Y-67574D01*
X57387Y-67612D01*
X57486Y-67612D01*
X57762Y-67612D01*
X57816Y-67612D01*
X57816Y-67612D01*
X58037Y-67612D01*
X58129Y-67574D01*
X58200Y-67504D01*
X58238Y-67412D01*
X58238Y-67312D01*
X58238Y-67037D01*
X58238Y-66982D01*
X58238Y-66982D01*
X58238Y-66761D01*
X58200Y-66669D01*
X58129Y-66599D01*
X58038Y-66561D01*
X58021Y-66561D01*
X58021Y-65643D01*
X58564Y-65100D01*
X58564Y-65100D01*
X58564Y-65100D01*
X58631Y-65000D01*
X58631Y-65000D01*
X58650Y-64905D01*
X58655Y-64881D01*
X58655Y-64881D01*
X58655Y-64881D01*
X58655Y-64454D01*
X58656Y-64452D01*
X58661Y-64441D01*
X58665Y-64452D01*
X58667Y-64453D01*
X58667Y-64685D01*
X58690Y-64803D01*
X58757Y-64903D01*
X58976Y-65122D01*
X58964Y-65134D01*
X58926Y-65226D01*
X58926Y-65325D01*
X58926Y-65875D01*
X58964Y-65967D01*
X59034Y-66037D01*
X59042Y-66041D01*
X59042Y-66090D01*
X59024Y-66107D01*
X58962Y-66257D01*
X58962Y-66419D01*
X59024Y-66569D01*
X59138Y-66683D01*
X59288Y-66745D01*
X59450Y-66746D01*
X59600Y-66684D01*
X59715Y-66569D01*
X59777Y-66419D01*
X59777Y-66257D01*
X59715Y-66108D01*
X59660Y-66052D01*
X59660Y-66041D01*
X59667Y-66038D01*
X59738Y-65967D01*
X59776Y-65876D01*
X59776Y-65776D01*
X59776Y-65528D01*
X60301Y-66053D01*
X60301Y-66560D01*
X60285Y-66560D01*
X60193Y-66598D01*
X60122Y-66669D01*
X60084Y-66761D01*
X60084Y-66860D01*
X60084Y-67136D01*
X60084Y-67190D01*
X60084Y-67190D01*
X60084Y-67411D01*
X60122Y-67503D01*
X60192Y-67574D01*
X60284Y-67612D01*
X60384Y-67612D01*
X60659Y-67612D01*
X60714Y-67612D01*
X60714Y-67612D01*
X60935Y-67612D01*
X61027Y-67574D01*
X61097Y-67504D01*
X61135Y-67412D01*
X61135Y-67314D01*
X61164Y-67383D01*
X61312Y-67531D01*
X61505Y-67612D01*
X61714Y-67612D01*
X61907Y-67532D01*
X62055Y-67384D01*
X62110Y-67252D01*
X62164Y-67383D01*
X62312Y-67531D01*
X62505Y-67612D01*
X62714Y-67612D01*
X62907Y-67532D01*
X63055Y-67384D01*
X63110Y-67252D01*
X63164Y-67383D01*
X63312Y-67531D01*
X63505Y-67612D01*
X63714Y-67612D01*
X63907Y-67532D01*
X64055Y-67384D01*
X64110Y-67252D01*
X64164Y-67383D01*
X64312Y-67531D01*
X64505Y-67612D01*
X64714Y-67612D01*
X64907Y-67532D01*
X65055Y-67384D01*
X65110Y-67252D01*
X65164Y-67383D01*
X65312Y-67531D01*
X65505Y-67612D01*
X65714Y-67612D01*
X65907Y-67532D01*
X66055Y-67384D01*
X66135Y-67191D01*
X66135Y-66982D01*
X66056Y-66789D01*
X65919Y-66652D01*
X65919Y-66161D01*
X65895Y-66043D01*
X65895Y-66043D01*
X65828Y-65942D01*
X65537Y-65651D01*
X67176Y-65651D01*
X67328Y-65804D01*
X67529Y-65887D01*
X67746Y-65887D01*
X67946Y-65805D01*
X68031Y-65720D01*
X68115Y-65804D01*
X68316Y-65887D01*
X68533Y-65887D01*
X68733Y-65805D01*
X68887Y-65651D01*
X68970Y-65451D01*
X68970Y-65234D01*
X68887Y-65034D01*
X68734Y-64880D01*
X68534Y-64797D01*
X68383Y-64797D01*
X68210Y-64623D01*
X68133Y-64572D01*
X68183Y-64451D01*
X68183Y-64234D01*
X68100Y-64034D01*
X67947Y-63880D01*
X67747Y-63797D01*
X67530Y-63797D01*
X67329Y-63879D01*
X67176Y-64033D01*
X67093Y-64233D01*
X67092Y-64450D01*
X67127Y-64533D01*
X66030Y-64533D01*
X66360Y-64203D01*
X66548Y-63750D01*
X66549Y-63259D01*
X66361Y-62805D01*
X66015Y-62458D01*
X65561Y-62269D01*
X65070Y-62269D01*
X64616Y-62456D01*
X64580Y-62492D01*
X64580Y-62438D01*
X64518Y-62289D01*
X64404Y-62174D01*
X64254Y-62112D01*
X64092Y-62112D01*
X63942Y-62174D01*
X63926Y-62189D01*
X63836Y-62189D01*
X63833Y-62182D01*
X63763Y-62112D01*
X63676Y-62075D01*
X66832Y-58919D01*
X66832Y-58919D01*
X66832Y-58919D01*
X66899Y-58819D01*
X66899Y-58819D01*
X66918Y-58724D01*
X66923Y-58700D01*
X66923Y-58700D01*
X66923Y-58700D01*
X66923Y-56663D01*
X67415Y-56171D01*
X68739Y-56171D01*
X68875Y-56307D01*
X69068Y-56387D01*
X69277Y-56387D01*
X69470Y-56308D01*
X69618Y-56160D01*
X69698Y-55967D01*
X69698Y-55758D01*
X69619Y-55564D01*
X69471Y-55416D01*
X69339Y-55362D01*
X69470Y-55308D01*
X69618Y-55160D01*
X69698Y-54967D01*
X69698Y-54758D01*
X69619Y-54564D01*
X69471Y-54416D01*
X69339Y-54362D01*
X69470Y-54308D01*
X69618Y-54160D01*
X69698Y-53967D01*
X69698Y-53758D01*
X69619Y-53564D01*
X69471Y-53416D01*
X69339Y-53362D01*
X69470Y-53308D01*
X69618Y-53160D01*
X69698Y-52967D01*
X69698Y-52758D01*
X69619Y-52564D01*
X69471Y-52416D01*
X69339Y-52362D01*
X69470Y-52308D01*
X69618Y-52160D01*
X69698Y-51967D01*
X69698Y-51758D01*
X69619Y-51564D01*
X69471Y-51416D01*
X69339Y-51362D01*
X69470Y-51308D01*
X69618Y-51160D01*
X69698Y-50967D01*
X69698Y-50758D01*
X69619Y-50564D01*
X69471Y-50416D01*
X69339Y-50362D01*
X69470Y-50308D01*
X69618Y-50160D01*
X69698Y-49967D01*
X69698Y-49758D01*
X69619Y-49564D01*
X69471Y-49416D01*
X69401Y-49387D01*
X69498Y-49387D01*
X69590Y-49349D01*
X69660Y-49279D01*
X69698Y-49187D01*
X69698Y-49088D01*
X69698Y-48812D01*
X69698Y-48758D01*
X69698Y-48758D01*
X69698Y-48537D01*
X69660Y-48445D01*
X69590Y-48374D01*
X69498Y-48336D01*
X69399Y-48336D01*
X69123Y-48336D01*
X69069Y-48336D01*
X69069Y-48336D01*
X68848Y-48336D01*
X68756Y-48374D01*
X68685Y-48444D01*
X68647Y-48536D01*
X68647Y-48636D01*
X68647Y-48911D01*
X68647Y-48950D01*
X64663Y-52935D01*
X64618Y-53002D01*
X64619Y-52999D01*
X64619Y-52900D01*
X64619Y-52550D01*
X64581Y-52458D01*
X64511Y-52387D01*
X64489Y-52378D01*
X64542Y-52326D01*
X64580Y-52234D01*
X64580Y-52134D01*
X64580Y-51662D01*
X64542Y-51571D01*
X64472Y-51500D01*
X64380Y-51462D01*
X64280Y-51462D01*
X63808Y-51462D01*
X63717Y-51500D01*
X63646Y-51570D01*
X63608Y-51662D01*
X63608Y-51761D01*
X63608Y-52233D01*
X63646Y-52325D01*
X63699Y-52378D01*
X63678Y-52387D01*
X63607Y-52457D01*
X63569Y-52549D01*
X63569Y-52649D01*
X63569Y-52999D01*
X63607Y-53091D01*
X63665Y-53149D01*
X63607Y-53207D01*
X63569Y-53299D01*
X63569Y-53399D01*
X63569Y-53749D01*
X63607Y-53841D01*
X63677Y-53911D01*
X63769Y-53949D01*
X63785Y-53949D01*
X63785Y-54055D01*
X63808Y-54173D01*
X63875Y-54273D01*
X64179Y-54576D01*
X64179Y-56616D01*
X64143Y-56601D01*
X64044Y-56601D01*
X63494Y-56601D01*
X63402Y-56639D01*
X63379Y-56662D01*
X63379Y-50797D01*
X65411Y-48765D01*
X65478Y-48665D01*
X65478Y-48665D01*
X65501Y-48547D01*
X65501Y-47599D01*
X65638Y-47463D01*
X65718Y-47270D01*
X65718Y-47061D01*
X65638Y-46868D01*
X65491Y-46720D01*
X65297Y-46639D01*
X65088Y-46639D01*
X64895Y-46719D01*
X64747Y-46867D01*
X64692Y-46999D01*
X64638Y-46868D01*
X64491Y-46720D01*
X64297Y-46639D01*
X64088Y-46639D01*
X63895Y-46719D01*
X63747Y-46867D01*
X63692Y-46999D01*
X63638Y-46868D01*
X63491Y-46720D01*
X63297Y-46639D01*
X63088Y-46639D01*
X62895Y-46719D01*
X62747Y-46867D01*
X62692Y-46999D01*
X62638Y-46868D01*
X62491Y-46720D01*
X62297Y-46639D01*
X62088Y-46639D01*
X61895Y-46719D01*
X61747Y-46867D01*
X61692Y-46999D01*
X61638Y-46868D01*
X61491Y-46720D01*
X61297Y-46639D01*
X61088Y-46639D01*
X60895Y-46719D01*
X60747Y-46867D01*
X60692Y-46999D01*
X60638Y-46868D01*
X60491Y-46720D01*
X60297Y-46639D01*
X60088Y-46639D01*
X59895Y-46719D01*
X59747Y-46867D01*
X59692Y-46999D01*
X59638Y-46868D01*
X59491Y-46720D01*
X59297Y-46639D01*
X59088Y-46639D01*
X58895Y-46719D01*
X58747Y-46867D01*
X58718Y-46937D01*
X58718Y-46840D01*
X58680Y-46748D01*
X58610Y-46677D01*
X58518Y-46639D01*
X58418Y-46639D01*
X58143Y-46639D01*
X58088Y-46639D01*
X58088Y-46639D01*
X57867Y-46639D01*
X57775Y-46677D01*
X57705Y-46747D01*
X57667Y-46839D01*
X57667Y-46939D01*
X57667Y-47214D01*
X57667Y-47269D01*
X57667Y-47269D01*
X57667Y-47490D01*
X57705Y-47582D01*
X57775Y-47652D01*
X57867Y-47690D01*
X57966Y-47690D01*
X58242Y-47690D01*
X58281Y-47691D01*
X58982Y-48391D01*
X58982Y-51446D01*
X58171Y-50635D01*
X58171Y-50182D01*
X58133Y-50090D01*
X58063Y-50020D01*
X57971Y-49982D01*
X57970Y-49982D01*
X58104Y-49848D01*
X58190Y-49640D01*
X58191Y-49415D01*
X58105Y-49207D01*
X57946Y-49048D01*
X57895Y-49027D01*
X57945Y-49006D01*
X58104Y-48848D01*
X58190Y-48640D01*
X58191Y-48415D01*
X58105Y-48207D01*
X57946Y-48048D01*
X57738Y-47962D01*
X57514Y-47962D01*
X57306Y-48048D01*
X57147Y-48207D01*
X57061Y-48414D01*
X57060Y-48639D01*
X57065Y-48650D01*
X56907Y-48809D01*
X56840Y-48909D01*
X56822Y-48997D01*
X56738Y-48962D01*
X56514Y-48962D01*
X56306Y-49048D01*
X56147Y-49207D01*
X56064Y-49405D01*
X56064Y-47599D01*
X56201Y-47463D01*
X56281Y-47270D01*
X56281Y-47061D01*
X56201Y-46868D01*
X56054Y-46720D01*
X55860Y-46639D01*
X55651Y-46639D01*
X55458Y-46719D01*
X55310Y-46867D01*
X55255Y-46999D01*
X55201Y-46868D01*
X55054Y-46720D01*
X54860Y-46639D01*
X54651Y-46639D01*
X54458Y-46719D01*
X54310Y-46867D01*
X54255Y-46999D01*
X54201Y-46868D01*
X54054Y-46720D01*
X53860Y-46639D01*
X53651Y-46639D01*
X53458Y-46719D01*
X53310Y-46867D01*
X53255Y-46999D01*
X53201Y-46868D01*
X53054Y-46720D01*
X52860Y-46639D01*
X52651Y-46639D01*
X52458Y-46719D01*
X52310Y-46867D01*
X52255Y-46999D01*
X52201Y-46868D01*
X52054Y-46720D01*
X51860Y-46639D01*
X51651Y-46639D01*
X51458Y-46719D01*
X51310Y-46867D01*
X51255Y-46999D01*
X51201Y-46868D01*
X51054Y-46720D01*
X50860Y-46639D01*
X50651Y-46639D01*
X50458Y-46719D01*
X50310Y-46867D01*
X50281Y-46937D01*
X50281Y-46840D01*
X50243Y-46748D01*
X50173Y-46677D01*
X50081Y-46639D01*
X49981Y-46639D01*
X49706Y-46639D01*
X49651Y-46639D01*
X49651Y-46639D01*
X49430Y-46639D01*
X49338Y-46677D01*
X49268Y-46747D01*
X49230Y-46839D01*
X49230Y-46939D01*
X49230Y-47214D01*
X49230Y-47269D01*
X49230Y-47269D01*
X49230Y-47490D01*
X49268Y-47582D01*
X49338Y-47652D01*
X49430Y-47690D01*
X49529Y-47690D01*
X49805Y-47690D01*
X49844Y-47691D01*
X51895Y-49742D01*
X51895Y-56653D01*
X51919Y-56771D01*
X51986Y-56872D01*
X53230Y-58116D01*
X53149Y-58116D01*
X52244Y-58116D01*
X52244Y-58116D01*
X52220Y-58120D01*
X52125Y-58139D01*
X52025Y-58206D01*
X52025Y-58206D01*
X51592Y-58639D01*
X51525Y-58739D01*
X51501Y-58858D01*
X51501Y-61210D01*
X51368Y-61344D01*
X51368Y-58285D01*
X51368Y-55285D01*
X51368Y-53167D01*
X51368Y-50167D01*
X51288Y-49974D01*
X51140Y-49826D01*
X50947Y-49746D01*
X50738Y-49745D01*
X50545Y-49825D01*
X50397Y-49973D01*
X50317Y-50166D01*
X50316Y-50375D01*
X50396Y-50568D01*
X50544Y-50716D01*
X50737Y-50797D01*
X50946Y-50797D01*
X51139Y-50717D01*
X51287Y-50569D01*
X51368Y-50376D01*
X51368Y-50167D01*
X51368Y-53167D01*
X51288Y-52974D01*
X51140Y-52826D01*
X50947Y-52746D01*
X50738Y-52745D01*
X50545Y-52825D01*
X50397Y-52973D01*
X50317Y-53166D01*
X50316Y-53375D01*
X50396Y-53568D01*
X50544Y-53716D01*
X50737Y-53797D01*
X50946Y-53797D01*
X51139Y-53717D01*
X51287Y-53569D01*
X51368Y-53376D01*
X51368Y-53167D01*
X51368Y-55285D01*
X51288Y-55092D01*
X51140Y-54944D01*
X50947Y-54864D01*
X50738Y-54864D01*
X50545Y-54943D01*
X50397Y-55091D01*
X50317Y-55284D01*
X50316Y-55493D01*
X50396Y-55687D01*
X50544Y-55835D01*
X50737Y-55915D01*
X50946Y-55915D01*
X51139Y-55835D01*
X51287Y-55687D01*
X51368Y-55494D01*
X51368Y-55285D01*
X51368Y-58285D01*
X51288Y-58092D01*
X51140Y-57944D01*
X50947Y-57864D01*
X50738Y-57864D01*
X50545Y-57943D01*
X50397Y-58091D01*
X50317Y-58284D01*
X50316Y-58493D01*
X50396Y-58687D01*
X50544Y-58835D01*
X50737Y-58915D01*
X50946Y-58915D01*
X51139Y-58835D01*
X51287Y-58687D01*
X51368Y-58494D01*
X51368Y-58285D01*
X51368Y-61344D01*
X49935Y-62777D01*
X49935Y-54226D01*
X49935Y-54226D01*
X49935Y-54005D01*
X49897Y-53913D01*
X49826Y-53843D01*
X49734Y-53805D01*
X49635Y-53805D01*
X49360Y-53805D01*
X49305Y-53805D01*
X49305Y-53805D01*
X49084Y-53805D01*
X48992Y-53843D01*
X48922Y-53913D01*
X48899Y-53967D01*
X48899Y-48045D01*
X48819Y-47852D01*
X48672Y-47704D01*
X48559Y-47657D01*
X48671Y-47611D01*
X48819Y-47463D01*
X48899Y-47270D01*
X48899Y-47061D01*
X48819Y-46868D01*
X48672Y-46720D01*
X48479Y-46639D01*
X48269Y-46639D01*
X48076Y-46719D01*
X47928Y-46867D01*
X47848Y-47060D01*
X47848Y-47269D01*
X47928Y-47462D01*
X48075Y-47610D01*
X48188Y-47657D01*
X48076Y-47703D01*
X47928Y-47851D01*
X47848Y-48044D01*
X47848Y-48253D01*
X47928Y-48446D01*
X48075Y-48594D01*
X48269Y-48675D01*
X48478Y-48675D01*
X48671Y-48595D01*
X48819Y-48447D01*
X48899Y-48254D01*
X48899Y-48045D01*
X48899Y-53967D01*
X48883Y-54005D01*
X48883Y-54104D01*
X48883Y-54380D01*
X48883Y-54434D01*
X48883Y-54434D01*
X48883Y-54655D01*
X48921Y-54747D01*
X48992Y-54818D01*
X49083Y-54856D01*
X49183Y-54856D01*
X49458Y-54856D01*
X49513Y-54856D01*
X49513Y-54856D01*
X49734Y-54856D01*
X49826Y-54818D01*
X49896Y-54748D01*
X49934Y-54656D01*
X49935Y-54556D01*
X49935Y-54281D01*
X49935Y-54226D01*
X49935Y-62777D01*
X49820Y-62891D01*
X47824Y-62891D01*
X47824Y-62836D01*
X47786Y-62744D01*
X47716Y-62674D01*
X47624Y-62635D01*
X47525Y-62635D01*
X46895Y-62635D01*
X46803Y-62673D01*
X46733Y-62744D01*
X46694Y-62835D01*
X46694Y-62836D01*
X46580Y-62722D01*
X46372Y-62635D01*
X46147Y-62635D01*
X45940Y-62721D01*
X45781Y-62880D01*
X45759Y-62931D01*
X45739Y-62881D01*
X45580Y-62722D01*
X45372Y-62635D01*
X45147Y-62635D01*
X44940Y-62721D01*
X44781Y-62880D01*
X44694Y-63087D01*
X44694Y-63312D01*
X44727Y-63391D01*
X43866Y-63391D01*
X43914Y-63343D01*
X43952Y-63251D01*
X43952Y-63152D01*
X43952Y-62601D01*
X43914Y-62509D01*
X43893Y-62488D01*
X43893Y-62159D01*
X44339Y-62159D01*
X44375Y-62195D01*
X44524Y-62257D01*
X44686Y-62257D01*
X44836Y-62196D01*
X44951Y-62081D01*
X45013Y-61931D01*
X45013Y-61769D01*
X44951Y-61619D01*
X44837Y-61505D01*
X44726Y-61458D01*
X44771Y-61413D01*
X44838Y-61313D01*
X44838Y-61313D01*
X44862Y-61194D01*
X44862Y-60896D01*
X44885Y-60906D01*
X44984Y-60906D01*
X45220Y-60906D01*
X45303Y-60872D01*
X45385Y-60906D01*
X45484Y-60906D01*
X45720Y-60906D01*
X45812Y-60868D01*
X45882Y-60798D01*
X45921Y-60706D01*
X45921Y-60689D01*
X46007Y-60689D01*
X46039Y-60722D01*
X46064Y-60732D01*
X46009Y-60863D01*
X46009Y-61025D01*
X46071Y-61175D01*
X46186Y-61290D01*
X46335Y-61352D01*
X46498Y-61352D01*
X46647Y-61290D01*
X46762Y-61176D01*
X46824Y-61026D01*
X46824Y-60864D01*
X46781Y-60760D01*
X46873Y-60722D01*
X46943Y-60652D01*
X46981Y-60560D01*
X46981Y-60461D01*
X46981Y-60111D01*
X46943Y-60019D01*
X46873Y-59948D01*
X46781Y-59910D01*
X46682Y-59910D01*
X46132Y-59910D01*
X46040Y-59948D01*
X45969Y-60018D01*
X45947Y-60071D01*
X45921Y-60071D01*
X45921Y-60055D01*
X45883Y-59963D01*
X45812Y-59893D01*
X45721Y-59855D01*
X45621Y-59855D01*
X45393Y-59855D01*
X45446Y-59727D01*
X45446Y-59564D01*
X45385Y-59415D01*
X45270Y-59300D01*
X45120Y-59238D01*
X44958Y-59238D01*
X44808Y-59300D01*
X44794Y-59314D01*
X44757Y-59225D01*
X44757Y-58907D01*
X44771Y-58893D01*
X44771Y-58893D01*
X44771Y-58893D01*
X44838Y-58793D01*
X44838Y-58793D01*
X44839Y-58787D01*
X44885Y-58806D01*
X44984Y-58806D01*
X45220Y-58806D01*
X45303Y-58772D01*
X45385Y-58806D01*
X45484Y-58806D01*
X45720Y-58806D01*
X45812Y-58768D01*
X45882Y-58698D01*
X45906Y-58640D01*
X46020Y-58688D01*
X46046Y-58688D01*
X46573Y-59215D01*
X46573Y-59215D01*
X46674Y-59282D01*
X46674Y-59282D01*
X46707Y-59289D01*
X46717Y-59313D01*
X46787Y-59383D01*
X46879Y-59422D01*
X46979Y-59422D01*
X47529Y-59422D01*
X47621Y-59384D01*
X47691Y-59313D01*
X47729Y-59221D01*
X47729Y-59122D01*
X47729Y-58772D01*
X47691Y-58680D01*
X47633Y-58622D01*
X47691Y-58563D01*
X47729Y-58471D01*
X47729Y-58372D01*
X47729Y-58022D01*
X47691Y-57930D01*
X47654Y-57893D01*
X47691Y-57857D01*
X47729Y-57765D01*
X47729Y-57665D01*
X47729Y-57315D01*
X47691Y-57223D01*
X47633Y-57165D01*
X47691Y-57107D01*
X47729Y-57015D01*
X47729Y-56915D01*
X47729Y-56565D01*
X47691Y-56473D01*
X47661Y-56443D01*
X47719Y-56385D01*
X47757Y-56293D01*
X47757Y-56194D01*
X47757Y-55749D01*
X47803Y-55860D01*
X47840Y-55897D01*
X47840Y-58787D01*
X47804Y-58823D01*
X47742Y-58973D01*
X47742Y-59135D01*
X47803Y-59285D01*
X47918Y-59400D01*
X48068Y-59462D01*
X48230Y-59462D01*
X48380Y-59400D01*
X48494Y-59286D01*
X48557Y-59136D01*
X48557Y-58974D01*
X48495Y-58824D01*
X48458Y-58787D01*
X48458Y-55897D01*
X48494Y-55861D01*
X48557Y-55711D01*
X48557Y-55549D01*
X48495Y-55399D01*
X48458Y-55362D01*
X48458Y-52362D01*
X48458Y-50984D01*
X48458Y-50984D01*
X48458Y-50984D01*
X48453Y-50960D01*
X48435Y-50865D01*
X48435Y-50865D01*
X48368Y-50765D01*
X48368Y-50765D01*
X48289Y-50686D01*
X48189Y-50619D01*
X48070Y-50596D01*
X47807Y-50596D01*
X47807Y-50581D01*
X47769Y-50489D01*
X47699Y-50418D01*
X47607Y-50380D01*
X47508Y-50380D01*
X47158Y-50380D01*
X47066Y-50418D01*
X47007Y-50476D01*
X46949Y-50418D01*
X46857Y-50380D01*
X46809Y-50380D01*
X46920Y-50270D01*
X46982Y-50120D01*
X46982Y-49958D01*
X46920Y-49808D01*
X46805Y-49694D01*
X46656Y-49631D01*
X46494Y-49631D01*
X46388Y-49675D01*
X46343Y-49630D01*
X46251Y-49592D01*
X46152Y-49592D01*
X45837Y-49592D01*
X45745Y-49630D01*
X45674Y-49700D01*
X45669Y-49714D01*
X45663Y-49701D01*
X45593Y-49630D01*
X45525Y-49602D01*
X45525Y-47550D01*
X45338Y-47097D01*
X44991Y-46749D01*
X44537Y-46561D01*
X44046Y-46560D01*
X43593Y-46748D01*
X43245Y-47095D01*
X43057Y-47548D01*
X43056Y-48039D01*
X43244Y-48493D01*
X43591Y-48841D01*
X44044Y-49029D01*
X44535Y-49029D01*
X44989Y-48842D01*
X45337Y-48495D01*
X45525Y-48041D01*
X45525Y-47550D01*
X45525Y-49602D01*
X45501Y-49592D01*
X45402Y-49592D01*
X45087Y-49592D01*
X44995Y-49630D01*
X44937Y-49687D01*
X44853Y-49652D01*
X44753Y-49652D01*
X44359Y-49652D01*
X44267Y-49690D01*
X44197Y-49760D01*
X44187Y-49785D01*
X44187Y-49478D01*
X44149Y-49386D01*
X44079Y-49315D01*
X43987Y-49277D01*
X43887Y-49277D01*
X43493Y-49277D01*
X43401Y-49315D01*
X43341Y-49375D01*
X43149Y-49375D01*
X43149Y-49375D01*
X43126Y-49380D01*
X43031Y-49399D01*
X42931Y-49466D01*
X42931Y-49466D01*
X42715Y-49682D01*
X42648Y-49782D01*
X42632Y-49860D01*
X42617Y-49867D01*
X42559Y-49925D01*
X42500Y-49867D01*
X42409Y-49829D01*
X42309Y-49829D01*
X41959Y-49829D01*
X41867Y-49867D01*
X41797Y-49937D01*
X41759Y-50029D01*
X41759Y-50045D01*
X41694Y-50045D01*
X41694Y-50029D01*
X41656Y-49937D01*
X41586Y-49866D01*
X41494Y-49828D01*
X41490Y-49828D01*
X41490Y-49737D01*
X41505Y-49737D01*
X41597Y-49699D01*
X41667Y-49628D01*
X41706Y-49536D01*
X41706Y-49437D01*
X41706Y-49087D01*
X41668Y-48995D01*
X41609Y-48936D01*
X41667Y-48878D01*
X41706Y-48786D01*
X41706Y-48687D01*
X41706Y-48337D01*
X41668Y-48245D01*
X41597Y-48175D01*
X41506Y-48137D01*
X41490Y-48137D01*
X41490Y-47993D01*
X41626Y-47857D01*
X41706Y-47664D01*
X41706Y-47454D01*
X41626Y-47261D01*
X41479Y-47113D01*
X41286Y-47033D01*
X41077Y-47033D01*
X40883Y-47113D01*
X40735Y-47260D01*
X40706Y-47330D01*
X40706Y-47233D01*
X40668Y-47142D01*
X40598Y-47071D01*
X40506Y-47033D01*
X40407Y-47033D01*
X40131Y-47033D01*
X40077Y-47033D01*
X40076Y-47033D01*
X39856Y-47033D01*
X39764Y-47071D01*
X39693Y-47141D01*
X39655Y-47233D01*
X39655Y-47332D01*
X39655Y-47608D01*
X39655Y-47663D01*
X39655Y-47663D01*
X39655Y-47884D01*
X39693Y-47976D01*
X39763Y-48046D01*
X39855Y-48084D01*
X39872Y-48084D01*
X39872Y-48136D01*
X39832Y-48136D01*
X39741Y-48174D01*
X39670Y-48245D01*
X39632Y-48337D01*
X39632Y-48436D01*
X39632Y-48786D01*
X39670Y-48878D01*
X39728Y-48937D01*
X39670Y-48995D01*
X39632Y-49087D01*
X39632Y-49186D01*
X39632Y-49536D01*
X39670Y-49628D01*
X39740Y-49698D01*
X39832Y-49736D01*
X39848Y-49736D01*
X39848Y-49931D01*
X39723Y-50056D01*
X39643Y-50249D01*
X39643Y-50458D01*
X39723Y-50651D01*
X39871Y-50799D01*
X40064Y-50879D01*
X40273Y-50880D01*
X40466Y-50800D01*
X40614Y-50652D01*
X40643Y-50582D01*
X40643Y-50679D01*
X40681Y-50771D01*
X40751Y-50841D01*
X40843Y-50879D01*
X40943Y-50879D01*
X41218Y-50879D01*
X41273Y-50880D01*
X41273Y-50879D01*
X41494Y-50879D01*
X41586Y-50841D01*
X41656Y-50771D01*
X41694Y-50679D01*
X41694Y-50663D01*
X41759Y-50663D01*
X41759Y-50678D01*
X41796Y-50770D01*
X41867Y-50841D01*
X41959Y-50879D01*
X42058Y-50879D01*
X42408Y-50879D01*
X42500Y-50841D01*
X42559Y-50782D01*
X42617Y-50841D01*
X42625Y-50844D01*
X42625Y-51123D01*
X42648Y-51241D01*
X42715Y-51341D01*
X42891Y-51517D01*
X42891Y-51517D01*
X42991Y-51584D01*
X42991Y-51584D01*
X43110Y-51608D01*
X43136Y-51608D01*
X43136Y-51623D01*
X43174Y-51715D01*
X43245Y-51786D01*
X43337Y-51824D01*
X43436Y-51824D01*
X43786Y-51824D01*
X43878Y-51786D01*
X43937Y-51727D01*
X43995Y-51786D01*
X44087Y-51824D01*
X44186Y-51824D01*
X44536Y-51824D01*
X44620Y-51789D01*
X44769Y-51939D01*
X44769Y-52194D01*
X44413Y-52551D01*
X44007Y-52551D01*
X43986Y-52530D01*
X43895Y-52492D01*
X43795Y-52492D01*
X43244Y-52492D01*
X43152Y-52530D01*
X43082Y-52600D01*
X43044Y-52692D01*
X43044Y-52791D01*
X43044Y-53027D01*
X43078Y-53110D01*
X43044Y-53192D01*
X43044Y-53291D01*
X43044Y-53527D01*
X43078Y-53610D01*
X43044Y-53692D01*
X43044Y-53791D01*
X43044Y-54027D01*
X43057Y-54061D01*
X42687Y-54061D01*
X42391Y-53765D01*
X42474Y-53731D01*
X42589Y-53616D01*
X42651Y-53467D01*
X42651Y-53305D01*
X42589Y-53155D01*
X42475Y-53040D01*
X42325Y-52978D01*
X42163Y-52978D01*
X42013Y-53040D01*
X42002Y-53051D01*
X41985Y-53051D01*
X41995Y-53028D01*
X41995Y-52928D01*
X41995Y-52692D01*
X41961Y-52610D01*
X41995Y-52528D01*
X41995Y-52428D01*
X41995Y-52192D01*
X41957Y-52100D01*
X41886Y-52030D01*
X41795Y-51992D01*
X41695Y-51992D01*
X41144Y-51992D01*
X41052Y-52030D01*
X40982Y-52100D01*
X40974Y-52118D01*
X40928Y-52072D01*
X40836Y-52034D01*
X40820Y-52034D01*
X40820Y-51891D01*
X40877Y-51834D01*
X40916Y-51742D01*
X40916Y-51642D01*
X40916Y-51092D01*
X40878Y-51000D01*
X40807Y-50930D01*
X40716Y-50892D01*
X40616Y-50892D01*
X40266Y-50892D01*
X40174Y-50930D01*
X40104Y-51000D01*
X40066Y-51092D01*
X40066Y-51191D01*
X40066Y-51741D01*
X40104Y-51833D01*
X40174Y-51904D01*
X40202Y-51915D01*
X40202Y-52034D01*
X40187Y-52034D01*
X40095Y-52072D01*
X40024Y-52142D01*
X39986Y-52234D01*
X39986Y-52334D01*
X39986Y-52684D01*
X40024Y-52776D01*
X40083Y-52834D01*
X40024Y-52892D01*
X39986Y-52984D01*
X39986Y-53084D01*
X39986Y-53434D01*
X40024Y-53526D01*
X40095Y-53596D01*
X40186Y-53634D01*
X40202Y-53634D01*
X40202Y-53767D01*
X40166Y-53803D01*
X40104Y-53953D01*
X40104Y-54115D01*
X40166Y-54264D01*
X40202Y-54301D01*
X40202Y-54330D01*
X40226Y-54448D01*
X40293Y-54549D01*
X40883Y-55139D01*
X40971Y-55198D01*
X40971Y-55245D01*
X41009Y-55337D01*
X41079Y-55408D01*
X41171Y-55446D01*
X41271Y-55446D01*
X41621Y-55446D01*
X41713Y-55408D01*
X41771Y-55349D01*
X41829Y-55408D01*
X41921Y-55446D01*
X42021Y-55446D01*
X42371Y-55446D01*
X42463Y-55408D01*
X42533Y-55338D01*
X42559Y-55276D01*
X42584Y-55337D01*
X42600Y-55354D01*
X42584Y-55370D01*
X42546Y-55462D01*
X42546Y-55561D01*
X42546Y-56100D01*
X42210Y-56100D01*
X42118Y-56138D01*
X42048Y-56208D01*
X42010Y-56300D01*
X42010Y-56399D01*
X42010Y-56895D01*
X41859Y-56895D01*
X41846Y-56866D01*
X41786Y-56805D01*
X41786Y-56475D01*
X41795Y-56471D01*
X41865Y-56401D01*
X41903Y-56309D01*
X41903Y-56210D01*
X41903Y-55895D01*
X41865Y-55803D01*
X41795Y-55733D01*
X41703Y-55694D01*
X41604Y-55694D01*
X41210Y-55694D01*
X41118Y-55732D01*
X41047Y-55803D01*
X41009Y-55894D01*
X41009Y-55994D01*
X41009Y-56202D01*
X40999Y-56178D01*
X40929Y-56108D01*
X40837Y-56069D01*
X40738Y-56069D01*
X40344Y-56069D01*
X40252Y-56107D01*
X40181Y-56178D01*
X40143Y-56269D01*
X40143Y-56369D01*
X40143Y-56684D01*
X40181Y-56776D01*
X40251Y-56846D01*
X40343Y-56884D01*
X40350Y-56884D01*
X40319Y-56957D01*
X40319Y-57057D01*
X40319Y-57451D01*
X40357Y-57543D01*
X40428Y-57613D01*
X40519Y-57651D01*
X40619Y-57651D01*
X40827Y-57651D01*
X40803Y-57661D01*
X40733Y-57731D01*
X40720Y-57761D01*
X39970Y-57761D01*
X39923Y-57742D01*
X39761Y-57742D01*
X39679Y-57776D01*
X39679Y-57668D01*
X39715Y-57632D01*
X39777Y-57482D01*
X39777Y-57320D01*
X39715Y-57171D01*
X39601Y-57056D01*
X39451Y-56994D01*
X39289Y-56994D01*
X39206Y-57028D01*
X39206Y-46490D01*
X67137Y-46490D01*
X66703Y-46669D01*
X66355Y-47016D01*
X66167Y-47469D01*
X66167Y-47960D01*
X66354Y-48414D01*
X66701Y-48762D01*
X67154Y-48950D01*
X67646Y-48951D01*
X68099Y-48763D01*
X68447Y-48416D01*
X68635Y-47963D01*
X68636Y-47472D01*
X68448Y-47018D01*
X68101Y-46670D01*
X67666Y-46490D01*
X70163Y-46490D01*
X70163Y-62068D01*
X70151Y-62038D01*
X69931Y-61818D01*
X69644Y-61699D01*
X69333Y-61698D01*
X69265Y-61726D01*
X69265Y-59730D01*
X69168Y-59494D01*
X68987Y-59312D01*
X68750Y-59214D01*
X68494Y-59214D01*
X68257Y-59312D01*
X68076Y-59493D01*
X67978Y-59729D01*
X67978Y-59985D01*
X68076Y-60222D01*
X68256Y-60403D01*
X68493Y-60501D01*
X68749Y-60502D01*
X68986Y-60404D01*
X69167Y-60223D01*
X69265Y-59986D01*
X69265Y-59730D01*
X69265Y-61726D01*
X69046Y-61817D01*
X68826Y-62037D01*
X68706Y-62324D01*
X68706Y-62635D01*
X68825Y-62922D01*
X69044Y-63142D01*
X69332Y-63261D01*
X69642Y-63262D01*
X69930Y-63143D01*
X70150Y-62923D01*
X70163Y-62892D01*
X70163Y-66792D01*
X70163Y-66792D01*
G37*
G54D36*
X70163Y-66792D02*
X70151Y-66762D01*
X69931Y-66542D01*
X69644Y-66423D01*
X69333Y-66422D01*
X69046Y-66541D01*
X68826Y-66761D01*
X68706Y-67048D01*
X68706Y-67359D01*
X68825Y-67646D01*
X68979Y-67801D01*
X41838Y-67801D01*
X42273Y-67621D01*
X42620Y-67274D01*
X42808Y-66821D01*
X42809Y-66330D01*
X42621Y-65876D01*
X42284Y-65538D01*
X42334Y-65517D01*
X42416Y-65551D01*
X42516Y-65551D01*
X42678Y-65551D01*
X42663Y-65587D01*
X42663Y-65749D01*
X42725Y-65899D01*
X42839Y-66014D01*
X42989Y-66076D01*
X43151Y-66076D01*
X43301Y-66014D01*
X43416Y-65900D01*
X43478Y-65750D01*
X43478Y-65588D01*
X43463Y-65551D01*
X43516Y-65551D01*
X43752Y-65551D01*
X43844Y-65513D01*
X43914Y-65443D01*
X43939Y-65382D01*
X43942Y-65384D01*
X44091Y-65446D01*
X44253Y-65446D01*
X44403Y-65385D01*
X44518Y-65270D01*
X44580Y-65120D01*
X44580Y-65045D01*
X44645Y-65088D01*
X44645Y-65088D01*
X44763Y-65112D01*
X45769Y-65112D01*
X44320Y-66561D01*
X44128Y-66560D01*
X43934Y-66640D01*
X43786Y-66788D01*
X43706Y-66981D01*
X43706Y-67190D01*
X43786Y-67383D01*
X43934Y-67531D01*
X44127Y-67612D01*
X44336Y-67612D01*
X44529Y-67532D01*
X44677Y-67384D01*
X44732Y-67252D01*
X44786Y-67383D01*
X44934Y-67531D01*
X45127Y-67612D01*
X45336Y-67612D01*
X45529Y-67532D01*
X45677Y-67384D01*
X45732Y-67252D01*
X45786Y-67383D01*
X45934Y-67531D01*
X46127Y-67612D01*
X46336Y-67612D01*
X46529Y-67532D01*
X46677Y-67384D01*
X46732Y-67252D01*
X46786Y-67383D01*
X46934Y-67531D01*
X47127Y-67612D01*
X47336Y-67612D01*
X47529Y-67532D01*
X47677Y-67384D01*
X47732Y-67252D01*
X47786Y-67383D01*
X47934Y-67531D01*
X48127Y-67612D01*
X48336Y-67612D01*
X48529Y-67532D01*
X48677Y-67384D01*
X48707Y-67313D01*
X48707Y-67411D01*
X48745Y-67503D01*
X48815Y-67573D01*
X48907Y-67611D01*
X49006Y-67611D01*
X49126Y-67611D01*
X49127Y-67612D01*
X49336Y-67612D01*
X49337Y-67611D01*
X49556Y-67611D01*
X49648Y-67573D01*
X49719Y-67503D01*
X49757Y-67411D01*
X49757Y-67323D01*
X49785Y-67305D01*
X50242Y-66848D01*
X50187Y-66981D01*
X50186Y-67190D01*
X50266Y-67383D01*
X50414Y-67531D01*
X50607Y-67612D01*
X50816Y-67612D01*
X51009Y-67532D01*
X51157Y-67384D01*
X51212Y-67252D01*
X51266Y-67383D01*
X51414Y-67531D01*
X51607Y-67612D01*
X51816Y-67612D01*
X52009Y-67532D01*
X52157Y-67384D01*
X52212Y-67252D01*
X52266Y-67383D01*
X52414Y-67531D01*
X52607Y-67612D01*
X52816Y-67612D01*
X53009Y-67532D01*
X53157Y-67384D01*
X53212Y-67252D01*
X53266Y-67383D01*
X53414Y-67531D01*
X53607Y-67612D01*
X53816Y-67612D01*
X54009Y-67532D01*
X54157Y-67384D01*
X54212Y-67252D01*
X54266Y-67383D01*
X54414Y-67531D01*
X54607Y-67612D01*
X54816Y-67612D01*
X55009Y-67532D01*
X55157Y-67384D01*
X55212Y-67252D01*
X55266Y-67383D01*
X55414Y-67531D01*
X55607Y-67612D01*
X55816Y-67612D01*
X56009Y-67532D01*
X56157Y-67384D01*
X56212Y-67252D01*
X56266Y-67383D01*
X56414Y-67531D01*
X56607Y-67612D01*
X56816Y-67612D01*
X57009Y-67532D01*
X57157Y-67384D01*
X57186Y-67314D01*
X57186Y-67411D01*
X57224Y-67503D01*
X57295Y-67574D01*
X57387Y-67612D01*
X57486Y-67612D01*
X57762Y-67612D01*
X57816Y-67612D01*
X57816Y-67612D01*
X58037Y-67612D01*
X58129Y-67574D01*
X58200Y-67504D01*
X58238Y-67412D01*
X58238Y-67312D01*
X58238Y-67037D01*
X58238Y-66982D01*
X58238Y-66982D01*
X58238Y-66761D01*
X58200Y-66669D01*
X58129Y-66599D01*
X58038Y-66561D01*
X58021Y-66561D01*
X58021Y-65643D01*
X58564Y-65100D01*
X58564Y-65100D01*
X58564Y-65100D01*
X58631Y-65000D01*
X58631Y-65000D01*
X58650Y-64905D01*
X58655Y-64881D01*
X58655Y-64881D01*
X58655Y-64881D01*
X58655Y-64454D01*
X58656Y-64452D01*
X58661Y-64441D01*
X58665Y-64452D01*
X58667Y-64453D01*
X58667Y-64685D01*
X58690Y-64803D01*
X58757Y-64903D01*
X58976Y-65122D01*
X58964Y-65134D01*
X58926Y-65226D01*
X58926Y-65325D01*
X58926Y-65875D01*
X58964Y-65967D01*
X59034Y-66037D01*
X59042Y-66041D01*
X59042Y-66090D01*
X59024Y-66107D01*
X58962Y-66257D01*
X58962Y-66419D01*
X59024Y-66569D01*
X59138Y-66683D01*
X59288Y-66745D01*
X59450Y-66746D01*
X59600Y-66684D01*
X59715Y-66569D01*
X59777Y-66419D01*
X59777Y-66257D01*
X59715Y-66108D01*
X59660Y-66052D01*
X59660Y-66041D01*
X59667Y-66038D01*
X59738Y-65967D01*
X59776Y-65876D01*
X59776Y-65776D01*
X59776Y-65528D01*
X60301Y-66053D01*
X60301Y-66560D01*
X60285Y-66560D01*
X60193Y-66598D01*
X60122Y-66669D01*
X60084Y-66761D01*
X60084Y-66860D01*
X60084Y-67136D01*
X60084Y-67190D01*
X60084Y-67190D01*
X60084Y-67411D01*
X60122Y-67503D01*
X60192Y-67574D01*
X60284Y-67612D01*
X60384Y-67612D01*
X60659Y-67612D01*
X60714Y-67612D01*
X60714Y-67612D01*
X60935Y-67612D01*
X61027Y-67574D01*
X61097Y-67504D01*
X61135Y-67412D01*
X61135Y-67314D01*
X61164Y-67383D01*
X61312Y-67531D01*
X61505Y-67612D01*
X61714Y-67612D01*
X61907Y-67532D01*
X62055Y-67384D01*
X62110Y-67252D01*
X62164Y-67383D01*
X62312Y-67531D01*
X62505Y-67612D01*
X62714Y-67612D01*
X62907Y-67532D01*
X63055Y-67384D01*
X63110Y-67252D01*
X63164Y-67383D01*
X63312Y-67531D01*
X63505Y-67612D01*
X63714Y-67612D01*
X63907Y-67532D01*
X64055Y-67384D01*
X64110Y-67252D01*
X64164Y-67383D01*
X64312Y-67531D01*
X64505Y-67612D01*
X64714Y-67612D01*
X64907Y-67532D01*
X65055Y-67384D01*
X65110Y-67252D01*
X65164Y-67383D01*
X65312Y-67531D01*
X65505Y-67612D01*
X65714Y-67612D01*
X65907Y-67532D01*
X66055Y-67384D01*
X66135Y-67191D01*
X66135Y-66982D01*
X66056Y-66789D01*
X65919Y-66652D01*
X65919Y-66161D01*
X65895Y-66043D01*
X65895Y-66043D01*
X65828Y-65942D01*
X65537Y-65651D01*
X67176Y-65651D01*
X67328Y-65804D01*
X67529Y-65887D01*
X67746Y-65887D01*
X67946Y-65805D01*
X68031Y-65720D01*
X68115Y-65804D01*
X68316Y-65887D01*
X68533Y-65887D01*
X68733Y-65805D01*
X68887Y-65651D01*
X68970Y-65451D01*
X68970Y-65234D01*
X68887Y-65034D01*
X68734Y-64880D01*
X68534Y-64797D01*
X68383Y-64797D01*
X68210Y-64623D01*
X68133Y-64572D01*
X68183Y-64451D01*
X68183Y-64234D01*
X68100Y-64034D01*
X67947Y-63880D01*
X67747Y-63797D01*
X67530Y-63797D01*
X67329Y-63879D01*
X67176Y-64033D01*
X67093Y-64233D01*
X67092Y-64450D01*
X67127Y-64533D01*
X66030Y-64533D01*
X66360Y-64203D01*
X66548Y-63750D01*
X66549Y-63259D01*
X66361Y-62805D01*
X66015Y-62458D01*
X65561Y-62269D01*
X65070Y-62269D01*
X64616Y-62456D01*
X64580Y-62492D01*
X64580Y-62438D01*
X64518Y-62289D01*
X64404Y-62174D01*
X64254Y-62112D01*
X64092Y-62112D01*
X63942Y-62174D01*
X63926Y-62189D01*
X63836Y-62189D01*
X63833Y-62182D01*
X63763Y-62112D01*
X63676Y-62075D01*
X66832Y-58919D01*
X66832Y-58919D01*
X66832Y-58919D01*
X66899Y-58819D01*
X66899Y-58819D01*
X66918Y-58724D01*
X66923Y-58700D01*
X66923Y-58700D01*
X66923Y-58700D01*
X66923Y-56663D01*
X67415Y-56171D01*
X68739Y-56171D01*
X68875Y-56307D01*
X69068Y-56387D01*
X69277Y-56387D01*
X69470Y-56308D01*
X69618Y-56160D01*
X69698Y-55967D01*
X69698Y-55758D01*
X69619Y-55564D01*
X69471Y-55416D01*
X69339Y-55362D01*
X69470Y-55308D01*
X69618Y-55160D01*
X69698Y-54967D01*
X69698Y-54758D01*
X69619Y-54564D01*
X69471Y-54416D01*
X69339Y-54362D01*
X69470Y-54308D01*
X69618Y-54160D01*
X69698Y-53967D01*
X69698Y-53758D01*
X69619Y-53564D01*
X69471Y-53416D01*
X69339Y-53362D01*
X69470Y-53308D01*
X69618Y-53160D01*
X69698Y-52967D01*
X69698Y-52758D01*
X69619Y-52564D01*
X69471Y-52416D01*
X69339Y-52362D01*
X69470Y-52308D01*
X69618Y-52160D01*
X69698Y-51967D01*
X69698Y-51758D01*
X69619Y-51564D01*
X69471Y-51416D01*
X69339Y-51362D01*
X69470Y-51308D01*
X69618Y-51160D01*
X69698Y-50967D01*
X69698Y-50758D01*
X69619Y-50564D01*
X69471Y-50416D01*
X69339Y-50362D01*
X69470Y-50308D01*
X69618Y-50160D01*
X69698Y-49967D01*
X69698Y-49758D01*
X69619Y-49564D01*
X69471Y-49416D01*
X69401Y-49387D01*
X69498Y-49387D01*
X69590Y-49349D01*
X69660Y-49279D01*
X69698Y-49187D01*
X69698Y-49088D01*
X69698Y-48812D01*
X69698Y-48758D01*
X69698Y-48758D01*
X69698Y-48537D01*
X69660Y-48445D01*
X69590Y-48374D01*
X69498Y-48336D01*
X69399Y-48336D01*
X69123Y-48336D01*
X69069Y-48336D01*
X69069Y-48336D01*
X68848Y-48336D01*
X68756Y-48374D01*
X68685Y-48444D01*
X68647Y-48536D01*
X68647Y-48636D01*
X68647Y-48911D01*
X68647Y-48950D01*
X64663Y-52935D01*
X64618Y-53002D01*
X64619Y-52999D01*
X64619Y-52900D01*
X64619Y-52550D01*
X64581Y-52458D01*
X64511Y-52387D01*
X64489Y-52378D01*
X64542Y-52326D01*
X64580Y-52234D01*
X64580Y-52134D01*
X64580Y-51662D01*
X64542Y-51571D01*
X64472Y-51500D01*
X64380Y-51462D01*
X64280Y-51462D01*
X63808Y-51462D01*
X63717Y-51500D01*
X63646Y-51570D01*
X63608Y-51662D01*
X63608Y-51761D01*
X63608Y-52233D01*
X63646Y-52325D01*
X63699Y-52378D01*
X63678Y-52387D01*
X63607Y-52457D01*
X63569Y-52549D01*
X63569Y-52649D01*
X63569Y-52999D01*
X63607Y-53091D01*
X63665Y-53149D01*
X63607Y-53207D01*
X63569Y-53299D01*
X63569Y-53399D01*
X63569Y-53749D01*
X63607Y-53841D01*
X63677Y-53911D01*
X63769Y-53949D01*
X63785Y-53949D01*
X63785Y-54055D01*
X63808Y-54173D01*
X63875Y-54273D01*
X64179Y-54576D01*
X64179Y-56616D01*
X64143Y-56601D01*
X64044Y-56601D01*
X63494Y-56601D01*
X63402Y-56639D01*
X63379Y-56662D01*
X63379Y-50797D01*
X65411Y-48765D01*
X65478Y-48665D01*
X65478Y-48665D01*
X65501Y-48547D01*
X65501Y-47599D01*
X65638Y-47463D01*
X65718Y-47270D01*
X65718Y-47061D01*
X65638Y-46868D01*
X65491Y-46720D01*
X65297Y-46639D01*
X65088Y-46639D01*
X64895Y-46719D01*
X64747Y-46867D01*
X64692Y-46999D01*
X64638Y-46868D01*
X64491Y-46720D01*
X64297Y-46639D01*
X64088Y-46639D01*
X63895Y-46719D01*
X63747Y-46867D01*
X63692Y-46999D01*
X63638Y-46868D01*
X63491Y-46720D01*
X63297Y-46639D01*
X63088Y-46639D01*
X62895Y-46719D01*
X62747Y-46867D01*
X62692Y-46999D01*
X62638Y-46868D01*
X62491Y-46720D01*
X62297Y-46639D01*
X62088Y-46639D01*
X61895Y-46719D01*
X61747Y-46867D01*
X61692Y-46999D01*
X61638Y-46868D01*
X61491Y-46720D01*
X61297Y-46639D01*
X61088Y-46639D01*
X60895Y-46719D01*
X60747Y-46867D01*
X60692Y-46999D01*
X60638Y-46868D01*
X60491Y-46720D01*
X60297Y-46639D01*
X60088Y-46639D01*
X59895Y-46719D01*
X59747Y-46867D01*
X59692Y-46999D01*
X59638Y-46868D01*
X59491Y-46720D01*
X59297Y-46639D01*
X59088Y-46639D01*
X58895Y-46719D01*
X58747Y-46867D01*
X58718Y-46937D01*
X58718Y-46840D01*
X58680Y-46748D01*
X58610Y-46677D01*
X58518Y-46639D01*
X58418Y-46639D01*
X58143Y-46639D01*
X58088Y-46639D01*
X58088Y-46639D01*
X57867Y-46639D01*
X57775Y-46677D01*
X57705Y-46747D01*
X57667Y-46839D01*
X57667Y-46939D01*
X57667Y-47214D01*
X57667Y-47269D01*
X57667Y-47269D01*
X57667Y-47490D01*
X57705Y-47582D01*
X57775Y-47652D01*
X57867Y-47690D01*
X57966Y-47690D01*
X58242Y-47690D01*
X58281Y-47691D01*
X58982Y-48391D01*
X58982Y-51446D01*
X58171Y-50635D01*
X58171Y-50182D01*
X58133Y-50090D01*
X58063Y-50020D01*
X57971Y-49982D01*
X57970Y-49982D01*
X58104Y-49848D01*
X58190Y-49640D01*
X58191Y-49415D01*
X58105Y-49207D01*
X57946Y-49048D01*
X57895Y-49027D01*
X57945Y-49006D01*
X58104Y-48848D01*
X58190Y-48640D01*
X58191Y-48415D01*
X58105Y-48207D01*
X57946Y-48048D01*
X57738Y-47962D01*
X57514Y-47962D01*
X57306Y-48048D01*
X57147Y-48207D01*
X57061Y-48414D01*
X57060Y-48639D01*
X57065Y-48650D01*
X56907Y-48809D01*
X56840Y-48909D01*
X56822Y-48997D01*
X56738Y-48962D01*
X56514Y-48962D01*
X56306Y-49048D01*
X56147Y-49207D01*
X56064Y-49405D01*
X56064Y-47599D01*
X56201Y-47463D01*
X56281Y-47270D01*
X56281Y-47061D01*
X56201Y-46868D01*
X56054Y-46720D01*
X55860Y-46639D01*
X55651Y-46639D01*
X55458Y-46719D01*
X55310Y-46867D01*
X55255Y-46999D01*
X55201Y-46868D01*
X55054Y-46720D01*
X54860Y-46639D01*
X54651Y-46639D01*
X54458Y-46719D01*
X54310Y-46867D01*
X54255Y-46999D01*
X54201Y-46868D01*
X54054Y-46720D01*
X53860Y-46639D01*
X53651Y-46639D01*
X53458Y-46719D01*
X53310Y-46867D01*
X53255Y-46999D01*
X53201Y-46868D01*
X53054Y-46720D01*
X52860Y-46639D01*
X52651Y-46639D01*
X52458Y-46719D01*
X52310Y-46867D01*
X52255Y-46999D01*
X52201Y-46868D01*
X52054Y-46720D01*
X51860Y-46639D01*
X51651Y-46639D01*
X51458Y-46719D01*
X51310Y-46867D01*
X51255Y-46999D01*
X51201Y-46868D01*
X51054Y-46720D01*
X50860Y-46639D01*
X50651Y-46639D01*
X50458Y-46719D01*
X50310Y-46867D01*
X50281Y-46937D01*
X50281Y-46840D01*
X50243Y-46748D01*
X50173Y-46677D01*
X50081Y-46639D01*
X49981Y-46639D01*
X49706Y-46639D01*
X49651Y-46639D01*
X49651Y-46639D01*
X49430Y-46639D01*
X49338Y-46677D01*
X49268Y-46747D01*
X49230Y-46839D01*
X49230Y-46939D01*
X49230Y-47214D01*
X49230Y-47269D01*
X49230Y-47269D01*
X49230Y-47490D01*
X49268Y-47582D01*
X49338Y-47652D01*
X49430Y-47690D01*
X49529Y-47690D01*
X49805Y-47690D01*
X49844Y-47691D01*
X51895Y-49742D01*
X51895Y-56653D01*
X51919Y-56771D01*
X51986Y-56872D01*
X53230Y-58116D01*
X53149Y-58116D01*
X52244Y-58116D01*
X52244Y-58116D01*
X52220Y-58120D01*
X52125Y-58139D01*
X52025Y-58206D01*
X52025Y-58206D01*
X51592Y-58639D01*
X51525Y-58739D01*
X51501Y-58858D01*
X51501Y-61210D01*
X51368Y-61344D01*
X51368Y-58285D01*
X51368Y-55285D01*
X51368Y-53167D01*
X51368Y-50167D01*
X51288Y-49974D01*
X51140Y-49826D01*
X50947Y-49746D01*
X50738Y-49745D01*
X50545Y-49825D01*
X50397Y-49973D01*
X50317Y-50166D01*
X50316Y-50375D01*
X50396Y-50568D01*
X50544Y-50716D01*
X50737Y-50797D01*
X50946Y-50797D01*
X51139Y-50717D01*
X51287Y-50569D01*
X51368Y-50376D01*
X51368Y-50167D01*
X51368Y-53167D01*
X51288Y-52974D01*
X51140Y-52826D01*
X50947Y-52746D01*
X50738Y-52745D01*
X50545Y-52825D01*
X50397Y-52973D01*
X50317Y-53166D01*
X50316Y-53375D01*
X50396Y-53568D01*
X50544Y-53716D01*
X50737Y-53797D01*
X50946Y-53797D01*
X51139Y-53717D01*
X51287Y-53569D01*
X51368Y-53376D01*
X51368Y-53167D01*
X51368Y-55285D01*
X51288Y-55092D01*
X51140Y-54944D01*
X50947Y-54864D01*
X50738Y-54864D01*
X50545Y-54943D01*
X50397Y-55091D01*
X50317Y-55284D01*
X50316Y-55493D01*
X50396Y-55687D01*
X50544Y-55835D01*
X50737Y-55915D01*
X50946Y-55915D01*
X51139Y-55835D01*
X51287Y-55687D01*
X51368Y-55494D01*
X51368Y-55285D01*
X51368Y-58285D01*
X51288Y-58092D01*
X51140Y-57944D01*
X50947Y-57864D01*
X50738Y-57864D01*
X50545Y-57943D01*
X50397Y-58091D01*
X50317Y-58284D01*
X50316Y-58493D01*
X50396Y-58687D01*
X50544Y-58835D01*
X50737Y-58915D01*
X50946Y-58915D01*
X51139Y-58835D01*
X51287Y-58687D01*
X51368Y-58494D01*
X51368Y-58285D01*
X51368Y-61344D01*
X49935Y-62777D01*
X49935Y-54226D01*
X49935Y-54226D01*
X49935Y-54005D01*
X49897Y-53913D01*
X49826Y-53843D01*
X49734Y-53805D01*
X49635Y-53805D01*
X49360Y-53805D01*
X49305Y-53805D01*
X49305Y-53805D01*
X49084Y-53805D01*
X48992Y-53843D01*
X48922Y-53913D01*
X48899Y-53967D01*
X48899Y-48045D01*
X48819Y-47852D01*
X48672Y-47704D01*
X48559Y-47657D01*
X48671Y-47611D01*
X48819Y-47463D01*
X48899Y-47270D01*
X48899Y-47061D01*
X48819Y-46868D01*
X48672Y-46720D01*
X48479Y-46639D01*
X48269Y-46639D01*
X48076Y-46719D01*
X47928Y-46867D01*
X47848Y-47060D01*
X47848Y-47269D01*
X47928Y-47462D01*
X48075Y-47610D01*
X48188Y-47657D01*
X48076Y-47703D01*
X47928Y-47851D01*
X47848Y-48044D01*
X47848Y-48253D01*
X47928Y-48446D01*
X48075Y-48594D01*
X48269Y-48675D01*
X48478Y-48675D01*
X48671Y-48595D01*
X48819Y-48447D01*
X48899Y-48254D01*
X48899Y-48045D01*
X48899Y-53967D01*
X48883Y-54005D01*
X48883Y-54104D01*
X48883Y-54380D01*
X48883Y-54434D01*
X48883Y-54434D01*
X48883Y-54655D01*
X48921Y-54747D01*
X48992Y-54818D01*
X49083Y-54856D01*
X49183Y-54856D01*
X49458Y-54856D01*
X49513Y-54856D01*
X49513Y-54856D01*
X49734Y-54856D01*
X49826Y-54818D01*
X49896Y-54748D01*
X49934Y-54656D01*
X49935Y-54556D01*
X49935Y-54281D01*
X49935Y-54226D01*
X49935Y-62777D01*
X49820Y-62891D01*
X47824Y-62891D01*
X47824Y-62836D01*
X47786Y-62744D01*
X47716Y-62674D01*
X47624Y-62635D01*
X47525Y-62635D01*
X46895Y-62635D01*
X46803Y-62673D01*
X46733Y-62744D01*
X46694Y-62835D01*
X46694Y-62836D01*
X46580Y-62722D01*
X46372Y-62635D01*
X46147Y-62635D01*
X45940Y-62721D01*
X45781Y-62880D01*
X45759Y-62931D01*
X45739Y-62881D01*
X45580Y-62722D01*
X45372Y-62635D01*
X45147Y-62635D01*
X44940Y-62721D01*
X44781Y-62880D01*
X44694Y-63087D01*
X44694Y-63312D01*
X44727Y-63391D01*
X43866Y-63391D01*
X43914Y-63343D01*
X43952Y-63251D01*
X43952Y-63152D01*
X43952Y-62601D01*
X43914Y-62509D01*
X43893Y-62488D01*
X43893Y-62159D01*
X44339Y-62159D01*
X44375Y-62195D01*
X44524Y-62257D01*
X44686Y-62257D01*
X44836Y-62196D01*
X44951Y-62081D01*
X45013Y-61931D01*
X45013Y-61769D01*
X44951Y-61619D01*
X44837Y-61505D01*
X44726Y-61458D01*
X44771Y-61413D01*
X44838Y-61313D01*
X44838Y-61313D01*
X44862Y-61194D01*
X44862Y-60896D01*
X44885Y-60906D01*
X44984Y-60906D01*
X45220Y-60906D01*
X45303Y-60872D01*
X45385Y-60906D01*
X45484Y-60906D01*
X45720Y-60906D01*
X45812Y-60868D01*
X45882Y-60798D01*
X45921Y-60706D01*
X45921Y-60689D01*
X46007Y-60689D01*
X46039Y-60722D01*
X46064Y-60732D01*
X46009Y-60863D01*
X46009Y-61025D01*
X46071Y-61175D01*
X46186Y-61290D01*
X46335Y-61352D01*
X46498Y-61352D01*
X46647Y-61290D01*
X46762Y-61176D01*
X46824Y-61026D01*
X46824Y-60864D01*
X46781Y-60760D01*
X46873Y-60722D01*
X46943Y-60652D01*
X46981Y-60560D01*
X46981Y-60461D01*
X46981Y-60111D01*
X46943Y-60019D01*
X46873Y-59948D01*
X46781Y-59910D01*
X46682Y-59910D01*
X46132Y-59910D01*
X46040Y-59948D01*
X45969Y-60018D01*
X45947Y-60071D01*
X45921Y-60071D01*
X45921Y-60055D01*
X45883Y-59963D01*
X45812Y-59893D01*
X45721Y-59855D01*
X45621Y-59855D01*
X45393Y-59855D01*
X45446Y-59727D01*
X45446Y-59564D01*
X45385Y-59415D01*
X45270Y-59300D01*
X45120Y-59238D01*
X44958Y-59238D01*
X44808Y-59300D01*
X44794Y-59314D01*
X44757Y-59225D01*
X44757Y-58907D01*
X44771Y-58893D01*
X44771Y-58893D01*
X44771Y-58893D01*
X44838Y-58793D01*
X44838Y-58793D01*
X44839Y-58787D01*
X44885Y-58806D01*
X44984Y-58806D01*
X45220Y-58806D01*
X45303Y-58772D01*
X45385Y-58806D01*
X45484Y-58806D01*
X45720Y-58806D01*
X45812Y-58768D01*
X45882Y-58698D01*
X45906Y-58640D01*
X46020Y-58688D01*
X46046Y-58688D01*
X46573Y-59215D01*
X46573Y-59215D01*
X46674Y-59282D01*
X46674Y-59282D01*
X46707Y-59289D01*
X46717Y-59313D01*
X46787Y-59383D01*
X46879Y-59422D01*
X46979Y-59422D01*
X47529Y-59422D01*
X47621Y-59384D01*
X47691Y-59313D01*
X47729Y-59221D01*
X47729Y-59122D01*
X47729Y-58772D01*
X47691Y-58680D01*
X47633Y-58622D01*
X47691Y-58563D01*
X47729Y-58471D01*
X47729Y-58372D01*
X47729Y-58022D01*
X47691Y-57930D01*
X47654Y-57893D01*
X47691Y-57857D01*
X47729Y-57765D01*
X47729Y-57665D01*
X47729Y-57315D01*
X47691Y-57223D01*
X47633Y-57165D01*
X47691Y-57107D01*
X47729Y-57015D01*
X47729Y-56915D01*
X47729Y-56565D01*
X47691Y-56473D01*
X47661Y-56443D01*
X47719Y-56385D01*
X47757Y-56293D01*
X47757Y-56194D01*
X47757Y-55749D01*
X47803Y-55860D01*
X47840Y-55897D01*
X47840Y-58787D01*
X47804Y-58823D01*
X47742Y-58973D01*
X47742Y-59135D01*
X47803Y-59285D01*
X47918Y-59400D01*
X48068Y-59462D01*
X48230Y-59462D01*
X48380Y-59400D01*
X48494Y-59286D01*
X48557Y-59136D01*
X48557Y-58974D01*
X48495Y-58824D01*
X48458Y-58787D01*
X48458Y-55897D01*
X48494Y-55861D01*
X48557Y-55711D01*
X48557Y-55549D01*
X48495Y-55399D01*
X48458Y-55362D01*
X48458Y-52362D01*
X48458Y-50984D01*
X48458Y-50984D01*
X48458Y-50984D01*
X48453Y-50960D01*
X48435Y-50865D01*
X48435Y-50865D01*
X48368Y-50765D01*
X48368Y-50765D01*
X48289Y-50686D01*
X48189Y-50619D01*
X48070Y-50596D01*
X47807Y-50596D01*
X47807Y-50581D01*
X47769Y-50489D01*
X47699Y-50418D01*
X47607Y-50380D01*
X47508Y-50380D01*
X47158Y-50380D01*
X47066Y-50418D01*
X47007Y-50476D01*
X46949Y-50418D01*
X46857Y-50380D01*
X46809Y-50380D01*
X46920Y-50270D01*
X46982Y-50120D01*
X46982Y-49958D01*
X46920Y-49808D01*
X46805Y-49694D01*
X46656Y-49631D01*
X46494Y-49631D01*
X46388Y-49675D01*
X46343Y-49630D01*
X46251Y-49592D01*
X46152Y-49592D01*
X45837Y-49592D01*
X45745Y-49630D01*
X45674Y-49700D01*
X45669Y-49714D01*
X45663Y-49701D01*
X45593Y-49630D01*
X45525Y-49602D01*
X45525Y-47550D01*
X45338Y-47097D01*
X44991Y-46749D01*
X44537Y-46561D01*
X44046Y-46560D01*
X43593Y-46748D01*
X43245Y-47095D01*
X43057Y-47548D01*
X43056Y-48039D01*
X43244Y-48493D01*
X43591Y-48841D01*
X44044Y-49029D01*
X44535Y-49029D01*
X44989Y-48842D01*
X45337Y-48495D01*
X45525Y-48041D01*
X45525Y-47550D01*
X45525Y-49602D01*
X45501Y-49592D01*
X45402Y-49592D01*
X45087Y-49592D01*
X44995Y-49630D01*
X44937Y-49687D01*
X44853Y-49652D01*
X44753Y-49652D01*
X44359Y-49652D01*
X44267Y-49690D01*
X44197Y-49760D01*
X44187Y-49785D01*
X44187Y-49478D01*
X44149Y-49386D01*
X44079Y-49315D01*
X43987Y-49277D01*
X43887Y-49277D01*
X43493Y-49277D01*
X43401Y-49315D01*
X43341Y-49375D01*
X43149Y-49375D01*
X43149Y-49375D01*
X43126Y-49380D01*
X43031Y-49399D01*
X42931Y-49466D01*
X42931Y-49466D01*
X42715Y-49682D01*
X42648Y-49782D01*
X42632Y-49860D01*
X42617Y-49867D01*
X42559Y-49925D01*
X42500Y-49867D01*
X42409Y-49829D01*
X42309Y-49829D01*
X41959Y-49829D01*
X41867Y-49867D01*
X41797Y-49937D01*
X41759Y-50029D01*
X41759Y-50045D01*
X41694Y-50045D01*
X41694Y-50029D01*
X41656Y-49937D01*
X41586Y-49866D01*
X41494Y-49828D01*
X41490Y-49828D01*
X41490Y-49737D01*
X41505Y-49737D01*
X41597Y-49699D01*
X41667Y-49628D01*
X41706Y-49536D01*
X41706Y-49437D01*
X41706Y-49087D01*
X41668Y-48995D01*
X41609Y-48936D01*
X41667Y-48878D01*
X41706Y-48786D01*
X41706Y-48687D01*
X41706Y-48337D01*
X41668Y-48245D01*
X41597Y-48175D01*
X41506Y-48137D01*
X41490Y-48137D01*
X41490Y-47993D01*
X41626Y-47857D01*
X41706Y-47664D01*
X41706Y-47454D01*
X41626Y-47261D01*
X41479Y-47113D01*
X41286Y-47033D01*
X41077Y-47033D01*
X40883Y-47113D01*
X40735Y-47260D01*
X40706Y-47330D01*
X40706Y-47233D01*
X40668Y-47142D01*
X40598Y-47071D01*
X40506Y-47033D01*
X40407Y-47033D01*
X40131Y-47033D01*
X40077Y-47033D01*
X40076Y-47033D01*
X39856Y-47033D01*
X39764Y-47071D01*
X39693Y-47141D01*
X39655Y-47233D01*
X39655Y-47332D01*
X39655Y-47608D01*
X39655Y-47663D01*
X39655Y-47663D01*
X39655Y-47884D01*
X39693Y-47976D01*
X39763Y-48046D01*
X39855Y-48084D01*
X39872Y-48084D01*
X39872Y-48136D01*
X39832Y-48136D01*
X39741Y-48174D01*
X39670Y-48245D01*
X39632Y-48337D01*
X39632Y-48436D01*
X39632Y-48786D01*
X39670Y-48878D01*
X39728Y-48937D01*
X39670Y-48995D01*
X39632Y-49087D01*
X39632Y-49186D01*
X39632Y-49536D01*
X39670Y-49628D01*
X39740Y-49698D01*
X39832Y-49736D01*
X39848Y-49736D01*
X39848Y-49931D01*
X39723Y-50056D01*
X39643Y-50249D01*
X39643Y-50458D01*
X39723Y-50651D01*
X39871Y-50799D01*
X40064Y-50879D01*
X40273Y-50880D01*
X40466Y-50800D01*
X40614Y-50652D01*
X40643Y-50582D01*
X40643Y-50679D01*
X40681Y-50771D01*
X40751Y-50841D01*
X40843Y-50879D01*
X40943Y-50879D01*
X41218Y-50879D01*
X41273Y-50880D01*
X41273Y-50879D01*
X41494Y-50879D01*
X41586Y-50841D01*
X41656Y-50771D01*
X41694Y-50679D01*
X41694Y-50663D01*
X41759Y-50663D01*
X41759Y-50678D01*
X41796Y-50770D01*
X41867Y-50841D01*
X41959Y-50879D01*
X42058Y-50879D01*
X42408Y-50879D01*
X42500Y-50841D01*
X42559Y-50782D01*
X42617Y-50841D01*
X42625Y-50844D01*
X42625Y-51123D01*
X42648Y-51241D01*
X42715Y-51341D01*
X42891Y-51517D01*
X42891Y-51517D01*
X42991Y-51584D01*
X42991Y-51584D01*
X43110Y-51608D01*
X43136Y-51608D01*
X43136Y-51623D01*
X43174Y-51715D01*
X43245Y-51786D01*
X43337Y-51824D01*
X43436Y-51824D01*
X43786Y-51824D01*
X43878Y-51786D01*
X43937Y-51727D01*
X43995Y-51786D01*
X44087Y-51824D01*
X44186Y-51824D01*
X44536Y-51824D01*
X44620Y-51789D01*
X44769Y-51939D01*
X44769Y-52194D01*
X44413Y-52551D01*
X44007Y-52551D01*
X43986Y-52530D01*
X43895Y-52492D01*
X43795Y-52492D01*
X43244Y-52492D01*
X43152Y-52530D01*
X43082Y-52600D01*
X43044Y-52692D01*
X43044Y-52791D01*
X43044Y-53027D01*
X43078Y-53110D01*
X43044Y-53192D01*
X43044Y-53291D01*
X43044Y-53527D01*
X43078Y-53610D01*
X43044Y-53692D01*
X43044Y-53791D01*
X43044Y-54027D01*
X43057Y-54061D01*
X42687Y-54061D01*
X42391Y-53765D01*
X42474Y-53731D01*
X42589Y-53616D01*
X42651Y-53467D01*
X42651Y-53305D01*
X42589Y-53155D01*
X42475Y-53040D01*
X42325Y-52978D01*
X42163Y-52978D01*
X42013Y-53040D01*
X42002Y-53051D01*
X41985Y-53051D01*
X41995Y-53028D01*
X41995Y-52928D01*
X41995Y-52692D01*
X41961Y-52610D01*
X41995Y-52528D01*
X41995Y-52428D01*
X41995Y-52192D01*
X41957Y-52100D01*
X41886Y-52030D01*
X41795Y-51992D01*
X41695Y-51992D01*
X41144Y-51992D01*
X41052Y-52030D01*
X40982Y-52100D01*
X40974Y-52118D01*
X40928Y-52072D01*
X40836Y-52034D01*
X40820Y-52034D01*
X40820Y-51891D01*
X40877Y-51834D01*
X40916Y-51742D01*
X40916Y-51642D01*
X40916Y-51092D01*
X40878Y-51000D01*
X40807Y-50930D01*
X40716Y-50892D01*
X40616Y-50892D01*
X40266Y-50892D01*
X40174Y-50930D01*
X40104Y-51000D01*
X40066Y-51092D01*
X40066Y-51191D01*
X40066Y-51741D01*
X40104Y-51833D01*
X40174Y-51904D01*
X40202Y-51915D01*
X40202Y-52034D01*
X40187Y-52034D01*
X40095Y-52072D01*
X40024Y-52142D01*
X39986Y-52234D01*
X39986Y-52334D01*
X39986Y-52684D01*
X40024Y-52776D01*
X40083Y-52834D01*
X40024Y-52892D01*
X39986Y-52984D01*
X39986Y-53084D01*
X39986Y-53434D01*
X40024Y-53526D01*
X40095Y-53596D01*
X40186Y-53634D01*
X40202Y-53634D01*
X40202Y-53767D01*
X40166Y-53803D01*
X40104Y-53953D01*
X40104Y-54115D01*
X40166Y-54264D01*
X40202Y-54301D01*
X40202Y-54330D01*
X40226Y-54448D01*
X40293Y-54549D01*
X40883Y-55139D01*
X40971Y-55198D01*
X40971Y-55245D01*
X41009Y-55337D01*
X41079Y-55408D01*
X41171Y-55446D01*
X41271Y-55446D01*
X41621Y-55446D01*
X41713Y-55408D01*
X41771Y-55349D01*
X41829Y-55408D01*
X41921Y-55446D01*
X42021Y-55446D01*
X42371Y-55446D01*
X42463Y-55408D01*
X42533Y-55338D01*
X42559Y-55276D01*
X42584Y-55337D01*
X42600Y-55354D01*
X42584Y-55370D01*
X42546Y-55462D01*
X42546Y-55561D01*
X42546Y-56100D01*
X42210Y-56100D01*
X42118Y-56138D01*
X42048Y-56208D01*
X42010Y-56300D01*
X42010Y-56399D01*
X42010Y-56895D01*
X41859Y-56895D01*
X41846Y-56866D01*
X41786Y-56805D01*
X41786Y-56475D01*
X41795Y-56471D01*
X41865Y-56401D01*
X41903Y-56309D01*
X41903Y-56210D01*
X41903Y-55895D01*
X41865Y-55803D01*
X41795Y-55733D01*
X41703Y-55694D01*
X41604Y-55694D01*
X41210Y-55694D01*
X41118Y-55732D01*
X41047Y-55803D01*
X41009Y-55894D01*
X41009Y-55994D01*
X41009Y-56202D01*
X40999Y-56178D01*
X40929Y-56108D01*
X40837Y-56069D01*
X40738Y-56069D01*
X40344Y-56069D01*
X40252Y-56107D01*
X40181Y-56178D01*
X40143Y-56269D01*
X40143Y-56369D01*
X40143Y-56684D01*
X40181Y-56776D01*
X40251Y-56846D01*
X40343Y-56884D01*
X40350Y-56884D01*
X40319Y-56957D01*
X40319Y-57057D01*
X40319Y-57451D01*
X40357Y-57543D01*
X40428Y-57613D01*
X40519Y-57651D01*
X40619Y-57651D01*
X40827Y-57651D01*
X40803Y-57661D01*
X40733Y-57731D01*
X40720Y-57761D01*
X39970Y-57761D01*
X39923Y-57742D01*
X39761Y-57742D01*
X39679Y-57776D01*
X39679Y-57668D01*
X39715Y-57632D01*
X39777Y-57482D01*
X39777Y-57320D01*
X39715Y-57171D01*
X39601Y-57056D01*
X39451Y-56994D01*
X39289Y-56994D01*
X39206Y-57028D01*
X39206Y-46490D01*
X67137Y-46490D01*
X66703Y-46669D01*
X66355Y-47016D01*
X66167Y-47469D01*
X66167Y-47960D01*
X66354Y-48414D01*
X66701Y-48762D01*
X67154Y-48950D01*
X67646Y-48951D01*
X68099Y-48763D01*
X68447Y-48416D01*
X68635Y-47963D01*
X68636Y-47472D01*
X68448Y-47018D01*
X68101Y-46670D01*
X67666Y-46490D01*
X70163Y-46490D01*
X70163Y-62068D01*
X70151Y-62038D01*
X69931Y-61818D01*
X69644Y-61699D01*
X69333Y-61698D01*
X69265Y-61726D01*
X69265Y-59730D01*
X69168Y-59494D01*
X68987Y-59312D01*
X68750Y-59214D01*
X68494Y-59214D01*
X68257Y-59312D01*
X68076Y-59493D01*
X67978Y-59729D01*
X67978Y-59985D01*
X68076Y-60222D01*
X68256Y-60403D01*
X68493Y-60501D01*
X68749Y-60502D01*
X68986Y-60404D01*
X69167Y-60223D01*
X69265Y-59986D01*
X69265Y-59730D01*
X69265Y-61726D01*
X69046Y-61817D01*
X68826Y-62037D01*
X68706Y-62324D01*
X68706Y-62635D01*
X68825Y-62922D01*
X69044Y-63142D01*
X69332Y-63261D01*
X69642Y-63262D01*
X69930Y-63143D01*
X70150Y-62923D01*
X70163Y-62892D01*
X70163Y-66792D01*
M02*
