G04 (created by PCBNEW (2013-05-31 BZR 4019)-stable) date 12.01.2015 16:56:15*
%MOIN*%
G04 Gerber Fmt 3.4, Leading zero omitted, Abs format*
%FSLAX34Y34*%
G01*
G70*
G90*
G04 APERTURE LIST*
%ADD10C,0.00590551*%
%ADD11C,0.015*%
%ADD12C,0.0031*%
%ADD13C,0.005*%
%ADD14C,0.0039*%
%ADD15C,0.00393701*%
G04 APERTURE END LIST*
G54D10*
G54D11*
X64153Y-53656D02*
X64153Y-55206D01*
X64153Y-55206D02*
X63453Y-55206D01*
X63453Y-55206D02*
X63453Y-53656D01*
X65153Y-53656D02*
X65153Y-55206D01*
X65153Y-55206D02*
X64453Y-55206D01*
X64453Y-55206D02*
X64453Y-53656D01*
X66153Y-53656D02*
X66153Y-55156D01*
X66153Y-55156D02*
X65503Y-55156D01*
X65503Y-55156D02*
X65453Y-55156D01*
X65453Y-55156D02*
X65453Y-53656D01*
X66553Y-53006D02*
G75*
G03X66553Y-53006I-300J0D01*
G74*
G01*
X66903Y-53656D02*
X66903Y-49456D01*
X66903Y-49456D02*
X66653Y-49206D01*
X66653Y-49206D02*
X63103Y-49206D01*
X63103Y-49206D02*
X63003Y-49206D01*
X63003Y-49206D02*
X62953Y-49206D01*
X62953Y-49206D02*
X62703Y-49456D01*
X62703Y-49456D02*
X62703Y-53656D01*
X66903Y-53656D02*
X62703Y-53656D01*
X62703Y-49656D02*
X66903Y-49656D01*
G54D12*
X42011Y-57982D02*
G75*
G03X42011Y-57982I-62J0D01*
G74*
G01*
X42286Y-57019D02*
X41886Y-57019D01*
X42286Y-58044D02*
X41886Y-58044D01*
X41886Y-57019D02*
X41886Y-58044D01*
X42286Y-58044D02*
X42286Y-57019D01*
X40594Y-56938D02*
G75*
G03X40594Y-56938I-62J0D01*
G74*
G01*
X40193Y-57901D02*
X40593Y-57901D01*
X40193Y-56876D02*
X40593Y-56876D01*
X40593Y-57901D02*
X40593Y-56876D01*
X40193Y-56876D02*
X40193Y-57901D01*
X41961Y-49310D02*
G75*
G03X41961Y-49310I-62J0D01*
G74*
G01*
X42862Y-49648D02*
X42862Y-49248D01*
X41837Y-49648D02*
X41837Y-49248D01*
X42862Y-49248D02*
X41837Y-49248D01*
X41837Y-49648D02*
X42862Y-49648D01*
X43349Y-51211D02*
G75*
G03X43349Y-51211I-62J0D01*
G74*
G01*
X43625Y-50248D02*
X43225Y-50248D01*
X43625Y-51273D02*
X43225Y-51273D01*
X43225Y-50248D02*
X43225Y-51273D01*
X43625Y-51273D02*
X43625Y-50248D01*
G54D13*
X51725Y-61991D02*
G75*
G03X51725Y-61991I-70J0D01*
G74*
G01*
X49754Y-61941D02*
X49104Y-61941D01*
X49104Y-61941D02*
X49104Y-60341D01*
X49104Y-60341D02*
X49754Y-60341D01*
X50954Y-60341D02*
X51604Y-60341D01*
X51604Y-60341D02*
X51604Y-61941D01*
X51604Y-61941D02*
X50954Y-61941D01*
X65008Y-59803D02*
G75*
G03X65008Y-59803I-70J0D01*
G74*
G01*
X64987Y-57903D02*
X64987Y-57253D01*
X64987Y-57253D02*
X66587Y-57253D01*
X66587Y-57253D02*
X66587Y-57903D01*
X66587Y-59103D02*
X66587Y-59753D01*
X66587Y-59753D02*
X64987Y-59753D01*
X64987Y-59753D02*
X64987Y-59103D01*
X42703Y-51525D02*
G75*
G03X42703Y-51525I-70J0D01*
G74*
G01*
X43282Y-52675D02*
X42682Y-52675D01*
X42682Y-52675D02*
X42682Y-51575D01*
X42682Y-51575D02*
X43282Y-51575D01*
X43882Y-51575D02*
X44482Y-51575D01*
X44482Y-51575D02*
X44482Y-52675D01*
X44482Y-52675D02*
X43882Y-52675D01*
X45218Y-51068D02*
G75*
G03X45218Y-51068I-70J0D01*
G74*
G01*
X46298Y-50418D02*
X46298Y-51018D01*
X46298Y-51018D02*
X45198Y-51018D01*
X45198Y-51018D02*
X45198Y-50418D01*
X45198Y-49818D02*
X45198Y-49218D01*
X45198Y-49218D02*
X46298Y-49218D01*
X46298Y-49218D02*
X46298Y-49818D01*
X46955Y-59400D02*
G75*
G03X46955Y-59400I-70J0D01*
G74*
G01*
X47534Y-60550D02*
X46934Y-60550D01*
X46934Y-60550D02*
X46934Y-59450D01*
X46934Y-59450D02*
X47534Y-59450D01*
X48134Y-59450D02*
X48734Y-59450D01*
X48734Y-59450D02*
X48734Y-60550D01*
X48734Y-60550D02*
X48134Y-60550D01*
X64209Y-57922D02*
G75*
G03X64209Y-57922I-70J0D01*
G74*
G01*
X63488Y-56772D02*
X64088Y-56772D01*
X64088Y-56772D02*
X64088Y-57872D01*
X64088Y-57872D02*
X63488Y-57872D01*
X62888Y-57872D02*
X62288Y-57872D01*
X62288Y-57872D02*
X62288Y-56772D01*
X62288Y-56772D02*
X62888Y-56772D01*
X41335Y-60560D02*
G75*
G03X41335Y-60560I-70J0D01*
G74*
G01*
X40614Y-59410D02*
X41214Y-59410D01*
X41214Y-59410D02*
X41214Y-60510D01*
X41214Y-60510D02*
X40614Y-60510D01*
X40014Y-60510D02*
X39414Y-60510D01*
X39414Y-60510D02*
X39414Y-59410D01*
X39414Y-59410D02*
X40014Y-59410D01*
X46911Y-54768D02*
G75*
G03X46911Y-54768I-70J0D01*
G74*
G01*
X47990Y-54118D02*
X47990Y-54718D01*
X47990Y-54718D02*
X46890Y-54718D01*
X46890Y-54718D02*
X46890Y-54118D01*
X46890Y-53518D02*
X46890Y-52918D01*
X46890Y-52918D02*
X47990Y-52918D01*
X47990Y-52918D02*
X47990Y-53518D01*
G54D14*
X42663Y-54232D02*
G75*
G03X42663Y-54232I-50J0D01*
G74*
G01*
X42613Y-53782D02*
X42613Y-54182D01*
X42613Y-54182D02*
X43213Y-54182D01*
X43213Y-54182D02*
X43213Y-53782D01*
X43213Y-53382D02*
X43213Y-52982D01*
X43213Y-52982D02*
X42613Y-52982D01*
X42613Y-52982D02*
X42613Y-53382D01*
X45423Y-54109D02*
G75*
G03X45423Y-54109I-50J0D01*
G74*
G01*
X45823Y-54109D02*
X45423Y-54109D01*
X45423Y-54109D02*
X45423Y-54709D01*
X45423Y-54709D02*
X45823Y-54709D01*
X46223Y-54709D02*
X46623Y-54709D01*
X46623Y-54709D02*
X46623Y-54109D01*
X46623Y-54109D02*
X46223Y-54109D01*
X60901Y-50137D02*
G75*
G03X60901Y-50137I-50J0D01*
G74*
G01*
X60851Y-50587D02*
X60851Y-50187D01*
X60851Y-50187D02*
X60251Y-50187D01*
X60251Y-50187D02*
X60251Y-50587D01*
X60251Y-50987D02*
X60251Y-51387D01*
X60251Y-51387D02*
X60851Y-51387D01*
X60851Y-51387D02*
X60851Y-50987D01*
X66329Y-61953D02*
G75*
G03X66329Y-61953I-50J0D01*
G74*
G01*
X65829Y-61953D02*
X66229Y-61953D01*
X66229Y-61953D02*
X66229Y-61353D01*
X66229Y-61353D02*
X65829Y-61353D01*
X65429Y-61353D02*
X65029Y-61353D01*
X65029Y-61353D02*
X65029Y-61953D01*
X65029Y-61953D02*
X65429Y-61953D01*
X66329Y-61087D02*
G75*
G03X66329Y-61087I-50J0D01*
G74*
G01*
X65829Y-61087D02*
X66229Y-61087D01*
X66229Y-61087D02*
X66229Y-60487D01*
X66229Y-60487D02*
X65829Y-60487D01*
X65429Y-60487D02*
X65029Y-60487D01*
X65029Y-60487D02*
X65029Y-61087D01*
X65029Y-61087D02*
X65429Y-61087D01*
X39946Y-49587D02*
G75*
G03X39946Y-49587I-50J0D01*
G74*
G01*
X39896Y-49137D02*
X39896Y-49537D01*
X39896Y-49537D02*
X40496Y-49537D01*
X40496Y-49537D02*
X40496Y-49137D01*
X40496Y-48737D02*
X40496Y-48337D01*
X40496Y-48337D02*
X39896Y-48337D01*
X39896Y-48337D02*
X39896Y-48737D01*
X47594Y-49743D02*
G75*
G03X47594Y-49743I-50J0D01*
G74*
G01*
X47544Y-50193D02*
X47544Y-49793D01*
X47544Y-49793D02*
X46944Y-49793D01*
X46944Y-49793D02*
X46944Y-50193D01*
X46944Y-50593D02*
X46944Y-50993D01*
X46944Y-50993D02*
X47544Y-50993D01*
X47544Y-50993D02*
X47544Y-50593D01*
X44474Y-51004D02*
G75*
G03X44474Y-51004I-50J0D01*
G74*
G01*
X44424Y-50554D02*
X44424Y-50954D01*
X44424Y-50954D02*
X45024Y-50954D01*
X45024Y-50954D02*
X45024Y-50554D01*
X45024Y-50154D02*
X45024Y-49754D01*
X45024Y-49754D02*
X44424Y-49754D01*
X44424Y-49754D02*
X44424Y-50154D01*
X46093Y-52386D02*
G75*
G03X46093Y-52386I-50J0D01*
G74*
G01*
X45593Y-52386D02*
X45993Y-52386D01*
X45993Y-52386D02*
X45993Y-51786D01*
X45993Y-51786D02*
X45593Y-51786D01*
X45193Y-51786D02*
X44793Y-51786D01*
X44793Y-51786D02*
X44793Y-52386D01*
X44793Y-52386D02*
X45193Y-52386D01*
X40305Y-54266D02*
G75*
G03X40305Y-54266I-50J0D01*
G74*
G01*
X40705Y-54266D02*
X40305Y-54266D01*
X40305Y-54266D02*
X40305Y-54866D01*
X40305Y-54866D02*
X40705Y-54866D01*
X41105Y-54866D02*
X41505Y-54866D01*
X41505Y-54866D02*
X41505Y-54266D01*
X41505Y-54266D02*
X41105Y-54266D01*
X45818Y-55929D02*
G75*
G03X45818Y-55929I-50J0D01*
G74*
G01*
X45318Y-55929D02*
X45718Y-55929D01*
X45718Y-55929D02*
X45718Y-55329D01*
X45718Y-55329D02*
X45318Y-55329D01*
X44918Y-55329D02*
X44518Y-55329D01*
X44518Y-55329D02*
X44518Y-55929D01*
X44518Y-55929D02*
X44918Y-55929D01*
X43568Y-55886D02*
G75*
G03X43568Y-55886I-50J0D01*
G74*
G01*
X43518Y-55436D02*
X43518Y-55836D01*
X43518Y-55836D02*
X44118Y-55836D01*
X44118Y-55836D02*
X44118Y-55436D01*
X44118Y-55036D02*
X44118Y-54636D01*
X44118Y-54636D02*
X43518Y-54636D01*
X43518Y-54636D02*
X43518Y-55036D01*
X42432Y-56048D02*
G75*
G03X42432Y-56048I-50J0D01*
G74*
G01*
X41932Y-56048D02*
X42332Y-56048D01*
X42332Y-56048D02*
X42332Y-55448D01*
X42332Y-55448D02*
X41932Y-55448D01*
X41532Y-55448D02*
X41132Y-55448D01*
X41132Y-55448D02*
X41132Y-56048D01*
X41132Y-56048D02*
X41532Y-56048D01*
X40931Y-49587D02*
G75*
G03X40931Y-49587I-50J0D01*
G74*
G01*
X40881Y-49137D02*
X40881Y-49537D01*
X40881Y-49537D02*
X41481Y-49537D01*
X41481Y-49537D02*
X41481Y-49137D01*
X41481Y-48737D02*
X41481Y-48337D01*
X41481Y-48337D02*
X40881Y-48337D01*
X40881Y-48337D02*
X40881Y-48737D01*
X43613Y-61402D02*
G75*
G03X43613Y-61402I-50J0D01*
G74*
G01*
X43113Y-61402D02*
X43513Y-61402D01*
X43513Y-61402D02*
X43513Y-60802D01*
X43513Y-60802D02*
X43113Y-60802D01*
X42713Y-60802D02*
X42313Y-60802D01*
X42313Y-60802D02*
X42313Y-61402D01*
X42313Y-61402D02*
X42713Y-61402D01*
X40271Y-55570D02*
G75*
G03X40271Y-55570I-50J0D01*
G74*
G01*
X40221Y-56020D02*
X40221Y-55620D01*
X40221Y-55620D02*
X39621Y-55620D01*
X39621Y-55620D02*
X39621Y-56020D01*
X39621Y-56420D02*
X39621Y-56820D01*
X39621Y-56820D02*
X40221Y-56820D01*
X40221Y-56820D02*
X40221Y-56420D01*
X42431Y-56314D02*
G75*
G03X42431Y-56314I-50J0D01*
G74*
G01*
X42831Y-56314D02*
X42431Y-56314D01*
X42431Y-56314D02*
X42431Y-56914D01*
X42431Y-56914D02*
X42831Y-56914D01*
X43231Y-56914D02*
X43631Y-56914D01*
X43631Y-56914D02*
X43631Y-56314D01*
X43631Y-56314D02*
X43231Y-56314D01*
X42117Y-59158D02*
G75*
G03X42117Y-59158I-50J0D01*
G74*
G01*
X41617Y-59158D02*
X42017Y-59158D01*
X42017Y-59158D02*
X42017Y-58558D01*
X42017Y-58558D02*
X41617Y-58558D01*
X41217Y-58558D02*
X40817Y-58558D01*
X40817Y-58558D02*
X40817Y-59158D01*
X40817Y-59158D02*
X41217Y-59158D01*
X40700Y-59158D02*
G75*
G03X40700Y-59158I-50J0D01*
G74*
G01*
X40200Y-59158D02*
X40600Y-59158D01*
X40600Y-59158D02*
X40600Y-58558D01*
X40600Y-58558D02*
X40200Y-58558D01*
X39800Y-58558D02*
X39400Y-58558D01*
X39400Y-58558D02*
X39400Y-59158D01*
X39400Y-59158D02*
X39800Y-59158D01*
X64125Y-56520D02*
G75*
G03X64125Y-56520I-50J0D01*
G74*
G01*
X63625Y-56520D02*
X64025Y-56520D01*
X64025Y-56520D02*
X64025Y-55920D01*
X64025Y-55920D02*
X63625Y-55920D01*
X63225Y-55920D02*
X62825Y-55920D01*
X62825Y-55920D02*
X62825Y-56520D01*
X62825Y-56520D02*
X63225Y-56520D01*
X66133Y-56166D02*
G75*
G03X66133Y-56166I-50J0D01*
G74*
G01*
X65633Y-56166D02*
X66033Y-56166D01*
X66033Y-56166D02*
X66033Y-55566D01*
X66033Y-55566D02*
X65633Y-55566D01*
X65233Y-55566D02*
X64833Y-55566D01*
X64833Y-55566D02*
X64833Y-56166D01*
X64833Y-56166D02*
X65233Y-56166D01*
X48814Y-60924D02*
G75*
G03X48814Y-60924I-50J0D01*
G74*
G01*
X48764Y-61374D02*
X48764Y-60974D01*
X48764Y-60974D02*
X48164Y-60974D01*
X48164Y-60974D02*
X48164Y-61374D01*
X48164Y-61774D02*
X48164Y-62174D01*
X48164Y-62174D02*
X48764Y-62174D01*
X48764Y-62174D02*
X48764Y-61774D01*
X47987Y-60924D02*
G75*
G03X47987Y-60924I-50J0D01*
G74*
G01*
X47937Y-61374D02*
X47937Y-60974D01*
X47937Y-60974D02*
X47337Y-60974D01*
X47337Y-60974D02*
X47337Y-61374D01*
X47337Y-61774D02*
X47337Y-62174D01*
X47337Y-62174D02*
X47937Y-62174D01*
X47937Y-62174D02*
X47937Y-61774D01*
X39478Y-60762D02*
G75*
G03X39478Y-60762I-50J0D01*
G74*
G01*
X39878Y-60762D02*
X39478Y-60762D01*
X39478Y-60762D02*
X39478Y-61362D01*
X39478Y-61362D02*
X39878Y-61362D01*
X40278Y-61362D02*
X40678Y-61362D01*
X40678Y-61362D02*
X40678Y-60762D01*
X40678Y-60762D02*
X40278Y-60762D01*
X67269Y-63484D02*
G75*
G03X67269Y-63484I-50J0D01*
G74*
G01*
X67219Y-63034D02*
X67219Y-63434D01*
X67219Y-63434D02*
X67819Y-63434D01*
X67819Y-63434D02*
X67819Y-63034D01*
X67819Y-62634D02*
X67819Y-62234D01*
X67819Y-62234D02*
X67219Y-62234D01*
X67219Y-62234D02*
X67219Y-62634D01*
X59050Y-48247D02*
G75*
G03X59050Y-48247I-50J0D01*
G74*
G01*
X59000Y-48697D02*
X59000Y-48297D01*
X59000Y-48297D02*
X58400Y-48297D01*
X58400Y-48297D02*
X58400Y-48697D01*
X58400Y-49097D02*
X58400Y-49497D01*
X58400Y-49497D02*
X59000Y-49497D01*
X59000Y-49497D02*
X59000Y-49097D01*
X68057Y-63484D02*
G75*
G03X68057Y-63484I-50J0D01*
G74*
G01*
X68007Y-63034D02*
X68007Y-63434D01*
X68007Y-63434D02*
X68607Y-63434D01*
X68607Y-63434D02*
X68607Y-63034D01*
X68607Y-62634D02*
X68607Y-62234D01*
X68607Y-62234D02*
X68007Y-62234D01*
X68007Y-62234D02*
X68007Y-62634D01*
X54439Y-51353D02*
G75*
G03X54439Y-51353I-50J0D01*
G74*
G01*
X54839Y-51353D02*
X54439Y-51353D01*
X54439Y-51353D02*
X54439Y-51953D01*
X54439Y-51953D02*
X54839Y-51953D01*
X55239Y-51953D02*
X55639Y-51953D01*
X55639Y-51953D02*
X55639Y-51353D01*
X55639Y-51353D02*
X55239Y-51353D01*
X42269Y-63563D02*
G75*
G03X42269Y-63563I-50J0D01*
G74*
G01*
X42219Y-63113D02*
X42219Y-63513D01*
X42219Y-63513D02*
X42819Y-63513D01*
X42819Y-63513D02*
X42819Y-63113D01*
X42819Y-62713D02*
X42819Y-62313D01*
X42819Y-62313D02*
X42219Y-62313D01*
X42219Y-62313D02*
X42219Y-62713D01*
X45581Y-58567D02*
G75*
G03X45581Y-58567I-50J0D01*
G74*
G01*
X45081Y-58567D02*
X45481Y-58567D01*
X45481Y-58567D02*
X45481Y-57967D01*
X45481Y-57967D02*
X45081Y-57967D01*
X44681Y-57967D02*
X44281Y-57967D01*
X44281Y-57967D02*
X44281Y-58567D01*
X44281Y-58567D02*
X44681Y-58567D01*
X44007Y-59512D02*
G75*
G03X44007Y-59512I-50J0D01*
G74*
G01*
X43507Y-59512D02*
X43907Y-59512D01*
X43907Y-59512D02*
X43907Y-58912D01*
X43907Y-58912D02*
X43507Y-58912D01*
X43107Y-58912D02*
X42707Y-58912D01*
X42707Y-58912D02*
X42707Y-59512D01*
X42707Y-59512D02*
X43107Y-59512D01*
X42707Y-57967D02*
G75*
G03X42707Y-57967I-50J0D01*
G74*
G01*
X43107Y-57967D02*
X42707Y-57967D01*
X42707Y-57967D02*
X42707Y-58567D01*
X42707Y-58567D02*
X43107Y-58567D01*
X43507Y-58567D02*
X43907Y-58567D01*
X43907Y-58567D02*
X43907Y-57967D01*
X43907Y-57967D02*
X43507Y-57967D01*
X41994Y-60610D02*
G75*
G03X41994Y-60610I-50J0D01*
G74*
G01*
X41944Y-60160D02*
X41944Y-60560D01*
X41944Y-60560D02*
X42544Y-60560D01*
X42544Y-60560D02*
X42544Y-60160D01*
X42544Y-59760D02*
X42544Y-59360D01*
X42544Y-59360D02*
X41944Y-59360D01*
X41944Y-59360D02*
X41944Y-59760D01*
X40970Y-64941D02*
G75*
G03X40970Y-64941I-50J0D01*
G74*
G01*
X40920Y-64491D02*
X40920Y-64891D01*
X40920Y-64891D02*
X41520Y-64891D01*
X41520Y-64891D02*
X41520Y-64491D01*
X41520Y-64091D02*
X41520Y-63691D01*
X41520Y-63691D02*
X40920Y-63691D01*
X40920Y-63691D02*
X40920Y-64091D01*
X40970Y-63484D02*
G75*
G03X40970Y-63484I-50J0D01*
G74*
G01*
X40920Y-63034D02*
X40920Y-63434D01*
X40920Y-63434D02*
X41520Y-63434D01*
X41520Y-63434D02*
X41520Y-63034D01*
X41520Y-62634D02*
X41520Y-62234D01*
X41520Y-62234D02*
X40920Y-62234D01*
X40920Y-62234D02*
X40920Y-62634D01*
G54D10*
X56238Y-53366D02*
X56238Y-53216D01*
X56238Y-52066D02*
X56238Y-52216D01*
X60138Y-52066D02*
X60138Y-52216D01*
X60138Y-53366D02*
X60138Y-53216D01*
X60438Y-53716D02*
X60438Y-53216D01*
X60438Y-51716D02*
X60438Y-52216D01*
X55938Y-51716D02*
X55938Y-52216D01*
X55938Y-53716D02*
X55938Y-53216D01*
X56238Y-52066D02*
X56488Y-51816D01*
X56488Y-51816D02*
X59888Y-51816D01*
X59888Y-51816D02*
X60138Y-52066D01*
X60138Y-53366D02*
X59888Y-53616D01*
X59888Y-53616D02*
X56488Y-53616D01*
X56488Y-53616D02*
X56238Y-53366D01*
X60438Y-51716D02*
X55938Y-51716D01*
X55938Y-53716D02*
X60438Y-53716D01*
G54D14*
X44518Y-64355D02*
G75*
G03X44518Y-64355I-50J0D01*
G74*
G01*
X44018Y-64355D02*
X44418Y-64355D01*
X44418Y-64355D02*
X44418Y-63755D01*
X44418Y-63755D02*
X44018Y-63755D01*
X43618Y-63755D02*
X43218Y-63755D01*
X43218Y-63755D02*
X43218Y-64355D01*
X43218Y-64355D02*
X43618Y-64355D01*
X45025Y-62461D02*
G75*
G03X45025Y-62461I-50J0D01*
G74*
G01*
X44975Y-62011D02*
X44975Y-62411D01*
X44975Y-62411D02*
X45575Y-62411D01*
X45575Y-62411D02*
X45575Y-62011D01*
X45575Y-61611D02*
X45575Y-61211D01*
X45575Y-61211D02*
X44975Y-61211D01*
X44975Y-61211D02*
X44975Y-61611D01*
X45586Y-64979D02*
G75*
G03X45586Y-64979I-50J0D01*
G74*
G01*
X45536Y-65429D02*
X45536Y-65029D01*
X45536Y-65029D02*
X44936Y-65029D01*
X44936Y-65029D02*
X44936Y-65429D01*
X44936Y-65829D02*
X44936Y-66229D01*
X44936Y-66229D02*
X45536Y-66229D01*
X45536Y-66229D02*
X45536Y-65829D01*
G54D15*
X64953Y-52139D02*
X64953Y-52298D01*
X64943Y-52317D01*
X64934Y-52326D01*
X64915Y-52335D01*
X64878Y-52335D01*
X64859Y-52326D01*
X64850Y-52317D01*
X64840Y-52298D01*
X64840Y-52139D01*
X64643Y-52335D02*
X64756Y-52335D01*
X64700Y-52335D02*
X64700Y-52139D01*
X64718Y-52167D01*
X64737Y-52185D01*
X64756Y-52195D01*
X65229Y-53135D02*
X65323Y-53135D01*
X65323Y-52939D01*
X65164Y-53135D02*
X65164Y-52939D01*
X65098Y-53079D01*
X65032Y-52939D01*
X65032Y-53135D01*
X64957Y-52939D02*
X64835Y-52939D01*
X64901Y-53014D01*
X64873Y-53014D01*
X64854Y-53023D01*
X64845Y-53032D01*
X64835Y-53051D01*
X64835Y-53098D01*
X64845Y-53117D01*
X64854Y-53126D01*
X64873Y-53135D01*
X64929Y-53135D01*
X64948Y-53126D01*
X64957Y-53117D01*
X64742Y-53135D02*
X64704Y-53135D01*
X64685Y-53126D01*
X64676Y-53117D01*
X64657Y-53089D01*
X64648Y-53051D01*
X64648Y-52976D01*
X64657Y-52957D01*
X64667Y-52948D01*
X64685Y-52939D01*
X64723Y-52939D01*
X64742Y-52948D01*
X64751Y-52957D01*
X64760Y-52976D01*
X64760Y-53023D01*
X64751Y-53042D01*
X64742Y-53051D01*
X64723Y-53060D01*
X64685Y-53060D01*
X64667Y-53051D01*
X64657Y-53042D01*
X64648Y-53023D01*
X64479Y-53004D02*
X64479Y-53135D01*
X64526Y-52929D02*
X64573Y-53070D01*
X64451Y-53070D01*
X64339Y-52939D02*
X64320Y-52939D01*
X64301Y-52948D01*
X64292Y-52957D01*
X64282Y-52976D01*
X64273Y-53014D01*
X64273Y-53060D01*
X64282Y-53098D01*
X64292Y-53117D01*
X64301Y-53126D01*
X64320Y-53135D01*
X64339Y-53135D01*
X64357Y-53126D01*
X64367Y-53117D01*
X64376Y-53098D01*
X64386Y-53060D01*
X64386Y-53014D01*
X64376Y-52976D01*
X64367Y-52957D01*
X64357Y-52948D01*
X64339Y-52939D01*
X42185Y-57461D02*
X42175Y-57442D01*
X42156Y-57424D01*
X42128Y-57395D01*
X42119Y-57377D01*
X42119Y-57358D01*
X42166Y-57367D02*
X42156Y-57349D01*
X42138Y-57330D01*
X42100Y-57320D01*
X42035Y-57320D01*
X41997Y-57330D01*
X41978Y-57349D01*
X41969Y-57367D01*
X41969Y-57405D01*
X41978Y-57424D01*
X41997Y-57442D01*
X42035Y-57452D01*
X42100Y-57452D01*
X42138Y-57442D01*
X42156Y-57424D01*
X42166Y-57405D01*
X42166Y-57367D01*
X41988Y-57527D02*
X41978Y-57536D01*
X41969Y-57555D01*
X41969Y-57602D01*
X41978Y-57620D01*
X41988Y-57630D01*
X42006Y-57639D01*
X42025Y-57639D01*
X42053Y-57630D01*
X42166Y-57517D01*
X42166Y-57639D01*
X42063Y-57129D02*
X42072Y-57157D01*
X42081Y-57166D01*
X42100Y-57175D01*
X42128Y-57175D01*
X42147Y-57166D01*
X42156Y-57157D01*
X42166Y-57138D01*
X42166Y-57063D01*
X41969Y-57063D01*
X41969Y-57129D01*
X41978Y-57147D01*
X41988Y-57157D01*
X42006Y-57166D01*
X42025Y-57166D01*
X42044Y-57157D01*
X42053Y-57147D01*
X42063Y-57129D01*
X42063Y-57063D01*
X42147Y-57372D02*
X42156Y-57363D01*
X42166Y-57335D01*
X42166Y-57316D01*
X42156Y-57288D01*
X42138Y-57269D01*
X42119Y-57260D01*
X42081Y-57250D01*
X42053Y-57250D01*
X42016Y-57260D01*
X41997Y-57269D01*
X41978Y-57288D01*
X41969Y-57316D01*
X41969Y-57335D01*
X41978Y-57363D01*
X41988Y-57372D01*
X42053Y-57485D02*
X42044Y-57466D01*
X42035Y-57457D01*
X42016Y-57447D01*
X42006Y-57447D01*
X41988Y-57457D01*
X41978Y-57466D01*
X41969Y-57485D01*
X41969Y-57522D01*
X41978Y-57541D01*
X41988Y-57550D01*
X42006Y-57560D01*
X42016Y-57560D01*
X42035Y-57550D01*
X42044Y-57541D01*
X42053Y-57522D01*
X42053Y-57485D01*
X42063Y-57466D01*
X42072Y-57457D01*
X42091Y-57447D01*
X42128Y-57447D01*
X42147Y-57457D01*
X42156Y-57466D01*
X42166Y-57485D01*
X42166Y-57522D01*
X42156Y-57541D01*
X42147Y-57550D01*
X42128Y-57560D01*
X42091Y-57560D01*
X42072Y-57550D01*
X42063Y-57541D01*
X42053Y-57522D01*
X42035Y-57729D02*
X42166Y-57729D01*
X41960Y-57682D02*
X42100Y-57635D01*
X42100Y-57757D01*
X42166Y-57841D02*
X42166Y-57879D01*
X42156Y-57897D01*
X42147Y-57907D01*
X42119Y-57925D01*
X42081Y-57935D01*
X42006Y-57935D01*
X41988Y-57925D01*
X41978Y-57916D01*
X41969Y-57897D01*
X41969Y-57860D01*
X41978Y-57841D01*
X41988Y-57832D01*
X42006Y-57822D01*
X42053Y-57822D01*
X42072Y-57832D01*
X42081Y-57841D01*
X42091Y-57860D01*
X42091Y-57897D01*
X42081Y-57916D01*
X42072Y-57925D01*
X42053Y-57935D01*
X40531Y-57382D02*
X40522Y-57364D01*
X40503Y-57345D01*
X40475Y-57317D01*
X40465Y-57298D01*
X40465Y-57279D01*
X40512Y-57289D02*
X40503Y-57270D01*
X40484Y-57251D01*
X40447Y-57242D01*
X40381Y-57242D01*
X40344Y-57251D01*
X40325Y-57270D01*
X40315Y-57289D01*
X40315Y-57326D01*
X40325Y-57345D01*
X40344Y-57364D01*
X40381Y-57373D01*
X40447Y-57373D01*
X40484Y-57364D01*
X40503Y-57345D01*
X40512Y-57326D01*
X40512Y-57289D01*
X40315Y-57439D02*
X40315Y-57560D01*
X40390Y-57495D01*
X40390Y-57523D01*
X40400Y-57542D01*
X40409Y-57551D01*
X40428Y-57560D01*
X40475Y-57560D01*
X40494Y-57551D01*
X40503Y-57542D01*
X40512Y-57523D01*
X40512Y-57467D01*
X40503Y-57448D01*
X40494Y-57439D01*
X40370Y-57060D02*
X40379Y-57089D01*
X40389Y-57098D01*
X40407Y-57107D01*
X40435Y-57107D01*
X40454Y-57098D01*
X40464Y-57089D01*
X40473Y-57070D01*
X40473Y-56995D01*
X40276Y-56995D01*
X40276Y-57060D01*
X40285Y-57079D01*
X40295Y-57089D01*
X40314Y-57098D01*
X40332Y-57098D01*
X40351Y-57089D01*
X40360Y-57079D01*
X40370Y-57060D01*
X40370Y-56995D01*
X40454Y-57304D02*
X40464Y-57295D01*
X40473Y-57267D01*
X40473Y-57248D01*
X40464Y-57220D01*
X40445Y-57201D01*
X40426Y-57192D01*
X40389Y-57182D01*
X40360Y-57182D01*
X40323Y-57192D01*
X40304Y-57201D01*
X40285Y-57220D01*
X40276Y-57248D01*
X40276Y-57267D01*
X40285Y-57295D01*
X40295Y-57304D01*
X40360Y-57417D02*
X40351Y-57398D01*
X40342Y-57389D01*
X40323Y-57379D01*
X40314Y-57379D01*
X40295Y-57389D01*
X40285Y-57398D01*
X40276Y-57417D01*
X40276Y-57454D01*
X40285Y-57473D01*
X40295Y-57482D01*
X40314Y-57492D01*
X40323Y-57492D01*
X40342Y-57482D01*
X40351Y-57473D01*
X40360Y-57454D01*
X40360Y-57417D01*
X40370Y-57398D01*
X40379Y-57389D01*
X40398Y-57379D01*
X40435Y-57379D01*
X40454Y-57389D01*
X40464Y-57398D01*
X40473Y-57417D01*
X40473Y-57454D01*
X40464Y-57473D01*
X40454Y-57482D01*
X40435Y-57492D01*
X40398Y-57492D01*
X40379Y-57482D01*
X40370Y-57473D01*
X40360Y-57454D01*
X40342Y-57660D02*
X40473Y-57660D01*
X40267Y-57614D02*
X40407Y-57567D01*
X40407Y-57689D01*
X40473Y-57773D02*
X40473Y-57810D01*
X40464Y-57829D01*
X40454Y-57839D01*
X40426Y-57857D01*
X40389Y-57867D01*
X40314Y-57867D01*
X40295Y-57857D01*
X40285Y-57848D01*
X40276Y-57829D01*
X40276Y-57792D01*
X40285Y-57773D01*
X40295Y-57764D01*
X40314Y-57754D01*
X40360Y-57754D01*
X40379Y-57764D01*
X40389Y-57773D01*
X40398Y-57792D01*
X40398Y-57829D01*
X40389Y-57848D01*
X40379Y-57857D01*
X40360Y-57867D01*
X42546Y-49528D02*
X42546Y-49331D01*
X42500Y-49331D01*
X42471Y-49341D01*
X42453Y-49359D01*
X42443Y-49378D01*
X42434Y-49416D01*
X42434Y-49444D01*
X42443Y-49481D01*
X42453Y-49500D01*
X42471Y-49519D01*
X42500Y-49528D01*
X42546Y-49528D01*
X42256Y-49331D02*
X42350Y-49331D01*
X42359Y-49425D01*
X42350Y-49416D01*
X42331Y-49406D01*
X42284Y-49406D01*
X42265Y-49416D01*
X42256Y-49425D01*
X42246Y-49444D01*
X42246Y-49491D01*
X42256Y-49509D01*
X42265Y-49519D01*
X42284Y-49528D01*
X42331Y-49528D01*
X42350Y-49519D01*
X42359Y-49509D01*
X42719Y-49425D02*
X42691Y-49434D01*
X42682Y-49444D01*
X42673Y-49462D01*
X42673Y-49491D01*
X42682Y-49509D01*
X42691Y-49519D01*
X42710Y-49528D01*
X42785Y-49528D01*
X42785Y-49331D01*
X42719Y-49331D01*
X42701Y-49341D01*
X42691Y-49350D01*
X42682Y-49369D01*
X42682Y-49387D01*
X42691Y-49406D01*
X42701Y-49416D01*
X42719Y-49425D01*
X42785Y-49425D01*
X42598Y-49472D02*
X42504Y-49472D01*
X42616Y-49528D02*
X42551Y-49331D01*
X42485Y-49528D01*
X42448Y-49331D02*
X42335Y-49331D01*
X42391Y-49528D02*
X42391Y-49331D01*
X42176Y-49331D02*
X42270Y-49331D01*
X42279Y-49425D01*
X42270Y-49416D01*
X42251Y-49406D01*
X42204Y-49406D01*
X42185Y-49416D01*
X42176Y-49425D01*
X42166Y-49444D01*
X42166Y-49491D01*
X42176Y-49509D01*
X42185Y-49519D01*
X42204Y-49528D01*
X42251Y-49528D01*
X42270Y-49519D01*
X42279Y-49509D01*
X41998Y-49397D02*
X41998Y-49528D01*
X42045Y-49322D02*
X42091Y-49462D01*
X41970Y-49462D01*
X43465Y-50602D02*
X43268Y-50602D01*
X43268Y-50649D01*
X43278Y-50677D01*
X43296Y-50696D01*
X43315Y-50705D01*
X43353Y-50715D01*
X43381Y-50715D01*
X43418Y-50705D01*
X43437Y-50696D01*
X43456Y-50677D01*
X43465Y-50649D01*
X43465Y-50602D01*
X43334Y-50883D02*
X43465Y-50883D01*
X43259Y-50837D02*
X43399Y-50790D01*
X43399Y-50912D01*
X43401Y-50390D02*
X43411Y-50418D01*
X43420Y-50427D01*
X43439Y-50437D01*
X43467Y-50437D01*
X43486Y-50427D01*
X43495Y-50418D01*
X43504Y-50399D01*
X43504Y-50324D01*
X43308Y-50324D01*
X43308Y-50390D01*
X43317Y-50409D01*
X43326Y-50418D01*
X43345Y-50427D01*
X43364Y-50427D01*
X43383Y-50418D01*
X43392Y-50409D01*
X43401Y-50390D01*
X43401Y-50324D01*
X43448Y-50512D02*
X43448Y-50605D01*
X43504Y-50493D02*
X43308Y-50558D01*
X43504Y-50624D01*
X43308Y-50662D02*
X43308Y-50774D01*
X43504Y-50718D02*
X43308Y-50718D01*
X43308Y-50933D02*
X43308Y-50840D01*
X43401Y-50830D01*
X43392Y-50840D01*
X43383Y-50858D01*
X43383Y-50905D01*
X43392Y-50924D01*
X43401Y-50933D01*
X43420Y-50943D01*
X43467Y-50943D01*
X43486Y-50933D01*
X43495Y-50924D01*
X43504Y-50905D01*
X43504Y-50858D01*
X43495Y-50840D01*
X43486Y-50830D01*
X43373Y-51112D02*
X43504Y-51112D01*
X43298Y-51065D02*
X43439Y-51018D01*
X43439Y-51140D01*
X50728Y-61108D02*
X50728Y-61015D01*
X50531Y-61015D01*
X50728Y-61277D02*
X50728Y-61165D01*
X50728Y-61221D02*
X50531Y-61221D01*
X50559Y-61202D01*
X50578Y-61183D01*
X50587Y-61165D01*
X49955Y-60785D02*
X49946Y-60794D01*
X49937Y-60813D01*
X49937Y-60860D01*
X49946Y-60879D01*
X49955Y-60888D01*
X49974Y-60898D01*
X49993Y-60898D01*
X50021Y-60888D01*
X50134Y-60776D01*
X50134Y-60898D01*
X49955Y-60973D02*
X49946Y-60982D01*
X49937Y-61001D01*
X49937Y-61047D01*
X49946Y-61066D01*
X49955Y-61076D01*
X49974Y-61085D01*
X49993Y-61085D01*
X50021Y-61076D01*
X50134Y-60963D01*
X50134Y-61085D01*
X50002Y-61169D02*
X50199Y-61169D01*
X50105Y-61263D02*
X50124Y-61272D01*
X50134Y-61291D01*
X50105Y-61169D02*
X50124Y-61179D01*
X50134Y-61197D01*
X50134Y-61235D01*
X50124Y-61254D01*
X50105Y-61263D01*
X50002Y-61263D01*
X50134Y-61376D02*
X49937Y-61376D01*
X50030Y-61376D02*
X50030Y-61488D01*
X50134Y-61488D02*
X49937Y-61488D01*
X65820Y-58877D02*
X65913Y-58877D01*
X65913Y-58680D01*
X65763Y-58699D02*
X65754Y-58690D01*
X65735Y-58680D01*
X65688Y-58680D01*
X65670Y-58690D01*
X65660Y-58699D01*
X65651Y-58718D01*
X65651Y-58737D01*
X65660Y-58765D01*
X65773Y-58877D01*
X65651Y-58877D01*
X66143Y-58105D02*
X66134Y-58096D01*
X66115Y-58086D01*
X66068Y-58086D01*
X66049Y-58096D01*
X66040Y-58105D01*
X66031Y-58124D01*
X66031Y-58143D01*
X66040Y-58171D01*
X66152Y-58283D01*
X66031Y-58283D01*
X65956Y-58105D02*
X65946Y-58096D01*
X65928Y-58086D01*
X65881Y-58086D01*
X65862Y-58096D01*
X65853Y-58105D01*
X65843Y-58124D01*
X65843Y-58143D01*
X65853Y-58171D01*
X65965Y-58283D01*
X65843Y-58283D01*
X65759Y-58152D02*
X65759Y-58349D01*
X65665Y-58255D02*
X65656Y-58274D01*
X65637Y-58283D01*
X65759Y-58255D02*
X65749Y-58274D01*
X65731Y-58283D01*
X65693Y-58283D01*
X65674Y-58274D01*
X65665Y-58255D01*
X65665Y-58152D01*
X65553Y-58283D02*
X65553Y-58086D01*
X65553Y-58180D02*
X65440Y-58180D01*
X65440Y-58283D02*
X65440Y-58086D01*
X43709Y-52386D02*
X43718Y-52396D01*
X43746Y-52405D01*
X43765Y-52405D01*
X43793Y-52396D01*
X43812Y-52377D01*
X43821Y-52358D01*
X43831Y-52321D01*
X43831Y-52293D01*
X43821Y-52255D01*
X43812Y-52236D01*
X43793Y-52218D01*
X43765Y-52208D01*
X43746Y-52208D01*
X43718Y-52218D01*
X43709Y-52227D01*
X43634Y-52227D02*
X43624Y-52218D01*
X43606Y-52208D01*
X43559Y-52208D01*
X43540Y-52218D01*
X43531Y-52227D01*
X43521Y-52246D01*
X43521Y-52265D01*
X43531Y-52293D01*
X43643Y-52405D01*
X43521Y-52405D01*
X43456Y-52208D02*
X43334Y-52208D01*
X43399Y-52283D01*
X43371Y-52283D01*
X43353Y-52293D01*
X43343Y-52302D01*
X43334Y-52321D01*
X43334Y-52368D01*
X43343Y-52386D01*
X43353Y-52396D01*
X43371Y-52405D01*
X43428Y-52405D01*
X43446Y-52396D01*
X43456Y-52386D01*
X43835Y-51827D02*
X43826Y-51818D01*
X43807Y-51808D01*
X43760Y-51808D01*
X43742Y-51818D01*
X43732Y-51827D01*
X43723Y-51846D01*
X43723Y-51865D01*
X43732Y-51893D01*
X43845Y-52005D01*
X43723Y-52005D01*
X43648Y-51827D02*
X43638Y-51818D01*
X43620Y-51808D01*
X43573Y-51808D01*
X43554Y-51818D01*
X43545Y-51827D01*
X43535Y-51846D01*
X43535Y-51865D01*
X43545Y-51893D01*
X43657Y-52005D01*
X43535Y-52005D01*
X43451Y-51874D02*
X43451Y-52071D01*
X43357Y-51977D02*
X43348Y-51996D01*
X43329Y-52005D01*
X43451Y-51977D02*
X43442Y-51996D01*
X43423Y-52005D01*
X43385Y-52005D01*
X43367Y-51996D01*
X43357Y-51977D01*
X43357Y-51874D01*
X46008Y-50085D02*
X46018Y-50075D01*
X46027Y-50047D01*
X46027Y-50029D01*
X46018Y-50000D01*
X45999Y-49982D01*
X45980Y-49972D01*
X45943Y-49963D01*
X45915Y-49963D01*
X45877Y-49972D01*
X45858Y-49982D01*
X45840Y-50000D01*
X45830Y-50029D01*
X45830Y-50047D01*
X45840Y-50075D01*
X45849Y-50085D01*
X45830Y-50254D02*
X45830Y-50216D01*
X45840Y-50197D01*
X45849Y-50188D01*
X45877Y-50169D01*
X45915Y-50160D01*
X45990Y-50160D01*
X46008Y-50169D01*
X46018Y-50179D01*
X46027Y-50197D01*
X46027Y-50235D01*
X46018Y-50254D01*
X46008Y-50263D01*
X45990Y-50272D01*
X45943Y-50272D01*
X45924Y-50263D01*
X45915Y-50254D01*
X45905Y-50235D01*
X45905Y-50197D01*
X45915Y-50179D01*
X45924Y-50169D01*
X45943Y-50160D01*
X45496Y-49958D02*
X45627Y-49958D01*
X45421Y-49911D02*
X45562Y-49865D01*
X45562Y-49986D01*
X45430Y-50043D02*
X45430Y-50174D01*
X45627Y-50089D01*
X45496Y-50249D02*
X45693Y-50249D01*
X45599Y-50343D02*
X45618Y-50352D01*
X45627Y-50371D01*
X45599Y-50249D02*
X45618Y-50258D01*
X45627Y-50277D01*
X45627Y-50314D01*
X45618Y-50333D01*
X45599Y-50343D01*
X45496Y-50343D01*
X47961Y-60260D02*
X47970Y-60270D01*
X47998Y-60279D01*
X48017Y-60279D01*
X48045Y-60270D01*
X48064Y-60251D01*
X48073Y-60232D01*
X48083Y-60195D01*
X48083Y-60167D01*
X48073Y-60129D01*
X48064Y-60110D01*
X48045Y-60092D01*
X48017Y-60082D01*
X47998Y-60082D01*
X47970Y-60092D01*
X47961Y-60101D01*
X47773Y-60279D02*
X47886Y-60279D01*
X47829Y-60279D02*
X47829Y-60082D01*
X47848Y-60110D01*
X47867Y-60129D01*
X47886Y-60139D01*
X47708Y-60082D02*
X47576Y-60082D01*
X47661Y-60279D01*
X47994Y-59748D02*
X47994Y-59879D01*
X48040Y-59673D02*
X48087Y-59814D01*
X47965Y-59814D01*
X47909Y-59682D02*
X47778Y-59682D01*
X47862Y-59879D01*
X47703Y-59748D02*
X47703Y-59945D01*
X47609Y-59851D02*
X47600Y-59870D01*
X47581Y-59879D01*
X47703Y-59851D02*
X47694Y-59870D01*
X47675Y-59879D01*
X47637Y-59879D01*
X47619Y-59870D01*
X47609Y-59851D01*
X47609Y-59748D01*
X63221Y-57183D02*
X63231Y-57193D01*
X63259Y-57202D01*
X63278Y-57202D01*
X63306Y-57193D01*
X63324Y-57174D01*
X63334Y-57155D01*
X63343Y-57118D01*
X63343Y-57090D01*
X63334Y-57052D01*
X63324Y-57033D01*
X63306Y-57015D01*
X63278Y-57005D01*
X63259Y-57005D01*
X63231Y-57015D01*
X63221Y-57024D01*
X63128Y-57202D02*
X63090Y-57202D01*
X63071Y-57193D01*
X63062Y-57183D01*
X63043Y-57155D01*
X63034Y-57118D01*
X63034Y-57043D01*
X63043Y-57024D01*
X63053Y-57015D01*
X63071Y-57005D01*
X63109Y-57005D01*
X63128Y-57015D01*
X63137Y-57024D01*
X63146Y-57043D01*
X63146Y-57090D01*
X63137Y-57108D01*
X63128Y-57118D01*
X63109Y-57127D01*
X63071Y-57127D01*
X63053Y-57118D01*
X63043Y-57108D01*
X63034Y-57090D01*
X63423Y-57602D02*
X63535Y-57602D01*
X63479Y-57602D02*
X63479Y-57405D01*
X63498Y-57433D01*
X63517Y-57452D01*
X63535Y-57461D01*
X63301Y-57405D02*
X63282Y-57405D01*
X63263Y-57415D01*
X63254Y-57424D01*
X63245Y-57443D01*
X63235Y-57480D01*
X63235Y-57527D01*
X63245Y-57565D01*
X63254Y-57583D01*
X63263Y-57593D01*
X63282Y-57602D01*
X63301Y-57602D01*
X63320Y-57593D01*
X63329Y-57583D01*
X63338Y-57565D01*
X63348Y-57527D01*
X63348Y-57480D01*
X63338Y-57443D01*
X63329Y-57424D01*
X63320Y-57415D01*
X63301Y-57405D01*
X63113Y-57405D02*
X63095Y-57405D01*
X63076Y-57415D01*
X63067Y-57424D01*
X63057Y-57443D01*
X63048Y-57480D01*
X63048Y-57527D01*
X63057Y-57565D01*
X63067Y-57583D01*
X63076Y-57593D01*
X63095Y-57602D01*
X63113Y-57602D01*
X63132Y-57593D01*
X63142Y-57583D01*
X63151Y-57565D01*
X63160Y-57527D01*
X63160Y-57480D01*
X63151Y-57443D01*
X63142Y-57424D01*
X63132Y-57415D01*
X63113Y-57405D01*
X62964Y-57471D02*
X62964Y-57668D01*
X62870Y-57574D02*
X62860Y-57593D01*
X62842Y-57602D01*
X62964Y-57574D02*
X62954Y-57593D01*
X62935Y-57602D01*
X62898Y-57602D01*
X62879Y-57593D01*
X62870Y-57574D01*
X62870Y-57471D01*
X40347Y-59821D02*
X40357Y-59830D01*
X40385Y-59840D01*
X40404Y-59840D01*
X40432Y-59830D01*
X40450Y-59812D01*
X40460Y-59793D01*
X40469Y-59755D01*
X40469Y-59727D01*
X40460Y-59690D01*
X40450Y-59671D01*
X40432Y-59652D01*
X40404Y-59643D01*
X40385Y-59643D01*
X40357Y-59652D01*
X40347Y-59662D01*
X40179Y-59709D02*
X40179Y-59840D01*
X40225Y-59634D02*
X40272Y-59774D01*
X40150Y-59774D01*
X40474Y-60109D02*
X40474Y-60240D01*
X40521Y-60034D02*
X40568Y-60174D01*
X40446Y-60174D01*
X40389Y-60043D02*
X40258Y-60043D01*
X40343Y-60240D01*
X40183Y-60109D02*
X40183Y-60305D01*
X40089Y-60212D02*
X40080Y-60230D01*
X40061Y-60240D01*
X40183Y-60212D02*
X40174Y-60230D01*
X40155Y-60240D01*
X40118Y-60240D01*
X40099Y-60230D01*
X40089Y-60212D01*
X40089Y-60109D01*
X47701Y-53692D02*
X47711Y-53682D01*
X47720Y-53654D01*
X47720Y-53636D01*
X47711Y-53607D01*
X47692Y-53589D01*
X47673Y-53579D01*
X47636Y-53570D01*
X47608Y-53570D01*
X47570Y-53579D01*
X47551Y-53589D01*
X47533Y-53607D01*
X47523Y-53636D01*
X47523Y-53654D01*
X47533Y-53682D01*
X47542Y-53692D01*
X47589Y-53861D02*
X47720Y-53861D01*
X47514Y-53814D02*
X47655Y-53767D01*
X47655Y-53889D01*
X47720Y-53973D02*
X47720Y-54011D01*
X47711Y-54029D01*
X47701Y-54039D01*
X47673Y-54057D01*
X47636Y-54067D01*
X47561Y-54067D01*
X47542Y-54057D01*
X47533Y-54048D01*
X47523Y-54029D01*
X47523Y-53992D01*
X47533Y-53973D01*
X47542Y-53964D01*
X47561Y-53954D01*
X47608Y-53954D01*
X47626Y-53964D01*
X47636Y-53973D01*
X47645Y-53992D01*
X47645Y-54029D01*
X47636Y-54048D01*
X47626Y-54057D01*
X47608Y-54067D01*
X47142Y-53565D02*
X47133Y-53575D01*
X47123Y-53593D01*
X47123Y-53640D01*
X47133Y-53659D01*
X47142Y-53668D01*
X47161Y-53678D01*
X47180Y-53678D01*
X47208Y-53668D01*
X47320Y-53556D01*
X47320Y-53678D01*
X47142Y-53753D02*
X47133Y-53762D01*
X47123Y-53781D01*
X47123Y-53828D01*
X47133Y-53847D01*
X47142Y-53856D01*
X47161Y-53865D01*
X47180Y-53865D01*
X47208Y-53856D01*
X47320Y-53743D01*
X47320Y-53865D01*
X47189Y-53950D02*
X47386Y-53950D01*
X47292Y-54043D02*
X47311Y-54053D01*
X47320Y-54071D01*
X47292Y-53950D02*
X47311Y-53959D01*
X47320Y-53978D01*
X47320Y-54015D01*
X47311Y-54034D01*
X47292Y-54043D01*
X47189Y-54043D01*
X43164Y-53643D02*
X43174Y-53652D01*
X43202Y-53662D01*
X43221Y-53662D01*
X43249Y-53652D01*
X43268Y-53634D01*
X43277Y-53615D01*
X43286Y-53577D01*
X43286Y-53549D01*
X43277Y-53512D01*
X43268Y-53493D01*
X43249Y-53474D01*
X43221Y-53465D01*
X43202Y-53465D01*
X43174Y-53474D01*
X43164Y-53484D01*
X42986Y-53465D02*
X43080Y-53465D01*
X43089Y-53559D01*
X43080Y-53549D01*
X43061Y-53540D01*
X43014Y-53540D01*
X42996Y-53549D01*
X42986Y-53559D01*
X42977Y-53577D01*
X42977Y-53624D01*
X42986Y-53643D01*
X42996Y-53652D01*
X43014Y-53662D01*
X43061Y-53662D01*
X43080Y-53652D01*
X43089Y-53643D01*
X42799Y-53465D02*
X42893Y-53465D01*
X42902Y-53559D01*
X42893Y-53549D01*
X42874Y-53540D01*
X42827Y-53540D01*
X42808Y-53549D01*
X42799Y-53559D01*
X42789Y-53577D01*
X42789Y-53624D01*
X42799Y-53643D01*
X42808Y-53652D01*
X42827Y-53662D01*
X42874Y-53662D01*
X42893Y-53652D01*
X42902Y-53643D01*
X42843Y-53362D02*
X42843Y-53249D01*
X42843Y-53306D02*
X42646Y-53306D01*
X42674Y-53287D01*
X42693Y-53268D01*
X42702Y-53249D01*
X42646Y-53484D02*
X42646Y-53503D01*
X42655Y-53521D01*
X42664Y-53531D01*
X42683Y-53540D01*
X42721Y-53549D01*
X42768Y-53549D01*
X42805Y-53540D01*
X42824Y-53531D01*
X42833Y-53521D01*
X42843Y-53503D01*
X42843Y-53484D01*
X42833Y-53465D01*
X42824Y-53456D01*
X42805Y-53446D01*
X42768Y-53437D01*
X42721Y-53437D01*
X42683Y-53446D01*
X42664Y-53456D01*
X42655Y-53465D01*
X42646Y-53484D01*
X42646Y-53671D02*
X42646Y-53690D01*
X42655Y-53709D01*
X42664Y-53718D01*
X42683Y-53727D01*
X42721Y-53737D01*
X42768Y-53737D01*
X42805Y-53727D01*
X42824Y-53718D01*
X42833Y-53709D01*
X42843Y-53690D01*
X42843Y-53671D01*
X42833Y-53652D01*
X42824Y-53643D01*
X42805Y-53634D01*
X42768Y-53624D01*
X42721Y-53624D01*
X42683Y-53634D01*
X42664Y-53643D01*
X42655Y-53652D01*
X42646Y-53671D01*
X42711Y-53821D02*
X42843Y-53821D01*
X42730Y-53821D02*
X42721Y-53831D01*
X42711Y-53849D01*
X42711Y-53877D01*
X42721Y-53896D01*
X42739Y-53906D01*
X42843Y-53906D01*
X46103Y-54407D02*
X46009Y-54342D01*
X46103Y-54295D02*
X45906Y-54295D01*
X45906Y-54370D01*
X45915Y-54389D01*
X45925Y-54398D01*
X45943Y-54407D01*
X45972Y-54407D01*
X45990Y-54398D01*
X46000Y-54389D01*
X46009Y-54370D01*
X46009Y-54295D01*
X45972Y-54576D02*
X46103Y-54576D01*
X45897Y-54529D02*
X46037Y-54482D01*
X46037Y-54604D01*
X46103Y-54689D02*
X46103Y-54726D01*
X46093Y-54745D01*
X46084Y-54754D01*
X46056Y-54773D01*
X46018Y-54782D01*
X45943Y-54782D01*
X45925Y-54773D01*
X45915Y-54764D01*
X45906Y-54745D01*
X45906Y-54707D01*
X45915Y-54689D01*
X45925Y-54679D01*
X45943Y-54670D01*
X45990Y-54670D01*
X46009Y-54679D01*
X46018Y-54689D01*
X46028Y-54707D01*
X46028Y-54745D01*
X46018Y-54764D01*
X46009Y-54773D01*
X45990Y-54782D01*
X46164Y-54142D02*
X46257Y-54142D01*
X46267Y-54236D01*
X46257Y-54226D01*
X46239Y-54217D01*
X46192Y-54217D01*
X46173Y-54226D01*
X46164Y-54236D01*
X46154Y-54254D01*
X46154Y-54301D01*
X46164Y-54320D01*
X46173Y-54329D01*
X46192Y-54339D01*
X46239Y-54339D01*
X46257Y-54329D01*
X46267Y-54320D01*
X45986Y-54142D02*
X46023Y-54142D01*
X46042Y-54151D01*
X46051Y-54161D01*
X46070Y-54189D01*
X46079Y-54226D01*
X46079Y-54301D01*
X46070Y-54320D01*
X46061Y-54329D01*
X46042Y-54339D01*
X46004Y-54339D01*
X45986Y-54329D01*
X45976Y-54320D01*
X45967Y-54301D01*
X45967Y-54254D01*
X45976Y-54236D01*
X45986Y-54226D01*
X46004Y-54217D01*
X46042Y-54217D01*
X46061Y-54226D01*
X46070Y-54236D01*
X46079Y-54254D01*
X45845Y-54142D02*
X45826Y-54142D01*
X45808Y-54151D01*
X45798Y-54161D01*
X45789Y-54179D01*
X45779Y-54217D01*
X45779Y-54264D01*
X45789Y-54301D01*
X45798Y-54320D01*
X45808Y-54329D01*
X45826Y-54339D01*
X45845Y-54339D01*
X45864Y-54329D01*
X45873Y-54320D01*
X45883Y-54301D01*
X45892Y-54264D01*
X45892Y-54217D01*
X45883Y-54179D01*
X45873Y-54161D01*
X45864Y-54151D01*
X45845Y-54142D01*
X60552Y-50848D02*
X60562Y-50857D01*
X60590Y-50867D01*
X60608Y-50867D01*
X60637Y-50857D01*
X60655Y-50838D01*
X60665Y-50820D01*
X60674Y-50782D01*
X60674Y-50754D01*
X60665Y-50717D01*
X60655Y-50698D01*
X60637Y-50679D01*
X60608Y-50670D01*
X60590Y-50670D01*
X60562Y-50679D01*
X60552Y-50688D01*
X60487Y-50670D02*
X60365Y-50670D01*
X60430Y-50745D01*
X60402Y-50745D01*
X60383Y-50754D01*
X60374Y-50763D01*
X60365Y-50782D01*
X60365Y-50829D01*
X60374Y-50848D01*
X60383Y-50857D01*
X60402Y-50867D01*
X60458Y-50867D01*
X60477Y-50857D01*
X60487Y-50848D01*
X60290Y-50688D02*
X60280Y-50679D01*
X60262Y-50670D01*
X60215Y-50670D01*
X60196Y-50679D01*
X60187Y-50688D01*
X60177Y-50707D01*
X60177Y-50726D01*
X60187Y-50754D01*
X60299Y-50867D01*
X60177Y-50867D01*
X60780Y-50660D02*
X60780Y-50548D01*
X60780Y-50604D02*
X60584Y-50604D01*
X60612Y-50585D01*
X60630Y-50567D01*
X60640Y-50548D01*
X60584Y-50829D02*
X60584Y-50792D01*
X60593Y-50773D01*
X60602Y-50763D01*
X60630Y-50745D01*
X60668Y-50735D01*
X60743Y-50735D01*
X60762Y-50745D01*
X60771Y-50754D01*
X60780Y-50773D01*
X60780Y-50810D01*
X60771Y-50829D01*
X60762Y-50838D01*
X60743Y-50848D01*
X60696Y-50848D01*
X60677Y-50838D01*
X60668Y-50829D01*
X60658Y-50810D01*
X60658Y-50773D01*
X60668Y-50754D01*
X60677Y-50745D01*
X60696Y-50735D01*
X60649Y-50932D02*
X60846Y-50932D01*
X60658Y-50932D02*
X60649Y-50951D01*
X60649Y-50988D01*
X60658Y-51007D01*
X60668Y-51017D01*
X60687Y-51026D01*
X60743Y-51026D01*
X60762Y-51017D01*
X60771Y-51007D01*
X60780Y-50988D01*
X60780Y-50951D01*
X60771Y-50932D01*
X65690Y-61401D02*
X65700Y-61392D01*
X65709Y-61364D01*
X65709Y-61345D01*
X65700Y-61317D01*
X65681Y-61298D01*
X65662Y-61289D01*
X65625Y-61280D01*
X65597Y-61280D01*
X65559Y-61289D01*
X65540Y-61298D01*
X65522Y-61317D01*
X65512Y-61345D01*
X65512Y-61364D01*
X65522Y-61392D01*
X65531Y-61401D01*
X65512Y-61467D02*
X65512Y-61589D01*
X65587Y-61523D01*
X65587Y-61551D01*
X65597Y-61570D01*
X65606Y-61580D01*
X65625Y-61589D01*
X65672Y-61589D01*
X65690Y-61580D01*
X65700Y-61570D01*
X65709Y-61551D01*
X65709Y-61495D01*
X65700Y-61476D01*
X65690Y-61467D01*
X65512Y-61767D02*
X65512Y-61673D01*
X65606Y-61664D01*
X65597Y-61673D01*
X65587Y-61692D01*
X65587Y-61739D01*
X65597Y-61758D01*
X65606Y-61767D01*
X65625Y-61776D01*
X65672Y-61776D01*
X65690Y-61767D01*
X65700Y-61758D01*
X65709Y-61739D01*
X65709Y-61692D01*
X65700Y-61673D01*
X65690Y-61664D01*
X65676Y-61883D02*
X65789Y-61883D01*
X65733Y-61883D02*
X65733Y-61686D01*
X65751Y-61714D01*
X65770Y-61733D01*
X65789Y-61742D01*
X65592Y-61751D02*
X65592Y-61948D01*
X65498Y-61855D02*
X65489Y-61873D01*
X65470Y-61883D01*
X65592Y-61855D02*
X65583Y-61873D01*
X65564Y-61883D01*
X65526Y-61883D01*
X65508Y-61873D01*
X65498Y-61855D01*
X65498Y-61751D01*
X65690Y-60535D02*
X65700Y-60526D01*
X65709Y-60498D01*
X65709Y-60479D01*
X65700Y-60451D01*
X65681Y-60432D01*
X65662Y-60423D01*
X65625Y-60413D01*
X65597Y-60413D01*
X65559Y-60423D01*
X65540Y-60432D01*
X65522Y-60451D01*
X65512Y-60479D01*
X65512Y-60498D01*
X65522Y-60526D01*
X65531Y-60535D01*
X65578Y-60704D02*
X65709Y-60704D01*
X65503Y-60657D02*
X65643Y-60610D01*
X65643Y-60732D01*
X65597Y-60835D02*
X65587Y-60817D01*
X65578Y-60807D01*
X65559Y-60798D01*
X65550Y-60798D01*
X65531Y-60807D01*
X65522Y-60817D01*
X65512Y-60835D01*
X65512Y-60873D01*
X65522Y-60892D01*
X65531Y-60901D01*
X65550Y-60910D01*
X65559Y-60910D01*
X65578Y-60901D01*
X65587Y-60892D01*
X65597Y-60873D01*
X65597Y-60835D01*
X65606Y-60817D01*
X65615Y-60807D01*
X65634Y-60798D01*
X65672Y-60798D01*
X65690Y-60807D01*
X65700Y-60817D01*
X65709Y-60835D01*
X65709Y-60873D01*
X65700Y-60892D01*
X65690Y-60901D01*
X65672Y-60910D01*
X65634Y-60910D01*
X65615Y-60901D01*
X65606Y-60892D01*
X65597Y-60873D01*
X65850Y-61017D02*
X65962Y-61017D01*
X65906Y-61017D02*
X65906Y-60820D01*
X65925Y-60848D01*
X65943Y-60867D01*
X65962Y-60876D01*
X65728Y-60820D02*
X65709Y-60820D01*
X65690Y-60829D01*
X65681Y-60838D01*
X65672Y-60857D01*
X65662Y-60895D01*
X65662Y-60942D01*
X65672Y-60979D01*
X65681Y-60998D01*
X65690Y-61007D01*
X65709Y-61017D01*
X65728Y-61017D01*
X65747Y-61007D01*
X65756Y-60998D01*
X65765Y-60979D01*
X65775Y-60942D01*
X65775Y-60895D01*
X65765Y-60857D01*
X65756Y-60838D01*
X65747Y-60829D01*
X65728Y-60820D01*
X65540Y-60820D02*
X65522Y-60820D01*
X65503Y-60829D01*
X65494Y-60838D01*
X65484Y-60857D01*
X65475Y-60895D01*
X65475Y-60942D01*
X65484Y-60979D01*
X65494Y-60998D01*
X65503Y-61007D01*
X65522Y-61017D01*
X65540Y-61017D01*
X65559Y-61007D01*
X65568Y-60998D01*
X65578Y-60979D01*
X65587Y-60942D01*
X65587Y-60895D01*
X65578Y-60857D01*
X65568Y-60838D01*
X65559Y-60829D01*
X65540Y-60820D01*
X65390Y-60885D02*
X65390Y-61017D01*
X65390Y-60904D02*
X65381Y-60895D01*
X65362Y-60885D01*
X65334Y-60885D01*
X65315Y-60895D01*
X65306Y-60913D01*
X65306Y-61017D01*
X40401Y-48810D02*
X40307Y-48744D01*
X40401Y-48697D02*
X40204Y-48697D01*
X40204Y-48772D01*
X40214Y-48791D01*
X40223Y-48801D01*
X40242Y-48810D01*
X40270Y-48810D01*
X40289Y-48801D01*
X40298Y-48791D01*
X40307Y-48772D01*
X40307Y-48697D01*
X40204Y-48876D02*
X40204Y-49007D01*
X40401Y-48922D01*
X40204Y-49176D02*
X40204Y-49082D01*
X40298Y-49072D01*
X40289Y-49082D01*
X40279Y-49101D01*
X40279Y-49147D01*
X40289Y-49166D01*
X40298Y-49176D01*
X40317Y-49185D01*
X40364Y-49185D01*
X40382Y-49176D01*
X40392Y-49166D01*
X40401Y-49147D01*
X40401Y-49101D01*
X40392Y-49082D01*
X40382Y-49072D01*
X39995Y-48801D02*
X40126Y-48801D01*
X39920Y-48754D02*
X40060Y-48707D01*
X40060Y-48829D01*
X39929Y-48885D02*
X39929Y-49016D01*
X40126Y-48932D01*
X40126Y-49091D02*
X39929Y-49091D01*
X40051Y-49110D02*
X40126Y-49166D01*
X39995Y-49166D02*
X40070Y-49091D01*
X47198Y-50267D02*
X47105Y-50201D01*
X47198Y-50154D02*
X47001Y-50154D01*
X47001Y-50229D01*
X47011Y-50248D01*
X47020Y-50257D01*
X47039Y-50267D01*
X47067Y-50267D01*
X47086Y-50257D01*
X47095Y-50248D01*
X47105Y-50229D01*
X47105Y-50154D01*
X47198Y-50454D02*
X47198Y-50342D01*
X47198Y-50398D02*
X47001Y-50398D01*
X47030Y-50379D01*
X47048Y-50360D01*
X47058Y-50342D01*
X47067Y-50623D02*
X47198Y-50623D01*
X46992Y-50576D02*
X47133Y-50529D01*
X47133Y-50651D01*
X47473Y-50276D02*
X47473Y-50164D01*
X47473Y-50220D02*
X47276Y-50220D01*
X47305Y-50201D01*
X47323Y-50182D01*
X47333Y-50164D01*
X47276Y-50398D02*
X47276Y-50417D01*
X47286Y-50435D01*
X47295Y-50445D01*
X47314Y-50454D01*
X47351Y-50464D01*
X47398Y-50464D01*
X47436Y-50454D01*
X47455Y-50445D01*
X47464Y-50435D01*
X47473Y-50417D01*
X47473Y-50398D01*
X47464Y-50379D01*
X47455Y-50370D01*
X47436Y-50360D01*
X47398Y-50351D01*
X47351Y-50351D01*
X47314Y-50360D01*
X47295Y-50370D01*
X47286Y-50379D01*
X47276Y-50398D01*
X47473Y-50548D02*
X47276Y-50548D01*
X47398Y-50567D02*
X47473Y-50623D01*
X47342Y-50623D02*
X47417Y-50548D01*
X44929Y-50227D02*
X44835Y-50162D01*
X44929Y-50115D02*
X44732Y-50115D01*
X44732Y-50190D01*
X44741Y-50209D01*
X44750Y-50218D01*
X44769Y-50227D01*
X44797Y-50227D01*
X44816Y-50218D01*
X44825Y-50209D01*
X44835Y-50190D01*
X44835Y-50115D01*
X44929Y-50415D02*
X44929Y-50302D01*
X44929Y-50359D02*
X44732Y-50359D01*
X44760Y-50340D01*
X44779Y-50321D01*
X44788Y-50302D01*
X44732Y-50480D02*
X44732Y-50612D01*
X44929Y-50527D01*
X44654Y-50143D02*
X44654Y-50030D01*
X44654Y-50087D02*
X44457Y-50087D01*
X44485Y-50068D01*
X44504Y-50049D01*
X44513Y-50030D01*
X44457Y-50265D02*
X44457Y-50284D01*
X44466Y-50302D01*
X44475Y-50312D01*
X44494Y-50321D01*
X44532Y-50330D01*
X44579Y-50330D01*
X44616Y-50321D01*
X44635Y-50312D01*
X44644Y-50302D01*
X44654Y-50284D01*
X44654Y-50265D01*
X44644Y-50246D01*
X44635Y-50237D01*
X44616Y-50227D01*
X44579Y-50218D01*
X44532Y-50218D01*
X44494Y-50227D01*
X44475Y-50237D01*
X44466Y-50246D01*
X44457Y-50265D01*
X44457Y-50452D02*
X44457Y-50471D01*
X44466Y-50490D01*
X44475Y-50499D01*
X44494Y-50508D01*
X44532Y-50518D01*
X44579Y-50518D01*
X44616Y-50508D01*
X44635Y-50499D01*
X44644Y-50490D01*
X44654Y-50471D01*
X44654Y-50452D01*
X44644Y-50434D01*
X44635Y-50424D01*
X44616Y-50415D01*
X44579Y-50405D01*
X44532Y-50405D01*
X44494Y-50415D01*
X44475Y-50424D01*
X44466Y-50434D01*
X44457Y-50452D01*
X44654Y-50602D02*
X44457Y-50602D01*
X44579Y-50621D02*
X44654Y-50677D01*
X44522Y-50677D02*
X44597Y-50602D01*
X45473Y-51835D02*
X45379Y-51769D01*
X45473Y-51722D02*
X45276Y-51722D01*
X45276Y-51797D01*
X45285Y-51816D01*
X45295Y-51825D01*
X45314Y-51835D01*
X45342Y-51835D01*
X45360Y-51825D01*
X45370Y-51816D01*
X45379Y-51797D01*
X45379Y-51722D01*
X45276Y-51900D02*
X45276Y-52022D01*
X45351Y-51956D01*
X45351Y-51985D01*
X45360Y-52003D01*
X45370Y-52013D01*
X45389Y-52022D01*
X45435Y-52022D01*
X45454Y-52013D01*
X45464Y-52003D01*
X45473Y-51985D01*
X45473Y-51928D01*
X45464Y-51910D01*
X45454Y-51900D01*
X45342Y-52191D02*
X45473Y-52191D01*
X45267Y-52144D02*
X45407Y-52097D01*
X45407Y-52219D01*
X45567Y-52119D02*
X45660Y-52119D01*
X45670Y-52213D01*
X45660Y-52203D01*
X45642Y-52194D01*
X45595Y-52194D01*
X45576Y-52203D01*
X45567Y-52213D01*
X45557Y-52231D01*
X45557Y-52278D01*
X45567Y-52297D01*
X45576Y-52306D01*
X45595Y-52316D01*
X45642Y-52316D01*
X45660Y-52306D01*
X45670Y-52297D01*
X45464Y-52306D02*
X45464Y-52316D01*
X45473Y-52335D01*
X45482Y-52344D01*
X45295Y-52119D02*
X45332Y-52119D01*
X45351Y-52128D01*
X45360Y-52138D01*
X45379Y-52166D01*
X45389Y-52203D01*
X45389Y-52278D01*
X45379Y-52297D01*
X45370Y-52306D01*
X45351Y-52316D01*
X45314Y-52316D01*
X45295Y-52306D01*
X45285Y-52297D01*
X45276Y-52278D01*
X45276Y-52231D01*
X45285Y-52213D01*
X45295Y-52203D01*
X45314Y-52194D01*
X45351Y-52194D01*
X45370Y-52203D01*
X45379Y-52213D01*
X45389Y-52231D01*
X45192Y-52316D02*
X45192Y-52119D01*
X45173Y-52241D02*
X45117Y-52316D01*
X45117Y-52185D02*
X45192Y-52260D01*
X40966Y-54565D02*
X40975Y-54556D01*
X40985Y-54527D01*
X40985Y-54509D01*
X40975Y-54481D01*
X40957Y-54462D01*
X40938Y-54452D01*
X40900Y-54443D01*
X40872Y-54443D01*
X40835Y-54452D01*
X40816Y-54462D01*
X40797Y-54481D01*
X40788Y-54509D01*
X40788Y-54527D01*
X40797Y-54556D01*
X40807Y-54565D01*
X40788Y-54743D02*
X40788Y-54649D01*
X40882Y-54640D01*
X40872Y-54649D01*
X40863Y-54668D01*
X40863Y-54715D01*
X40872Y-54734D01*
X40882Y-54743D01*
X40900Y-54752D01*
X40947Y-54752D01*
X40966Y-54743D01*
X40975Y-54734D01*
X40985Y-54715D01*
X40985Y-54668D01*
X40975Y-54649D01*
X40966Y-54640D01*
X40788Y-54921D02*
X40788Y-54884D01*
X40797Y-54865D01*
X40807Y-54855D01*
X40835Y-54837D01*
X40872Y-54827D01*
X40947Y-54827D01*
X40966Y-54837D01*
X40975Y-54846D01*
X40985Y-54865D01*
X40985Y-54902D01*
X40975Y-54921D01*
X40966Y-54930D01*
X40947Y-54940D01*
X40900Y-54940D01*
X40882Y-54930D01*
X40872Y-54921D01*
X40863Y-54902D01*
X40863Y-54865D01*
X40872Y-54846D01*
X40882Y-54837D01*
X40900Y-54827D01*
X41050Y-54299D02*
X41088Y-54299D01*
X41107Y-54309D01*
X41116Y-54318D01*
X41135Y-54346D01*
X41144Y-54384D01*
X41144Y-54459D01*
X41135Y-54477D01*
X41125Y-54487D01*
X41107Y-54496D01*
X41069Y-54496D01*
X41050Y-54487D01*
X41041Y-54477D01*
X41032Y-54459D01*
X41032Y-54412D01*
X41041Y-54393D01*
X41050Y-54384D01*
X41069Y-54374D01*
X41107Y-54374D01*
X41125Y-54384D01*
X41135Y-54393D01*
X41144Y-54412D01*
X40919Y-54384D02*
X40938Y-54374D01*
X40947Y-54365D01*
X40957Y-54346D01*
X40957Y-54337D01*
X40947Y-54318D01*
X40938Y-54309D01*
X40919Y-54299D01*
X40882Y-54299D01*
X40863Y-54309D01*
X40853Y-54318D01*
X40844Y-54337D01*
X40844Y-54346D01*
X40853Y-54365D01*
X40863Y-54374D01*
X40882Y-54384D01*
X40919Y-54384D01*
X40938Y-54393D01*
X40947Y-54402D01*
X40957Y-54421D01*
X40957Y-54459D01*
X40947Y-54477D01*
X40938Y-54487D01*
X40919Y-54496D01*
X40882Y-54496D01*
X40863Y-54487D01*
X40853Y-54477D01*
X40844Y-54459D01*
X40844Y-54421D01*
X40853Y-54402D01*
X40863Y-54393D01*
X40882Y-54384D01*
X40760Y-54365D02*
X40760Y-54562D01*
X40760Y-54374D02*
X40741Y-54365D01*
X40703Y-54365D01*
X40685Y-54374D01*
X40675Y-54384D01*
X40666Y-54402D01*
X40666Y-54459D01*
X40675Y-54477D01*
X40685Y-54487D01*
X40703Y-54496D01*
X40741Y-54496D01*
X40760Y-54487D01*
X45197Y-55378D02*
X45104Y-55312D01*
X45197Y-55265D02*
X45000Y-55265D01*
X45000Y-55340D01*
X45010Y-55359D01*
X45019Y-55369D01*
X45038Y-55378D01*
X45066Y-55378D01*
X45085Y-55369D01*
X45094Y-55359D01*
X45104Y-55340D01*
X45104Y-55265D01*
X45000Y-55547D02*
X45000Y-55509D01*
X45010Y-55490D01*
X45019Y-55481D01*
X45047Y-55462D01*
X45085Y-55453D01*
X45160Y-55453D01*
X45179Y-55462D01*
X45188Y-55472D01*
X45197Y-55490D01*
X45197Y-55528D01*
X45188Y-55547D01*
X45179Y-55556D01*
X45160Y-55565D01*
X45113Y-55565D01*
X45094Y-55556D01*
X45085Y-55547D01*
X45075Y-55528D01*
X45075Y-55490D01*
X45085Y-55472D01*
X45094Y-55462D01*
X45113Y-55453D01*
X45000Y-55631D02*
X45000Y-55762D01*
X45197Y-55678D01*
X45329Y-55859D02*
X45441Y-55859D01*
X45385Y-55859D02*
X45385Y-55662D01*
X45404Y-55690D01*
X45422Y-55709D01*
X45441Y-55718D01*
X45207Y-55662D02*
X45188Y-55662D01*
X45169Y-55672D01*
X45160Y-55681D01*
X45150Y-55700D01*
X45141Y-55737D01*
X45141Y-55784D01*
X45150Y-55822D01*
X45160Y-55840D01*
X45169Y-55850D01*
X45188Y-55859D01*
X45207Y-55859D01*
X45225Y-55850D01*
X45235Y-55840D01*
X45244Y-55822D01*
X45254Y-55784D01*
X45254Y-55737D01*
X45244Y-55700D01*
X45235Y-55681D01*
X45225Y-55672D01*
X45207Y-55662D01*
X45019Y-55662D02*
X45000Y-55662D01*
X44982Y-55672D01*
X44972Y-55681D01*
X44963Y-55700D01*
X44954Y-55737D01*
X44954Y-55784D01*
X44963Y-55822D01*
X44972Y-55840D01*
X44982Y-55850D01*
X45000Y-55859D01*
X45019Y-55859D01*
X45038Y-55850D01*
X45047Y-55840D01*
X45057Y-55822D01*
X45066Y-55784D01*
X45066Y-55737D01*
X45057Y-55700D01*
X45047Y-55681D01*
X45038Y-55672D01*
X45019Y-55662D01*
X44869Y-55859D02*
X44869Y-55662D01*
X44850Y-55784D02*
X44794Y-55859D01*
X44794Y-55728D02*
X44869Y-55803D01*
X44070Y-55315D02*
X44136Y-55222D01*
X44182Y-55315D02*
X44182Y-55119D01*
X44107Y-55119D01*
X44089Y-55128D01*
X44079Y-55137D01*
X44070Y-55156D01*
X44070Y-55184D01*
X44079Y-55203D01*
X44089Y-55212D01*
X44107Y-55222D01*
X44182Y-55222D01*
X43901Y-55119D02*
X43939Y-55119D01*
X43957Y-55128D01*
X43967Y-55137D01*
X43986Y-55165D01*
X43995Y-55203D01*
X43995Y-55278D01*
X43986Y-55297D01*
X43976Y-55306D01*
X43957Y-55315D01*
X43920Y-55315D01*
X43901Y-55306D01*
X43892Y-55297D01*
X43882Y-55278D01*
X43882Y-55231D01*
X43892Y-55212D01*
X43901Y-55203D01*
X43920Y-55194D01*
X43957Y-55194D01*
X43976Y-55203D01*
X43986Y-55212D01*
X43995Y-55231D01*
X43789Y-55315D02*
X43751Y-55315D01*
X43732Y-55306D01*
X43723Y-55297D01*
X43704Y-55269D01*
X43695Y-55231D01*
X43695Y-55156D01*
X43704Y-55137D01*
X43714Y-55128D01*
X43732Y-55119D01*
X43770Y-55119D01*
X43789Y-55128D01*
X43798Y-55137D01*
X43807Y-55156D01*
X43807Y-55203D01*
X43798Y-55222D01*
X43789Y-55231D01*
X43770Y-55240D01*
X43732Y-55240D01*
X43714Y-55231D01*
X43704Y-55222D01*
X43695Y-55203D01*
X43748Y-55025D02*
X43748Y-54912D01*
X43748Y-54969D02*
X43551Y-54969D01*
X43579Y-54950D01*
X43598Y-54931D01*
X43607Y-54912D01*
X43551Y-55147D02*
X43551Y-55165D01*
X43561Y-55184D01*
X43570Y-55194D01*
X43589Y-55203D01*
X43626Y-55212D01*
X43673Y-55212D01*
X43711Y-55203D01*
X43729Y-55194D01*
X43739Y-55184D01*
X43748Y-55165D01*
X43748Y-55147D01*
X43739Y-55128D01*
X43729Y-55119D01*
X43711Y-55109D01*
X43673Y-55100D01*
X43626Y-55100D01*
X43589Y-55109D01*
X43570Y-55119D01*
X43561Y-55128D01*
X43551Y-55147D01*
X43551Y-55334D02*
X43551Y-55353D01*
X43561Y-55372D01*
X43570Y-55381D01*
X43589Y-55390D01*
X43626Y-55400D01*
X43673Y-55400D01*
X43711Y-55390D01*
X43729Y-55381D01*
X43739Y-55372D01*
X43748Y-55353D01*
X43748Y-55334D01*
X43739Y-55315D01*
X43729Y-55306D01*
X43711Y-55297D01*
X43673Y-55287D01*
X43626Y-55287D01*
X43589Y-55297D01*
X43570Y-55306D01*
X43561Y-55315D01*
X43551Y-55334D01*
X43748Y-55484D02*
X43551Y-55484D01*
X43673Y-55503D02*
X43748Y-55559D01*
X43617Y-55559D02*
X43692Y-55484D01*
X41793Y-55496D02*
X41802Y-55487D01*
X41811Y-55458D01*
X41811Y-55440D01*
X41802Y-55412D01*
X41783Y-55393D01*
X41765Y-55383D01*
X41727Y-55374D01*
X41699Y-55374D01*
X41661Y-55383D01*
X41643Y-55393D01*
X41624Y-55412D01*
X41615Y-55440D01*
X41615Y-55458D01*
X41624Y-55487D01*
X41633Y-55496D01*
X41615Y-55562D02*
X41615Y-55693D01*
X41811Y-55608D01*
X41615Y-55805D02*
X41615Y-55824D01*
X41624Y-55843D01*
X41633Y-55852D01*
X41652Y-55862D01*
X41690Y-55871D01*
X41736Y-55871D01*
X41774Y-55862D01*
X41793Y-55852D01*
X41802Y-55843D01*
X41811Y-55824D01*
X41811Y-55805D01*
X41802Y-55787D01*
X41793Y-55777D01*
X41774Y-55768D01*
X41736Y-55758D01*
X41690Y-55758D01*
X41652Y-55768D01*
X41633Y-55777D01*
X41624Y-55787D01*
X41615Y-55805D01*
X41872Y-55977D02*
X41985Y-55977D01*
X41929Y-55977D02*
X41929Y-55780D01*
X41947Y-55808D01*
X41966Y-55827D01*
X41985Y-55837D01*
X41751Y-55780D02*
X41732Y-55780D01*
X41713Y-55790D01*
X41704Y-55799D01*
X41694Y-55818D01*
X41685Y-55855D01*
X41685Y-55902D01*
X41694Y-55940D01*
X41704Y-55958D01*
X41713Y-55968D01*
X41732Y-55977D01*
X41751Y-55977D01*
X41769Y-55968D01*
X41779Y-55958D01*
X41788Y-55940D01*
X41797Y-55902D01*
X41797Y-55855D01*
X41788Y-55818D01*
X41779Y-55799D01*
X41769Y-55790D01*
X41751Y-55780D01*
X41601Y-55846D02*
X41601Y-56043D01*
X41507Y-55949D02*
X41497Y-55968D01*
X41479Y-55977D01*
X41601Y-55949D02*
X41591Y-55968D01*
X41572Y-55977D01*
X41535Y-55977D01*
X41516Y-55968D01*
X41507Y-55949D01*
X41507Y-55846D01*
X41385Y-48810D02*
X41292Y-48744D01*
X41385Y-48697D02*
X41188Y-48697D01*
X41188Y-48772D01*
X41198Y-48791D01*
X41207Y-48801D01*
X41226Y-48810D01*
X41254Y-48810D01*
X41273Y-48801D01*
X41282Y-48791D01*
X41292Y-48772D01*
X41292Y-48697D01*
X41385Y-48997D02*
X41385Y-48885D01*
X41385Y-48941D02*
X41188Y-48941D01*
X41217Y-48922D01*
X41235Y-48904D01*
X41245Y-48885D01*
X41207Y-49072D02*
X41198Y-49082D01*
X41188Y-49101D01*
X41188Y-49147D01*
X41198Y-49166D01*
X41207Y-49176D01*
X41226Y-49185D01*
X41245Y-49185D01*
X41273Y-49176D01*
X41385Y-49063D01*
X41385Y-49185D01*
X40979Y-48801D02*
X41110Y-48801D01*
X40904Y-48754D02*
X41045Y-48707D01*
X41045Y-48829D01*
X40913Y-48885D02*
X40913Y-49016D01*
X41110Y-48932D01*
X41110Y-49091D02*
X40913Y-49091D01*
X41035Y-49110D02*
X41110Y-49166D01*
X40979Y-49166D02*
X41054Y-49091D01*
X42993Y-60850D02*
X42899Y-60785D01*
X42993Y-60738D02*
X42796Y-60738D01*
X42796Y-60813D01*
X42805Y-60832D01*
X42814Y-60841D01*
X42833Y-60850D01*
X42861Y-60850D01*
X42880Y-60841D01*
X42889Y-60832D01*
X42899Y-60813D01*
X42899Y-60738D01*
X42814Y-60925D02*
X42805Y-60935D01*
X42796Y-60953D01*
X42796Y-61000D01*
X42805Y-61019D01*
X42814Y-61028D01*
X42833Y-61038D01*
X42852Y-61038D01*
X42880Y-61028D01*
X42993Y-60916D01*
X42993Y-61038D01*
X42993Y-61225D02*
X42993Y-61113D01*
X42993Y-61169D02*
X42796Y-61169D01*
X42824Y-61150D01*
X42843Y-61132D01*
X42852Y-61113D01*
X43124Y-61332D02*
X43236Y-61332D01*
X43180Y-61332D02*
X43180Y-61135D01*
X43199Y-61163D01*
X43218Y-61182D01*
X43236Y-61191D01*
X43002Y-61135D02*
X42983Y-61135D01*
X42964Y-61144D01*
X42955Y-61153D01*
X42946Y-61172D01*
X42936Y-61210D01*
X42936Y-61257D01*
X42946Y-61294D01*
X42955Y-61313D01*
X42964Y-61322D01*
X42983Y-61332D01*
X43002Y-61332D01*
X43021Y-61322D01*
X43030Y-61313D01*
X43039Y-61294D01*
X43049Y-61257D01*
X43049Y-61210D01*
X43039Y-61172D01*
X43030Y-61153D01*
X43021Y-61144D01*
X43002Y-61135D01*
X42814Y-61135D02*
X42796Y-61135D01*
X42777Y-61144D01*
X42768Y-61153D01*
X42758Y-61172D01*
X42749Y-61210D01*
X42749Y-61257D01*
X42758Y-61294D01*
X42768Y-61313D01*
X42777Y-61322D01*
X42796Y-61332D01*
X42814Y-61332D01*
X42833Y-61322D01*
X42843Y-61313D01*
X42852Y-61294D01*
X42861Y-61257D01*
X42861Y-61210D01*
X42852Y-61172D01*
X42843Y-61153D01*
X42833Y-61144D01*
X42814Y-61135D01*
X42664Y-61332D02*
X42664Y-61135D01*
X42646Y-61257D02*
X42589Y-61332D01*
X42589Y-61200D02*
X42664Y-61275D01*
X39922Y-56300D02*
X39988Y-56206D01*
X40035Y-56300D02*
X40035Y-56103D01*
X39960Y-56103D01*
X39941Y-56112D01*
X39932Y-56122D01*
X39922Y-56140D01*
X39922Y-56168D01*
X39932Y-56187D01*
X39941Y-56197D01*
X39960Y-56206D01*
X40035Y-56206D01*
X39735Y-56300D02*
X39847Y-56300D01*
X39791Y-56300D02*
X39791Y-56103D01*
X39810Y-56131D01*
X39829Y-56150D01*
X39847Y-56159D01*
X39669Y-56103D02*
X39547Y-56103D01*
X39613Y-56178D01*
X39585Y-56178D01*
X39566Y-56187D01*
X39557Y-56197D01*
X39547Y-56215D01*
X39547Y-56262D01*
X39557Y-56281D01*
X39566Y-56290D01*
X39585Y-56300D01*
X39641Y-56300D01*
X39660Y-56290D01*
X39669Y-56281D01*
X40150Y-56103D02*
X40150Y-55990D01*
X40150Y-56047D02*
X39954Y-56047D01*
X39982Y-56028D01*
X40000Y-56009D01*
X40010Y-55990D01*
X39954Y-56225D02*
X39954Y-56243D01*
X39963Y-56262D01*
X39972Y-56272D01*
X39991Y-56281D01*
X40029Y-56290D01*
X40075Y-56290D01*
X40113Y-56281D01*
X40132Y-56272D01*
X40141Y-56262D01*
X40150Y-56243D01*
X40150Y-56225D01*
X40141Y-56206D01*
X40132Y-56197D01*
X40113Y-56187D01*
X40075Y-56178D01*
X40029Y-56178D01*
X39991Y-56187D01*
X39972Y-56197D01*
X39963Y-56206D01*
X39954Y-56225D01*
X40150Y-56375D02*
X39954Y-56375D01*
X40075Y-56393D02*
X40150Y-56450D01*
X40019Y-56450D02*
X40094Y-56375D01*
X43111Y-56706D02*
X43017Y-56640D01*
X43111Y-56593D02*
X42914Y-56593D01*
X42914Y-56668D01*
X42923Y-56687D01*
X42933Y-56696D01*
X42951Y-56706D01*
X42979Y-56706D01*
X42998Y-56696D01*
X43008Y-56687D01*
X43017Y-56668D01*
X43017Y-56593D01*
X43111Y-56800D02*
X43111Y-56837D01*
X43101Y-56856D01*
X43092Y-56865D01*
X43064Y-56884D01*
X43026Y-56893D01*
X42951Y-56893D01*
X42933Y-56884D01*
X42923Y-56875D01*
X42914Y-56856D01*
X42914Y-56818D01*
X42923Y-56800D01*
X42933Y-56790D01*
X42951Y-56781D01*
X42998Y-56781D01*
X43017Y-56790D01*
X43026Y-56800D01*
X43036Y-56818D01*
X43036Y-56856D01*
X43026Y-56875D01*
X43017Y-56884D01*
X42998Y-56893D01*
X43054Y-56543D02*
X43167Y-56543D01*
X43111Y-56543D02*
X43111Y-56347D01*
X43129Y-56375D01*
X43148Y-56393D01*
X43167Y-56403D01*
X42970Y-56543D02*
X42970Y-56347D01*
X42951Y-56468D02*
X42895Y-56543D01*
X42895Y-56412D02*
X42970Y-56487D01*
X41497Y-58700D02*
X41403Y-58634D01*
X41497Y-58587D02*
X41300Y-58587D01*
X41300Y-58662D01*
X41309Y-58681D01*
X41318Y-58691D01*
X41337Y-58700D01*
X41365Y-58700D01*
X41384Y-58691D01*
X41393Y-58681D01*
X41403Y-58662D01*
X41403Y-58587D01*
X41318Y-58775D02*
X41309Y-58784D01*
X41300Y-58803D01*
X41300Y-58850D01*
X41309Y-58869D01*
X41318Y-58878D01*
X41337Y-58887D01*
X41356Y-58887D01*
X41384Y-58878D01*
X41497Y-58766D01*
X41497Y-58887D01*
X41534Y-59087D02*
X41646Y-59087D01*
X41590Y-59087D02*
X41590Y-58891D01*
X41609Y-58919D01*
X41628Y-58937D01*
X41646Y-58947D01*
X41412Y-58891D02*
X41393Y-58891D01*
X41375Y-58900D01*
X41365Y-58909D01*
X41356Y-58928D01*
X41347Y-58966D01*
X41347Y-59012D01*
X41356Y-59050D01*
X41365Y-59069D01*
X41375Y-59078D01*
X41393Y-59087D01*
X41412Y-59087D01*
X41431Y-59078D01*
X41440Y-59069D01*
X41450Y-59050D01*
X41459Y-59012D01*
X41459Y-58966D01*
X41450Y-58928D01*
X41440Y-58909D01*
X41431Y-58900D01*
X41412Y-58891D01*
X41262Y-59087D02*
X41262Y-58891D01*
X41243Y-59012D02*
X41187Y-59087D01*
X41187Y-58956D02*
X41262Y-59031D01*
X40079Y-58700D02*
X39985Y-58634D01*
X40079Y-58587D02*
X39882Y-58587D01*
X39882Y-58662D01*
X39892Y-58681D01*
X39901Y-58691D01*
X39920Y-58700D01*
X39948Y-58700D01*
X39967Y-58691D01*
X39976Y-58681D01*
X39985Y-58662D01*
X39985Y-58587D01*
X39882Y-58766D02*
X39882Y-58887D01*
X39957Y-58822D01*
X39957Y-58850D01*
X39967Y-58869D01*
X39976Y-58878D01*
X39995Y-58887D01*
X40042Y-58887D01*
X40060Y-58878D01*
X40070Y-58869D01*
X40079Y-58850D01*
X40079Y-58794D01*
X40070Y-58775D01*
X40060Y-58766D01*
X40210Y-59087D02*
X40323Y-59087D01*
X40267Y-59087D02*
X40267Y-58891D01*
X40285Y-58919D01*
X40304Y-58937D01*
X40323Y-58947D01*
X40089Y-58891D02*
X40070Y-58891D01*
X40051Y-58900D01*
X40042Y-58909D01*
X40032Y-58928D01*
X40023Y-58966D01*
X40023Y-59012D01*
X40032Y-59050D01*
X40042Y-59069D01*
X40051Y-59078D01*
X40070Y-59087D01*
X40089Y-59087D01*
X40107Y-59078D01*
X40117Y-59069D01*
X40126Y-59050D01*
X40135Y-59012D01*
X40135Y-58966D01*
X40126Y-58928D01*
X40117Y-58909D01*
X40107Y-58900D01*
X40089Y-58891D01*
X39901Y-58891D02*
X39882Y-58891D01*
X39864Y-58900D01*
X39854Y-58909D01*
X39845Y-58928D01*
X39835Y-58966D01*
X39835Y-59012D01*
X39845Y-59050D01*
X39854Y-59069D01*
X39864Y-59078D01*
X39882Y-59087D01*
X39901Y-59087D01*
X39920Y-59078D01*
X39929Y-59069D01*
X39939Y-59050D01*
X39948Y-59012D01*
X39948Y-58966D01*
X39939Y-58928D01*
X39929Y-58909D01*
X39920Y-58900D01*
X39901Y-58891D01*
X39751Y-59087D02*
X39751Y-58891D01*
X39732Y-59012D02*
X39676Y-59087D01*
X39676Y-58956D02*
X39751Y-59031D01*
X63486Y-56062D02*
X63495Y-56053D01*
X63504Y-56025D01*
X63504Y-56006D01*
X63495Y-55978D01*
X63476Y-55959D01*
X63458Y-55950D01*
X63420Y-55940D01*
X63392Y-55940D01*
X63354Y-55950D01*
X63336Y-55959D01*
X63317Y-55978D01*
X63308Y-56006D01*
X63308Y-56025D01*
X63317Y-56053D01*
X63326Y-56062D01*
X63308Y-56240D02*
X63308Y-56147D01*
X63401Y-56137D01*
X63392Y-56147D01*
X63383Y-56165D01*
X63383Y-56212D01*
X63392Y-56231D01*
X63401Y-56240D01*
X63420Y-56250D01*
X63467Y-56250D01*
X63486Y-56240D01*
X63495Y-56231D01*
X63504Y-56212D01*
X63504Y-56165D01*
X63495Y-56147D01*
X63486Y-56137D01*
X63472Y-56450D02*
X63584Y-56450D01*
X63528Y-56450D02*
X63528Y-56253D01*
X63547Y-56281D01*
X63565Y-56300D01*
X63584Y-56309D01*
X63387Y-56318D02*
X63387Y-56515D01*
X63293Y-56422D02*
X63284Y-56440D01*
X63265Y-56450D01*
X63387Y-56422D02*
X63378Y-56440D01*
X63359Y-56450D01*
X63322Y-56450D01*
X63303Y-56440D01*
X63293Y-56422D01*
X63293Y-56318D01*
X65494Y-55708D02*
X65503Y-55698D01*
X65512Y-55670D01*
X65512Y-55652D01*
X65503Y-55623D01*
X65484Y-55605D01*
X65465Y-55595D01*
X65428Y-55586D01*
X65400Y-55586D01*
X65362Y-55595D01*
X65344Y-55605D01*
X65325Y-55623D01*
X65315Y-55652D01*
X65315Y-55670D01*
X65325Y-55698D01*
X65334Y-55708D01*
X65315Y-55773D02*
X65315Y-55895D01*
X65390Y-55830D01*
X65390Y-55858D01*
X65400Y-55877D01*
X65409Y-55886D01*
X65428Y-55895D01*
X65475Y-55895D01*
X65494Y-55886D01*
X65503Y-55877D01*
X65512Y-55858D01*
X65512Y-55802D01*
X65503Y-55783D01*
X65494Y-55773D01*
X65573Y-56095D02*
X65686Y-56095D01*
X65629Y-56095D02*
X65629Y-55898D01*
X65648Y-55927D01*
X65667Y-55945D01*
X65686Y-55955D01*
X65451Y-55898D02*
X65433Y-55898D01*
X65414Y-55908D01*
X65404Y-55917D01*
X65395Y-55936D01*
X65386Y-55973D01*
X65386Y-56020D01*
X65395Y-56058D01*
X65404Y-56077D01*
X65414Y-56086D01*
X65433Y-56095D01*
X65451Y-56095D01*
X65470Y-56086D01*
X65479Y-56077D01*
X65489Y-56058D01*
X65498Y-56020D01*
X65498Y-55973D01*
X65489Y-55936D01*
X65479Y-55917D01*
X65470Y-55908D01*
X65451Y-55898D01*
X65301Y-55964D02*
X65301Y-56161D01*
X65208Y-56067D02*
X65198Y-56086D01*
X65179Y-56095D01*
X65301Y-56067D02*
X65292Y-56086D01*
X65273Y-56095D01*
X65236Y-56095D01*
X65217Y-56086D01*
X65208Y-56067D01*
X65208Y-55964D01*
X48466Y-61635D02*
X48475Y-61645D01*
X48503Y-61654D01*
X48522Y-61654D01*
X48550Y-61645D01*
X48569Y-61626D01*
X48578Y-61607D01*
X48587Y-61570D01*
X48587Y-61541D01*
X48578Y-61504D01*
X48569Y-61485D01*
X48550Y-61467D01*
X48522Y-61457D01*
X48503Y-61457D01*
X48475Y-61467D01*
X48466Y-61476D01*
X48278Y-61654D02*
X48391Y-61654D01*
X48334Y-61654D02*
X48334Y-61457D01*
X48353Y-61485D01*
X48372Y-61504D01*
X48391Y-61513D01*
X48203Y-61476D02*
X48194Y-61467D01*
X48175Y-61457D01*
X48128Y-61457D01*
X48109Y-61467D01*
X48100Y-61476D01*
X48091Y-61495D01*
X48091Y-61513D01*
X48100Y-61541D01*
X48213Y-61654D01*
X48091Y-61654D01*
X48694Y-61448D02*
X48694Y-61335D01*
X48694Y-61392D02*
X48497Y-61392D01*
X48525Y-61373D01*
X48544Y-61354D01*
X48553Y-61335D01*
X48497Y-61570D02*
X48497Y-61588D01*
X48506Y-61607D01*
X48516Y-61616D01*
X48534Y-61626D01*
X48572Y-61635D01*
X48619Y-61635D01*
X48656Y-61626D01*
X48675Y-61616D01*
X48684Y-61607D01*
X48694Y-61588D01*
X48694Y-61570D01*
X48684Y-61551D01*
X48675Y-61541D01*
X48656Y-61532D01*
X48619Y-61523D01*
X48572Y-61523D01*
X48534Y-61532D01*
X48516Y-61541D01*
X48506Y-61551D01*
X48497Y-61570D01*
X48563Y-61720D02*
X48694Y-61720D01*
X48581Y-61720D02*
X48572Y-61729D01*
X48563Y-61748D01*
X48563Y-61776D01*
X48572Y-61795D01*
X48591Y-61804D01*
X48694Y-61804D01*
X47639Y-61635D02*
X47648Y-61645D01*
X47676Y-61654D01*
X47695Y-61654D01*
X47723Y-61645D01*
X47742Y-61626D01*
X47751Y-61607D01*
X47761Y-61570D01*
X47761Y-61541D01*
X47751Y-61504D01*
X47742Y-61485D01*
X47723Y-61467D01*
X47695Y-61457D01*
X47676Y-61457D01*
X47648Y-61467D01*
X47639Y-61476D01*
X47451Y-61654D02*
X47564Y-61654D01*
X47508Y-61654D02*
X47508Y-61457D01*
X47526Y-61485D01*
X47545Y-61504D01*
X47564Y-61513D01*
X47283Y-61523D02*
X47283Y-61654D01*
X47330Y-61448D02*
X47376Y-61588D01*
X47255Y-61588D01*
X47867Y-61354D02*
X47867Y-61242D01*
X47867Y-61298D02*
X47670Y-61298D01*
X47698Y-61279D01*
X47717Y-61260D01*
X47726Y-61242D01*
X47670Y-61476D02*
X47670Y-61495D01*
X47679Y-61513D01*
X47689Y-61523D01*
X47708Y-61532D01*
X47745Y-61541D01*
X47792Y-61541D01*
X47829Y-61532D01*
X47848Y-61523D01*
X47858Y-61513D01*
X47867Y-61495D01*
X47867Y-61476D01*
X47858Y-61457D01*
X47848Y-61448D01*
X47829Y-61438D01*
X47792Y-61429D01*
X47745Y-61429D01*
X47708Y-61438D01*
X47689Y-61448D01*
X47679Y-61457D01*
X47670Y-61476D01*
X47670Y-61663D02*
X47670Y-61682D01*
X47679Y-61701D01*
X47689Y-61710D01*
X47708Y-61720D01*
X47745Y-61729D01*
X47792Y-61729D01*
X47829Y-61720D01*
X47848Y-61710D01*
X47858Y-61701D01*
X47867Y-61682D01*
X47867Y-61663D01*
X47858Y-61645D01*
X47848Y-61635D01*
X47829Y-61626D01*
X47792Y-61616D01*
X47745Y-61616D01*
X47708Y-61626D01*
X47689Y-61635D01*
X47679Y-61645D01*
X47670Y-61663D01*
X47736Y-61813D02*
X47867Y-61813D01*
X47754Y-61813D02*
X47745Y-61823D01*
X47736Y-61841D01*
X47736Y-61870D01*
X47745Y-61888D01*
X47764Y-61898D01*
X47867Y-61898D01*
X40158Y-61061D02*
X40064Y-60995D01*
X40158Y-60948D02*
X39961Y-60948D01*
X39961Y-61023D01*
X39970Y-61042D01*
X39980Y-61052D01*
X39999Y-61061D01*
X40027Y-61061D01*
X40045Y-61052D01*
X40055Y-61042D01*
X40064Y-61023D01*
X40064Y-60948D01*
X40158Y-61248D02*
X40158Y-61136D01*
X40158Y-61192D02*
X39961Y-61192D01*
X39989Y-61173D01*
X40008Y-61155D01*
X40017Y-61136D01*
X40158Y-61342D02*
X40158Y-61380D01*
X40149Y-61398D01*
X40139Y-61408D01*
X40111Y-61427D01*
X40074Y-61436D01*
X39999Y-61436D01*
X39980Y-61427D01*
X39970Y-61417D01*
X39961Y-61398D01*
X39961Y-61361D01*
X39970Y-61342D01*
X39980Y-61333D01*
X39999Y-61323D01*
X40045Y-61323D01*
X40064Y-61333D01*
X40074Y-61342D01*
X40083Y-61361D01*
X40083Y-61398D01*
X40074Y-61417D01*
X40064Y-61427D01*
X40045Y-61436D01*
X40289Y-60992D02*
X40402Y-60992D01*
X40345Y-60992D02*
X40345Y-60795D01*
X40364Y-60823D01*
X40383Y-60842D01*
X40402Y-60852D01*
X40167Y-60795D02*
X40149Y-60795D01*
X40130Y-60805D01*
X40120Y-60814D01*
X40111Y-60833D01*
X40102Y-60870D01*
X40102Y-60917D01*
X40111Y-60955D01*
X40120Y-60973D01*
X40130Y-60983D01*
X40149Y-60992D01*
X40167Y-60992D01*
X40186Y-60983D01*
X40195Y-60973D01*
X40205Y-60955D01*
X40214Y-60917D01*
X40214Y-60870D01*
X40205Y-60833D01*
X40195Y-60814D01*
X40186Y-60805D01*
X40167Y-60795D01*
X39980Y-60795D02*
X39961Y-60795D01*
X39942Y-60805D01*
X39933Y-60814D01*
X39924Y-60833D01*
X39914Y-60870D01*
X39914Y-60917D01*
X39924Y-60955D01*
X39933Y-60973D01*
X39942Y-60983D01*
X39961Y-60992D01*
X39980Y-60992D01*
X39999Y-60983D01*
X40008Y-60973D01*
X40017Y-60955D01*
X40027Y-60917D01*
X40027Y-60870D01*
X40017Y-60833D01*
X40008Y-60814D01*
X39999Y-60805D01*
X39980Y-60795D01*
X39830Y-60992D02*
X39830Y-60795D01*
X39811Y-60917D02*
X39755Y-60992D01*
X39755Y-60861D02*
X39830Y-60936D01*
X67677Y-62914D02*
X67743Y-62820D01*
X67789Y-62914D02*
X67789Y-62717D01*
X67714Y-62717D01*
X67696Y-62726D01*
X67686Y-62736D01*
X67677Y-62754D01*
X67677Y-62783D01*
X67686Y-62801D01*
X67696Y-62811D01*
X67714Y-62820D01*
X67789Y-62820D01*
X67508Y-62783D02*
X67508Y-62914D01*
X67555Y-62708D02*
X67602Y-62848D01*
X67480Y-62848D01*
X67449Y-62778D02*
X67449Y-62665D01*
X67449Y-62722D02*
X67252Y-62722D01*
X67280Y-62703D01*
X67299Y-62684D01*
X67308Y-62665D01*
X67449Y-62862D02*
X67252Y-62862D01*
X67393Y-62928D01*
X67252Y-62994D01*
X67449Y-62994D01*
X58655Y-48771D02*
X58561Y-48705D01*
X58655Y-48658D02*
X58458Y-48658D01*
X58458Y-48733D01*
X58467Y-48752D01*
X58477Y-48761D01*
X58496Y-48771D01*
X58524Y-48771D01*
X58542Y-48761D01*
X58552Y-48752D01*
X58561Y-48733D01*
X58561Y-48658D01*
X58524Y-48939D02*
X58655Y-48939D01*
X58449Y-48892D02*
X58589Y-48846D01*
X58589Y-48967D01*
X58477Y-49033D02*
X58467Y-49042D01*
X58458Y-49061D01*
X58458Y-49108D01*
X58467Y-49127D01*
X58477Y-49136D01*
X58496Y-49146D01*
X58514Y-49146D01*
X58542Y-49136D01*
X58655Y-49024D01*
X58655Y-49146D01*
X58930Y-48780D02*
X58930Y-48667D01*
X58930Y-48724D02*
X58733Y-48724D01*
X58761Y-48705D01*
X58780Y-48686D01*
X58789Y-48667D01*
X58733Y-48902D02*
X58733Y-48921D01*
X58742Y-48939D01*
X58752Y-48949D01*
X58771Y-48958D01*
X58808Y-48967D01*
X58855Y-48967D01*
X58892Y-48958D01*
X58911Y-48949D01*
X58921Y-48939D01*
X58930Y-48921D01*
X58930Y-48902D01*
X58921Y-48883D01*
X58911Y-48874D01*
X58892Y-48864D01*
X58855Y-48855D01*
X58808Y-48855D01*
X58771Y-48864D01*
X58752Y-48874D01*
X58742Y-48883D01*
X58733Y-48902D01*
X58930Y-49052D02*
X58733Y-49052D01*
X58855Y-49071D02*
X58930Y-49127D01*
X58799Y-49127D02*
X58874Y-49052D01*
X68464Y-62895D02*
X68474Y-62904D01*
X68502Y-62914D01*
X68521Y-62914D01*
X68549Y-62904D01*
X68568Y-62886D01*
X68577Y-62867D01*
X68586Y-62829D01*
X68586Y-62801D01*
X68577Y-62764D01*
X68568Y-62745D01*
X68549Y-62726D01*
X68521Y-62717D01*
X68502Y-62717D01*
X68474Y-62726D01*
X68464Y-62736D01*
X68389Y-62736D02*
X68380Y-62726D01*
X68361Y-62717D01*
X68314Y-62717D01*
X68296Y-62726D01*
X68286Y-62736D01*
X68277Y-62754D01*
X68277Y-62773D01*
X68286Y-62801D01*
X68399Y-62914D01*
X68277Y-62914D01*
X68105Y-62642D02*
X68236Y-62642D01*
X68030Y-62595D02*
X68171Y-62548D01*
X68171Y-62670D01*
X68227Y-62754D02*
X68236Y-62754D01*
X68255Y-62745D01*
X68264Y-62736D01*
X68039Y-62820D02*
X68039Y-62951D01*
X68236Y-62867D01*
X68105Y-63026D02*
X68236Y-63026D01*
X68124Y-63026D02*
X68114Y-63036D01*
X68105Y-63054D01*
X68105Y-63083D01*
X68114Y-63101D01*
X68133Y-63111D01*
X68236Y-63111D01*
X55100Y-51651D02*
X55109Y-51642D01*
X55119Y-51614D01*
X55119Y-51595D01*
X55109Y-51567D01*
X55090Y-51548D01*
X55072Y-51539D01*
X55034Y-51530D01*
X55006Y-51530D01*
X54969Y-51539D01*
X54950Y-51548D01*
X54931Y-51567D01*
X54922Y-51595D01*
X54922Y-51614D01*
X54931Y-51642D01*
X54940Y-51651D01*
X54940Y-51726D02*
X54931Y-51736D01*
X54922Y-51755D01*
X54922Y-51801D01*
X54931Y-51820D01*
X54940Y-51830D01*
X54959Y-51839D01*
X54978Y-51839D01*
X55006Y-51830D01*
X55119Y-51717D01*
X55119Y-51839D01*
X54922Y-52008D02*
X54922Y-51970D01*
X54931Y-51951D01*
X54940Y-51942D01*
X54969Y-51923D01*
X55006Y-51914D01*
X55081Y-51914D01*
X55100Y-51923D01*
X55109Y-51933D01*
X55119Y-51951D01*
X55119Y-51989D01*
X55109Y-52008D01*
X55100Y-52017D01*
X55081Y-52026D01*
X55034Y-52026D01*
X55015Y-52017D01*
X55006Y-52008D01*
X54997Y-51989D01*
X54997Y-51951D01*
X55006Y-51933D01*
X55015Y-51923D01*
X55034Y-51914D01*
X55165Y-51583D02*
X55278Y-51583D01*
X55222Y-51583D02*
X55222Y-51386D01*
X55240Y-51414D01*
X55259Y-51433D01*
X55278Y-51442D01*
X54997Y-51386D02*
X55034Y-51386D01*
X55053Y-51395D01*
X55062Y-51405D01*
X55081Y-51433D01*
X55090Y-51470D01*
X55090Y-51545D01*
X55081Y-51564D01*
X55072Y-51573D01*
X55053Y-51583D01*
X55015Y-51583D01*
X54997Y-51573D01*
X54987Y-51564D01*
X54978Y-51545D01*
X54978Y-51498D01*
X54987Y-51480D01*
X54997Y-51470D01*
X55015Y-51461D01*
X55053Y-51461D01*
X55072Y-51470D01*
X55081Y-51480D01*
X55090Y-51498D01*
X54894Y-51451D02*
X54894Y-51648D01*
X54894Y-51461D02*
X54875Y-51451D01*
X54837Y-51451D01*
X54819Y-51461D01*
X54809Y-51470D01*
X54800Y-51489D01*
X54800Y-51545D01*
X54809Y-51564D01*
X54819Y-51573D01*
X54837Y-51583D01*
X54875Y-51583D01*
X54894Y-51573D01*
X42705Y-62786D02*
X42714Y-62777D01*
X42724Y-62749D01*
X42724Y-62730D01*
X42714Y-62702D01*
X42696Y-62683D01*
X42677Y-62674D01*
X42639Y-62664D01*
X42611Y-62664D01*
X42574Y-62674D01*
X42555Y-62683D01*
X42536Y-62702D01*
X42527Y-62730D01*
X42527Y-62749D01*
X42536Y-62777D01*
X42546Y-62786D01*
X42546Y-62861D02*
X42536Y-62871D01*
X42527Y-62889D01*
X42527Y-62936D01*
X42536Y-62955D01*
X42546Y-62964D01*
X42565Y-62974D01*
X42583Y-62974D01*
X42611Y-62964D01*
X42724Y-62852D01*
X42724Y-62974D01*
X42546Y-63049D02*
X42536Y-63058D01*
X42527Y-63077D01*
X42527Y-63124D01*
X42536Y-63143D01*
X42546Y-63152D01*
X42565Y-63161D01*
X42583Y-63161D01*
X42611Y-63152D01*
X42724Y-63039D01*
X42724Y-63161D01*
X42449Y-62772D02*
X42449Y-62660D01*
X42449Y-62716D02*
X42252Y-62716D01*
X42280Y-62697D01*
X42299Y-62679D01*
X42308Y-62660D01*
X42252Y-62894D02*
X42252Y-62913D01*
X42261Y-62932D01*
X42271Y-62941D01*
X42290Y-62950D01*
X42327Y-62960D01*
X42374Y-62960D01*
X42411Y-62950D01*
X42430Y-62941D01*
X42439Y-62932D01*
X42449Y-62913D01*
X42449Y-62894D01*
X42439Y-62875D01*
X42430Y-62866D01*
X42411Y-62857D01*
X42374Y-62847D01*
X42327Y-62847D01*
X42290Y-62857D01*
X42271Y-62866D01*
X42261Y-62875D01*
X42252Y-62894D01*
X42318Y-63044D02*
X42514Y-63044D01*
X42421Y-63138D02*
X42439Y-63147D01*
X42449Y-63166D01*
X42421Y-63044D02*
X42439Y-63053D01*
X42449Y-63072D01*
X42449Y-63110D01*
X42439Y-63128D01*
X42421Y-63138D01*
X42318Y-63138D01*
X44961Y-58016D02*
X44867Y-57950D01*
X44961Y-57903D02*
X44764Y-57903D01*
X44764Y-57978D01*
X44774Y-57997D01*
X44783Y-58006D01*
X44802Y-58016D01*
X44830Y-58016D01*
X44849Y-58006D01*
X44858Y-57997D01*
X44867Y-57978D01*
X44867Y-57903D01*
X44783Y-58091D02*
X44774Y-58100D01*
X44764Y-58119D01*
X44764Y-58166D01*
X44774Y-58184D01*
X44783Y-58194D01*
X44802Y-58203D01*
X44820Y-58203D01*
X44849Y-58194D01*
X44961Y-58081D01*
X44961Y-58203D01*
X44830Y-58372D02*
X44961Y-58372D01*
X44755Y-58325D02*
X44895Y-58278D01*
X44895Y-58400D01*
X44999Y-58497D02*
X45111Y-58497D01*
X45055Y-58497D02*
X45055Y-58300D01*
X45074Y-58328D01*
X45092Y-58347D01*
X45111Y-58356D01*
X44877Y-58300D02*
X44858Y-58300D01*
X44839Y-58309D01*
X44830Y-58319D01*
X44820Y-58338D01*
X44811Y-58375D01*
X44811Y-58422D01*
X44820Y-58459D01*
X44830Y-58478D01*
X44839Y-58488D01*
X44858Y-58497D01*
X44877Y-58497D01*
X44895Y-58488D01*
X44905Y-58478D01*
X44914Y-58459D01*
X44924Y-58422D01*
X44924Y-58375D01*
X44914Y-58338D01*
X44905Y-58319D01*
X44895Y-58309D01*
X44877Y-58300D01*
X44727Y-58497D02*
X44727Y-58300D01*
X44708Y-58422D02*
X44652Y-58497D01*
X44652Y-58366D02*
X44727Y-58441D01*
X43386Y-58961D02*
X43293Y-58895D01*
X43386Y-58848D02*
X43189Y-58848D01*
X43189Y-58923D01*
X43199Y-58942D01*
X43208Y-58951D01*
X43227Y-58961D01*
X43255Y-58961D01*
X43274Y-58951D01*
X43283Y-58942D01*
X43293Y-58923D01*
X43293Y-58848D01*
X43208Y-59036D02*
X43199Y-59045D01*
X43189Y-59064D01*
X43189Y-59111D01*
X43199Y-59129D01*
X43208Y-59139D01*
X43227Y-59148D01*
X43246Y-59148D01*
X43274Y-59139D01*
X43386Y-59026D01*
X43386Y-59148D01*
X43274Y-59261D02*
X43264Y-59242D01*
X43255Y-59232D01*
X43236Y-59223D01*
X43227Y-59223D01*
X43208Y-59232D01*
X43199Y-59242D01*
X43189Y-59261D01*
X43189Y-59298D01*
X43199Y-59317D01*
X43208Y-59326D01*
X43227Y-59336D01*
X43236Y-59336D01*
X43255Y-59326D01*
X43264Y-59317D01*
X43274Y-59298D01*
X43274Y-59261D01*
X43283Y-59242D01*
X43293Y-59232D01*
X43311Y-59223D01*
X43349Y-59223D01*
X43368Y-59232D01*
X43377Y-59242D01*
X43386Y-59261D01*
X43386Y-59298D01*
X43377Y-59317D01*
X43368Y-59326D01*
X43349Y-59336D01*
X43311Y-59336D01*
X43293Y-59326D01*
X43283Y-59317D01*
X43274Y-59298D01*
X43517Y-59442D02*
X43630Y-59442D01*
X43574Y-59442D02*
X43574Y-59245D01*
X43592Y-59273D01*
X43611Y-59292D01*
X43630Y-59301D01*
X43339Y-59245D02*
X43433Y-59245D01*
X43443Y-59339D01*
X43433Y-59329D01*
X43414Y-59320D01*
X43368Y-59320D01*
X43349Y-59329D01*
X43339Y-59339D01*
X43330Y-59357D01*
X43330Y-59404D01*
X43339Y-59423D01*
X43349Y-59432D01*
X43368Y-59442D01*
X43414Y-59442D01*
X43433Y-59432D01*
X43443Y-59423D01*
X43208Y-59245D02*
X43189Y-59245D01*
X43171Y-59254D01*
X43161Y-59264D01*
X43152Y-59282D01*
X43143Y-59320D01*
X43143Y-59367D01*
X43152Y-59404D01*
X43161Y-59423D01*
X43171Y-59432D01*
X43189Y-59442D01*
X43208Y-59442D01*
X43227Y-59432D01*
X43236Y-59423D01*
X43246Y-59404D01*
X43255Y-59367D01*
X43255Y-59320D01*
X43246Y-59282D01*
X43236Y-59264D01*
X43227Y-59254D01*
X43208Y-59245D01*
X43058Y-59442D02*
X43058Y-59245D01*
X43039Y-59367D02*
X42983Y-59442D01*
X42983Y-59311D02*
X43058Y-59386D01*
X43368Y-58266D02*
X43377Y-58256D01*
X43386Y-58228D01*
X43386Y-58209D01*
X43377Y-58181D01*
X43358Y-58163D01*
X43339Y-58153D01*
X43302Y-58144D01*
X43274Y-58144D01*
X43236Y-58153D01*
X43218Y-58163D01*
X43199Y-58181D01*
X43189Y-58209D01*
X43189Y-58228D01*
X43199Y-58256D01*
X43208Y-58266D01*
X43386Y-58453D02*
X43386Y-58341D01*
X43386Y-58397D02*
X43189Y-58397D01*
X43218Y-58378D01*
X43236Y-58359D01*
X43246Y-58341D01*
X43189Y-58519D02*
X43189Y-58641D01*
X43264Y-58575D01*
X43264Y-58603D01*
X43274Y-58622D01*
X43283Y-58631D01*
X43302Y-58641D01*
X43349Y-58641D01*
X43368Y-58631D01*
X43377Y-58622D01*
X43386Y-58603D01*
X43386Y-58547D01*
X43377Y-58528D01*
X43368Y-58519D01*
X43649Y-58000D02*
X43527Y-58000D01*
X43592Y-58075D01*
X43564Y-58075D01*
X43546Y-58084D01*
X43536Y-58094D01*
X43527Y-58113D01*
X43527Y-58159D01*
X43536Y-58178D01*
X43546Y-58188D01*
X43564Y-58197D01*
X43621Y-58197D01*
X43639Y-58188D01*
X43649Y-58178D01*
X43461Y-58000D02*
X43339Y-58000D01*
X43405Y-58075D01*
X43377Y-58075D01*
X43358Y-58084D01*
X43349Y-58094D01*
X43339Y-58113D01*
X43339Y-58159D01*
X43349Y-58178D01*
X43358Y-58188D01*
X43377Y-58197D01*
X43433Y-58197D01*
X43452Y-58188D01*
X43461Y-58178D01*
X43218Y-58000D02*
X43199Y-58000D01*
X43180Y-58009D01*
X43171Y-58019D01*
X43161Y-58038D01*
X43152Y-58075D01*
X43152Y-58122D01*
X43161Y-58159D01*
X43171Y-58178D01*
X43180Y-58188D01*
X43199Y-58197D01*
X43218Y-58197D01*
X43236Y-58188D01*
X43246Y-58178D01*
X43255Y-58159D01*
X43264Y-58122D01*
X43264Y-58075D01*
X43255Y-58038D01*
X43246Y-58019D01*
X43236Y-58009D01*
X43218Y-58000D01*
X43068Y-58066D02*
X43068Y-58263D01*
X43068Y-58075D02*
X43049Y-58066D01*
X43011Y-58066D01*
X42993Y-58075D01*
X42983Y-58084D01*
X42974Y-58103D01*
X42974Y-58159D01*
X42983Y-58178D01*
X42993Y-58188D01*
X43011Y-58197D01*
X43049Y-58197D01*
X43068Y-58188D01*
X42495Y-60021D02*
X42505Y-60030D01*
X42533Y-60040D01*
X42551Y-60040D01*
X42580Y-60030D01*
X42598Y-60012D01*
X42608Y-59993D01*
X42617Y-59955D01*
X42617Y-59927D01*
X42608Y-59890D01*
X42598Y-59871D01*
X42580Y-59852D01*
X42551Y-59843D01*
X42533Y-59843D01*
X42505Y-59852D01*
X42495Y-59862D01*
X42308Y-60040D02*
X42420Y-60040D01*
X42364Y-60040D02*
X42364Y-59843D01*
X42383Y-59871D01*
X42401Y-59890D01*
X42420Y-59899D01*
X42214Y-60040D02*
X42176Y-60040D01*
X42158Y-60030D01*
X42148Y-60021D01*
X42130Y-59993D01*
X42120Y-59955D01*
X42120Y-59880D01*
X42130Y-59862D01*
X42139Y-59852D01*
X42158Y-59843D01*
X42195Y-59843D01*
X42214Y-59852D01*
X42223Y-59862D01*
X42233Y-59880D01*
X42233Y-59927D01*
X42223Y-59946D01*
X42214Y-59955D01*
X42195Y-59965D01*
X42158Y-59965D01*
X42139Y-59955D01*
X42130Y-59946D01*
X42120Y-59927D01*
X41995Y-59721D02*
X41986Y-59730D01*
X41976Y-59749D01*
X41976Y-59796D01*
X41986Y-59815D01*
X41995Y-59824D01*
X42014Y-59834D01*
X42033Y-59834D01*
X42061Y-59824D01*
X42173Y-59712D01*
X42173Y-59834D01*
X41995Y-59909D02*
X41986Y-59918D01*
X41976Y-59937D01*
X41976Y-59984D01*
X41986Y-60002D01*
X41995Y-60012D01*
X42014Y-60021D01*
X42033Y-60021D01*
X42061Y-60012D01*
X42173Y-59899D01*
X42173Y-60021D01*
X42042Y-60105D02*
X42239Y-60105D01*
X42051Y-60105D02*
X42042Y-60124D01*
X42042Y-60162D01*
X42051Y-60180D01*
X42061Y-60190D01*
X42080Y-60199D01*
X42136Y-60199D01*
X42155Y-60190D01*
X42164Y-60180D01*
X42173Y-60162D01*
X42173Y-60124D01*
X42164Y-60105D01*
X41472Y-64371D02*
X41537Y-64277D01*
X41584Y-64371D02*
X41584Y-64174D01*
X41509Y-64174D01*
X41490Y-64183D01*
X41481Y-64192D01*
X41472Y-64211D01*
X41472Y-64239D01*
X41481Y-64258D01*
X41490Y-64267D01*
X41509Y-64277D01*
X41584Y-64277D01*
X41406Y-64174D02*
X41284Y-64174D01*
X41350Y-64249D01*
X41322Y-64249D01*
X41303Y-64258D01*
X41293Y-64267D01*
X41284Y-64286D01*
X41284Y-64333D01*
X41293Y-64352D01*
X41303Y-64361D01*
X41322Y-64371D01*
X41378Y-64371D01*
X41397Y-64361D01*
X41406Y-64352D01*
X41097Y-64371D02*
X41209Y-64371D01*
X41153Y-64371D02*
X41153Y-64174D01*
X41172Y-64202D01*
X41190Y-64221D01*
X41209Y-64230D01*
X41150Y-64080D02*
X41150Y-63967D01*
X41150Y-64024D02*
X40953Y-64024D01*
X40981Y-64005D01*
X41000Y-63986D01*
X41009Y-63967D01*
X40953Y-64202D02*
X40953Y-64221D01*
X40962Y-64239D01*
X40972Y-64249D01*
X40990Y-64258D01*
X41028Y-64267D01*
X41075Y-64267D01*
X41112Y-64258D01*
X41131Y-64249D01*
X41140Y-64239D01*
X41150Y-64221D01*
X41150Y-64202D01*
X41140Y-64183D01*
X41131Y-64174D01*
X41112Y-64164D01*
X41075Y-64155D01*
X41028Y-64155D01*
X40990Y-64164D01*
X40972Y-64174D01*
X40962Y-64183D01*
X40953Y-64202D01*
X40953Y-64389D02*
X40953Y-64408D01*
X40962Y-64427D01*
X40972Y-64436D01*
X40990Y-64446D01*
X41028Y-64455D01*
X41075Y-64455D01*
X41112Y-64446D01*
X41131Y-64436D01*
X41140Y-64427D01*
X41150Y-64408D01*
X41150Y-64389D01*
X41140Y-64371D01*
X41131Y-64361D01*
X41112Y-64352D01*
X41075Y-64342D01*
X41028Y-64342D01*
X40990Y-64352D01*
X40972Y-64361D01*
X40962Y-64371D01*
X40953Y-64389D01*
X41150Y-64539D02*
X40953Y-64539D01*
X41075Y-64558D02*
X41150Y-64614D01*
X41018Y-64614D02*
X41093Y-64539D01*
X41472Y-62914D02*
X41537Y-62820D01*
X41584Y-62914D02*
X41584Y-62717D01*
X41509Y-62717D01*
X41490Y-62726D01*
X41481Y-62736D01*
X41472Y-62754D01*
X41472Y-62783D01*
X41481Y-62801D01*
X41490Y-62811D01*
X41509Y-62820D01*
X41584Y-62820D01*
X41406Y-62717D02*
X41284Y-62717D01*
X41350Y-62792D01*
X41322Y-62792D01*
X41303Y-62801D01*
X41293Y-62811D01*
X41284Y-62829D01*
X41284Y-62876D01*
X41293Y-62895D01*
X41303Y-62904D01*
X41322Y-62914D01*
X41378Y-62914D01*
X41397Y-62904D01*
X41406Y-62895D01*
X41209Y-62736D02*
X41200Y-62726D01*
X41181Y-62717D01*
X41134Y-62717D01*
X41115Y-62726D01*
X41106Y-62736D01*
X41097Y-62754D01*
X41097Y-62773D01*
X41106Y-62801D01*
X41218Y-62914D01*
X41097Y-62914D01*
X41150Y-62623D02*
X41150Y-62511D01*
X41150Y-62567D02*
X40953Y-62567D01*
X40981Y-62548D01*
X41000Y-62529D01*
X41009Y-62511D01*
X40953Y-62745D02*
X40953Y-62764D01*
X40962Y-62783D01*
X40972Y-62792D01*
X40990Y-62801D01*
X41028Y-62811D01*
X41075Y-62811D01*
X41112Y-62801D01*
X41131Y-62792D01*
X41140Y-62783D01*
X41150Y-62764D01*
X41150Y-62745D01*
X41140Y-62726D01*
X41131Y-62717D01*
X41112Y-62708D01*
X41075Y-62698D01*
X41028Y-62698D01*
X40990Y-62708D01*
X40972Y-62717D01*
X40962Y-62726D01*
X40953Y-62745D01*
X40953Y-62933D02*
X40953Y-62951D01*
X40962Y-62970D01*
X40972Y-62979D01*
X40990Y-62989D01*
X41028Y-62998D01*
X41075Y-62998D01*
X41112Y-62989D01*
X41131Y-62979D01*
X41140Y-62970D01*
X41150Y-62951D01*
X41150Y-62933D01*
X41140Y-62914D01*
X41131Y-62904D01*
X41112Y-62895D01*
X41075Y-62886D01*
X41028Y-62886D01*
X40990Y-62895D01*
X40972Y-62904D01*
X40962Y-62914D01*
X40953Y-62933D01*
X41150Y-63083D02*
X40953Y-63083D01*
X41075Y-63101D02*
X41150Y-63158D01*
X41018Y-63158D02*
X41093Y-63083D01*
X58308Y-53229D02*
X58177Y-53426D01*
X58177Y-53229D02*
X58308Y-53426D01*
X57999Y-53426D02*
X58112Y-53426D01*
X58055Y-53426D02*
X58055Y-53229D01*
X58074Y-53257D01*
X58093Y-53276D01*
X58112Y-53285D01*
X58521Y-52126D02*
X58634Y-52126D01*
X58577Y-52126D02*
X58577Y-51930D01*
X58596Y-51958D01*
X58615Y-51976D01*
X58634Y-51986D01*
X58353Y-51930D02*
X58390Y-51930D01*
X58409Y-51939D01*
X58418Y-51948D01*
X58437Y-51976D01*
X58446Y-52014D01*
X58446Y-52089D01*
X58437Y-52108D01*
X58428Y-52117D01*
X58409Y-52126D01*
X58371Y-52126D01*
X58353Y-52117D01*
X58343Y-52108D01*
X58334Y-52089D01*
X58334Y-52042D01*
X58343Y-52023D01*
X58353Y-52014D01*
X58371Y-52005D01*
X58409Y-52005D01*
X58428Y-52014D01*
X58437Y-52023D01*
X58446Y-52042D01*
X58249Y-52126D02*
X58249Y-51930D01*
X58184Y-52070D01*
X58118Y-51930D01*
X58118Y-52126D01*
X58024Y-52126D02*
X58024Y-51930D01*
X58024Y-52023D02*
X57912Y-52023D01*
X57912Y-52126D02*
X57912Y-51930D01*
X57837Y-51995D02*
X57734Y-51995D01*
X57837Y-52126D01*
X57734Y-52126D01*
X43945Y-63991D02*
X43954Y-64000D01*
X43982Y-64009D01*
X44001Y-64009D01*
X44029Y-64000D01*
X44048Y-63981D01*
X44057Y-63962D01*
X44067Y-63925D01*
X44067Y-63897D01*
X44057Y-63859D01*
X44048Y-63841D01*
X44029Y-63822D01*
X44001Y-63812D01*
X43982Y-63812D01*
X43954Y-63822D01*
X43945Y-63831D01*
X43879Y-63812D02*
X43757Y-63812D01*
X43823Y-63887D01*
X43795Y-63887D01*
X43776Y-63897D01*
X43767Y-63906D01*
X43757Y-63925D01*
X43757Y-63972D01*
X43767Y-63991D01*
X43776Y-64000D01*
X43795Y-64009D01*
X43851Y-64009D01*
X43870Y-64000D01*
X43879Y-63991D01*
X43636Y-63812D02*
X43617Y-63812D01*
X43598Y-63822D01*
X43589Y-63831D01*
X43579Y-63850D01*
X43570Y-63887D01*
X43570Y-63934D01*
X43579Y-63972D01*
X43589Y-63991D01*
X43598Y-64000D01*
X43617Y-64009D01*
X43636Y-64009D01*
X43654Y-64000D01*
X43664Y-63991D01*
X43673Y-63972D01*
X43682Y-63934D01*
X43682Y-63887D01*
X43673Y-63850D01*
X43664Y-63831D01*
X43654Y-63822D01*
X43636Y-63812D01*
X44039Y-64284D02*
X44151Y-64284D01*
X44095Y-64284D02*
X44095Y-64087D01*
X44114Y-64116D01*
X44132Y-64134D01*
X44151Y-64144D01*
X43917Y-64087D02*
X43898Y-64087D01*
X43879Y-64097D01*
X43870Y-64106D01*
X43861Y-64125D01*
X43851Y-64162D01*
X43851Y-64209D01*
X43861Y-64247D01*
X43870Y-64266D01*
X43879Y-64275D01*
X43898Y-64284D01*
X43917Y-64284D01*
X43936Y-64275D01*
X43945Y-64266D01*
X43954Y-64247D01*
X43964Y-64209D01*
X43964Y-64162D01*
X43954Y-64125D01*
X43945Y-64106D01*
X43936Y-64097D01*
X43917Y-64087D01*
X43729Y-64087D02*
X43711Y-64087D01*
X43692Y-64097D01*
X43682Y-64106D01*
X43673Y-64125D01*
X43664Y-64162D01*
X43664Y-64209D01*
X43673Y-64247D01*
X43682Y-64266D01*
X43692Y-64275D01*
X43711Y-64284D01*
X43729Y-64284D01*
X43748Y-64275D01*
X43757Y-64266D01*
X43767Y-64247D01*
X43776Y-64209D01*
X43776Y-64162D01*
X43767Y-64125D01*
X43757Y-64106D01*
X43748Y-64097D01*
X43729Y-64087D01*
X43579Y-64153D02*
X43579Y-64284D01*
X43579Y-64172D02*
X43570Y-64162D01*
X43551Y-64153D01*
X43523Y-64153D01*
X43504Y-64162D01*
X43495Y-64181D01*
X43495Y-64284D01*
X45527Y-61890D02*
X45592Y-61796D01*
X45639Y-61890D02*
X45639Y-61693D01*
X45564Y-61693D01*
X45545Y-61703D01*
X45536Y-61712D01*
X45527Y-61731D01*
X45527Y-61759D01*
X45536Y-61778D01*
X45545Y-61787D01*
X45564Y-61796D01*
X45639Y-61796D01*
X45461Y-61693D02*
X45339Y-61693D01*
X45405Y-61768D01*
X45377Y-61768D01*
X45358Y-61778D01*
X45349Y-61787D01*
X45339Y-61806D01*
X45339Y-61853D01*
X45349Y-61871D01*
X45358Y-61881D01*
X45377Y-61890D01*
X45433Y-61890D01*
X45452Y-61881D01*
X45461Y-61871D01*
X45227Y-61778D02*
X45245Y-61768D01*
X45255Y-61759D01*
X45264Y-61740D01*
X45264Y-61731D01*
X45255Y-61712D01*
X45245Y-61703D01*
X45227Y-61693D01*
X45189Y-61693D01*
X45170Y-61703D01*
X45161Y-61712D01*
X45152Y-61731D01*
X45152Y-61740D01*
X45161Y-61759D01*
X45170Y-61768D01*
X45189Y-61778D01*
X45227Y-61778D01*
X45245Y-61787D01*
X45255Y-61796D01*
X45264Y-61815D01*
X45264Y-61853D01*
X45255Y-61871D01*
X45245Y-61881D01*
X45227Y-61890D01*
X45189Y-61890D01*
X45170Y-61881D01*
X45161Y-61871D01*
X45152Y-61853D01*
X45152Y-61815D01*
X45161Y-61796D01*
X45170Y-61787D01*
X45189Y-61778D01*
X45205Y-61679D02*
X45205Y-61567D01*
X45205Y-61623D02*
X45008Y-61623D01*
X45036Y-61604D01*
X45055Y-61586D01*
X45064Y-61567D01*
X45008Y-61801D02*
X45008Y-61820D01*
X45017Y-61839D01*
X45027Y-61848D01*
X45045Y-61857D01*
X45083Y-61867D01*
X45130Y-61867D01*
X45167Y-61857D01*
X45186Y-61848D01*
X45195Y-61839D01*
X45205Y-61820D01*
X45205Y-61801D01*
X45195Y-61782D01*
X45186Y-61773D01*
X45167Y-61764D01*
X45130Y-61754D01*
X45083Y-61754D01*
X45045Y-61764D01*
X45027Y-61773D01*
X45017Y-61782D01*
X45008Y-61801D01*
X45008Y-61989D02*
X45008Y-62007D01*
X45017Y-62026D01*
X45027Y-62035D01*
X45045Y-62045D01*
X45083Y-62054D01*
X45130Y-62054D01*
X45167Y-62045D01*
X45186Y-62035D01*
X45195Y-62026D01*
X45205Y-62007D01*
X45205Y-61989D01*
X45195Y-61970D01*
X45186Y-61961D01*
X45167Y-61951D01*
X45130Y-61942D01*
X45083Y-61942D01*
X45045Y-61951D01*
X45027Y-61961D01*
X45017Y-61970D01*
X45008Y-61989D01*
X45237Y-65709D02*
X45303Y-65615D01*
X45350Y-65709D02*
X45350Y-65512D01*
X45275Y-65512D01*
X45256Y-65522D01*
X45247Y-65531D01*
X45237Y-65550D01*
X45237Y-65578D01*
X45247Y-65597D01*
X45256Y-65606D01*
X45275Y-65615D01*
X45350Y-65615D01*
X45069Y-65578D02*
X45069Y-65709D01*
X45115Y-65503D02*
X45162Y-65643D01*
X45040Y-65643D01*
X44928Y-65512D02*
X44909Y-65512D01*
X44890Y-65522D01*
X44881Y-65531D01*
X44872Y-65550D01*
X44862Y-65587D01*
X44862Y-65634D01*
X44872Y-65672D01*
X44881Y-65690D01*
X44890Y-65700D01*
X44909Y-65709D01*
X44928Y-65709D01*
X44947Y-65700D01*
X44956Y-65690D01*
X44965Y-65672D01*
X44975Y-65634D01*
X44975Y-65587D01*
X44965Y-65550D01*
X44956Y-65531D01*
X44947Y-65522D01*
X44928Y-65512D01*
X45465Y-65498D02*
X45465Y-65386D01*
X45465Y-65442D02*
X45269Y-65442D01*
X45297Y-65423D01*
X45315Y-65404D01*
X45325Y-65386D01*
X45269Y-65620D02*
X45269Y-65639D01*
X45278Y-65658D01*
X45287Y-65667D01*
X45306Y-65676D01*
X45344Y-65686D01*
X45390Y-65686D01*
X45428Y-65676D01*
X45447Y-65667D01*
X45456Y-65658D01*
X45465Y-65639D01*
X45465Y-65620D01*
X45456Y-65601D01*
X45447Y-65592D01*
X45428Y-65583D01*
X45390Y-65573D01*
X45344Y-65573D01*
X45306Y-65583D01*
X45287Y-65592D01*
X45278Y-65601D01*
X45269Y-65620D01*
X45269Y-65808D02*
X45269Y-65826D01*
X45278Y-65845D01*
X45287Y-65854D01*
X45306Y-65864D01*
X45344Y-65873D01*
X45390Y-65873D01*
X45428Y-65864D01*
X45447Y-65854D01*
X45456Y-65845D01*
X45465Y-65826D01*
X45465Y-65808D01*
X45456Y-65789D01*
X45447Y-65779D01*
X45428Y-65770D01*
X45390Y-65761D01*
X45344Y-65761D01*
X45306Y-65770D01*
X45287Y-65779D01*
X45278Y-65789D01*
X45269Y-65808D01*
M02*
