M48
;DRILL file {Pcbnew (2013-05-31 BZR 4019)-stable} date 12.01.2015 16:55:31
;FORMAT={-:-/ absolute / metric / decimal}
FMAT,2
METRIC,TZ
T1C0.600
T2C0.813
T3C0.900
T4C1.000
T5C1.300
T6C2.300
T7C3.100
%
G90
G05
M71
T1
X100.Y-145.8
X100.4Y-140.3
X101.2Y-147.7
X102.9Y-137.248
X103.1Y-140.3
X103.3Y-157.
X104.3Y-155.1
X104.4Y-165.8
X105.7Y-153.4
X106.4Y-156.2
X106.5Y-158.2
X106.9Y-163.
X107.2Y-147.5
X107.3Y-135.6
X108.8Y-162.7
X109.4Y-158.
X109.4Y-166.8
X110.Y-152.
X110.6Y-138.
X111.6Y-151.9
X112.2Y-165.2
X112.5Y-146.2
X112.8Y-151.
X113.2Y-138.8
X113.3Y-157.1
X114.4Y-146.1
X114.4Y-151.5
X114.7Y-135.5
X117.1Y-148.033
X117.4Y-146.1
X117.9Y-154.8
X118.3Y-127.1
X120.4Y-136.7
X122.3Y-141.3
X122.3Y-150.
X122.8Y-163.1
X133.6Y-152.9
X135.6Y-149.4
X136.4Y-139.2
X137.7Y-142.8
X140.3Y-161.2
X140.4Y-142.8
X142.5Y-139.3
X143.4Y-140.6
X143.8Y-139.3
X144.6Y-142.3
X147.1Y-138.7
X147.8Y-137.5
X150.8Y-168.5
X152.4Y-138.4
X163.Y-158.8
X163.8Y-145.6
X168.Y-123.
T2
X125.05Y-170.4
T3
X101.3Y-159.56
X101.3Y-159.56
X101.3Y-162.1
X101.3Y-162.1
X101.3Y-164.64
X101.3Y-164.64
X102.03Y-127.9
X102.03Y-127.9
X102.06Y-120.8
X102.06Y-120.8
X104.57Y-127.9
X104.57Y-127.9
X104.6Y-120.8
X104.6Y-120.8
X107.14Y-120.8
X107.14Y-120.8
X112.35Y-170.4
X112.35Y-170.4
X114.89Y-170.4
X114.89Y-170.4
X114.96Y-160.53
X114.96Y-160.53
X114.96Y-163.07
X114.96Y-163.07
X117.43Y-170.4
X117.43Y-170.4
X117.5Y-119.73
X117.5Y-119.73
X117.5Y-122.27
X117.5Y-122.27
X117.5Y-160.53
X117.5Y-160.53
X117.5Y-163.07
X117.5Y-163.07
X119.97Y-170.4
X119.97Y-170.4
X120.04Y-160.53
X120.04Y-160.53
X120.04Y-163.07
X120.04Y-163.07
X120.33Y-119.8
X120.33Y-119.8
X120.33Y-122.3
X120.33Y-122.3
X122.51Y-170.4
X122.51Y-170.4
X122.87Y-119.8
X122.87Y-119.8
X122.87Y-122.3
X122.87Y-122.3
X125.05Y-170.4
X125.5Y-138.
X125.5Y-138.
X126.38Y-119.8
X126.38Y-119.8
X128.81Y-170.4
X128.81Y-170.4
X128.92Y-119.8
X128.92Y-119.8
X131.35Y-170.4
X131.35Y-170.4
X131.46Y-119.8
X131.46Y-119.8
X133.89Y-170.4
X133.89Y-170.4
X134.Y-119.8
X134.Y-119.8
X136.43Y-170.4
X136.43Y-170.4
X136.54Y-119.8
X136.54Y-119.8
X138.97Y-170.4
X138.97Y-170.4
X139.08Y-119.8
X139.08Y-119.8
X141.51Y-170.4
X141.51Y-170.4
X141.62Y-119.8
X141.62Y-119.8
X143.83Y-123.26
X143.83Y-123.26
X143.83Y-125.8
X143.83Y-128.34
X143.83Y-128.34
X144.05Y-170.4
X144.05Y-170.4
X146.37Y-123.26
X146.37Y-123.26
X146.37Y-125.8
X146.37Y-128.34
X146.59Y-170.4
X146.59Y-170.4
X147.81Y-119.8
X147.81Y-119.8
X150.35Y-119.8
X150.35Y-119.8
X152.89Y-119.8
X152.89Y-119.8
X153.95Y-170.4
X153.95Y-170.4
X155.43Y-119.8
X155.43Y-119.8
X156.49Y-170.4
X156.49Y-170.4
X157.97Y-119.8
X157.97Y-119.8
X159.03Y-170.4
X159.03Y-170.4
X160.51Y-119.8
X160.51Y-119.8
X161.57Y-170.4
X161.57Y-170.4
X163.05Y-119.8
X163.05Y-119.8
X164.11Y-170.4
X164.11Y-170.4
X165.59Y-119.8
X165.59Y-119.8
X166.65Y-170.4
X166.65Y-170.4
X171.801Y-163.43
X171.801Y-163.43
X171.801Y-165.97
X171.801Y-165.97
X173.8Y-163.43
X173.8Y-163.43
X173.8Y-165.97
X173.8Y-165.97
X175.7Y-124.11
X175.7Y-124.11
X175.7Y-126.65
X175.7Y-126.65
X175.7Y-129.19
X175.7Y-129.19
X175.7Y-131.73
X175.7Y-131.73
X175.7Y-134.27
X175.7Y-134.27
X175.7Y-136.81
X175.7Y-136.81
X175.7Y-139.35
X175.7Y-139.35
X175.7Y-141.89
X175.7Y-141.89
T4
X124.06Y-127.69
X124.06Y-127.69
X124.06Y-135.31
X124.06Y-135.31
X124.06Y-140.69
X124.06Y-140.69
X124.06Y-148.31
X124.06Y-148.31
X129.14Y-127.69
X129.14Y-127.69
X129.14Y-135.31
X129.14Y-135.31
X129.14Y-140.69
X129.14Y-140.69
X129.14Y-148.31
X129.14Y-148.31
X146.37Y-128.34
T5
X174.3Y-146.96
X174.3Y-146.96
X174.3Y-152.04
X174.3Y-152.04
T6
X176.5Y-158.701
X176.5Y-170.699
T7
X105.6Y-169.1
X112.5Y-121.4
X165.9Y-161.3
X171.2Y-121.2
T0
M30
